<?xml version="1.0" encoding="UTF-8"?>
<svg width="11.748mm" height="63.076mm" version="1.1" viewBox="0 0 41.62513 223.49598" xmlns="http://www.w3.org/2000/svg">
 <defs>
  <clipPath id="c">
   <path d="m585.43 327.89 10.177 10.717 8.6456-9.7988 8.3394 10.105 14.464-3.6745-11.636 18.182s-3.4615 8.7817-3.6745 15.732c-0.17733 5.7854 1.4525 12.293 2.1435 18.795 0.69099 6.5014-0.16909 13.535 0 21.244 0.20011 9.1229 3.0507 23.455 3.3683 32.574 0.20621 5.9202 5.6572 12.365 7.0625 19.516 1.2302 6.2604-2.8498 14.969-2.8498 14.969s-1.2717 21.776 0.68673 33.418c1.9808 11.776 3.0621 35.33 3.0621 35.33l-12.933-6.4304-9.8704 7.6553-2.5214-7.3491-11.708 9.1863c-1.5311-4.1214 7.3491-12.224 7.3491-20.632s1.8373-8.549 1.8373-16.957c0-8.4083-1.2248-17.429-1.2248-25.837 0-8.4083-2.4497-23.553-2.4497-31.962 0-8.4083-3.9808-22.328-3.9808-30.737 0-8.4084-2.4497-23.247-2.4497-31.655 0-8.4083 2.7559-21.104 2.7559-29.512s-4.5932-24.472-4.5932-32.88z" fill="#8b5735"/>
  </clipPath>
  <linearGradient id="d" x1="591.98" x2="612.33" y1="439.17" y2="437" gradientUnits="userSpaceOnUse">
   <stop stop-opacity=".45045" offset="0"/>
   <stop stop-color="#8b5735" stop-opacity="0" offset="1"/>
  </linearGradient>
 </defs>
 <g transform="translate(-547.76 -314.9)">
  <g transform="translate(-37.669 -11.858)">
   <g fill="#ba9442" stroke="#8b5735">
    <path transform="matrix(-.39429 -.30706 .2278 -.57459 729.86 832.67)" d="m609.51 551.76-15.811-19.886 25.127-3.7503z" stroke-width=".41321"/>
    <path transform="matrix(.67017 -.31729 -.32991 -.69683 366.93 904.85)" d="m609.51 551.76-15.811-19.886 25.127-3.7503z" stroke-width=".29758"/>
   </g>
   <g transform="translate(0 1.5157)" fill="#a07f39">
    <path transform="matrix(-.39429 -.30706 .2278 -.57459 727.86 836.67)" d="m609.51 551.76-15.811-19.886 25.127-3.7503z"/>
    <path transform="matrix(.67017 -.31729 -.32991 -.69683 368.93 908.85)" d="m609.51 551.76-15.811-19.886 25.127-3.7503z"/>
   </g>
   <g fill="#b58f41" stroke="#8b5735">
    <path transform="matrix(.39429 .30706 -.2278 .57459 482.33 43.259)" d="m609.51 551.76-15.811-19.886 25.127-3.7503z" stroke-width=".41321"/>
    <path transform="matrix(.74148 0 0 .77098 160.41 124.63)" d="m609.51 551.76-15.811-19.886 25.127-3.7503z" stroke-width=".29758"/>
   </g>
   <g fill="#a07f39">
    <path transform="matrix(.39429 .30706 -.2278 .57459 483.52 39.794)" d="m609.51 551.76-15.811-19.886 25.127-3.7503z"/>
    <path transform="matrix(.74148 0 0 .77098 160.09 120.19)" d="m609.51 551.76-15.811-19.886 25.127-3.7503z"/>
   </g>
   <path d="m585.43 327.89 10.177 10.717 8.6456-9.7988 8.3394 10.105 14.464-3.6745-11.636 18.182s-3.4615 8.7817-3.6745 15.732c-0.17733 5.7854 1.4525 12.293 2.1435 18.795 0.69099 6.5014-0.16909 13.535 0 21.244 0.20011 9.1229 3.0507 23.455 3.3683 32.574 0.20621 5.9202 5.6572 12.365 7.0625 19.516 1.2302 6.2604-2.8498 14.969-2.8498 14.969s-1.2717 21.776 0.68673 33.418c1.9808 11.776 3.0621 35.33 3.0621 35.33l-12.933-6.4304-9.8704 7.6553-2.5214-7.3491-11.708 9.1863c-1.5311-4.1214 7.3491-12.224 7.3491-20.632s1.8373-8.549 1.8373-16.957c0-8.4083-1.2248-17.429-1.2248-25.837 0-8.4083-2.4497-23.553-2.4497-31.962 0-8.4083-3.9808-22.328-3.9808-30.737 0-8.4084-2.4497-23.247-2.4497-31.655 0-8.4083 2.7559-21.104 2.7559-29.512s-4.5932-24.472-4.5932-32.88z" fill="#8b5735"/>
   <g clip-path="url(#c)" fill="#67400f">
    <path d="m618.81 456.22c-1.7876 0.55173-3.002 2.1094-4.0286 3.5835-1.3101 1.8554-2.2356 4.0564-2.2016 6.3596 0.0209 2.6352 1.0799 5.3904 3.2106 7.0266 0.62719 0.49291 1.4813 0.77192 2.25 0.45283 2.2518-0.64095 3.7844-2.6658 4.5534-4.7873 1.0783-2.9612 1.1444-6.2392 0.4884-9.3012-0.25847-1.108-0.65447-2.3338-1.7161-2.9224-0.74767-0.48834-1.692-0.66204-2.556-0.4117zm0.0625 0.21875c1.4954-0.4387 3.1818 0.55509 3.6399 2.0191 0.78319 2.2113 0.89109 4.6159 0.66132 6.9355-0.29395 2.4711-1.0869 5.0434-2.9547 6.7854-0.8219 0.72172-1.8546 1.291-2.958 1.3812-1.3428-0.15794-2.2987-1.2874-2.9896-2.356-1.7426-2.738-1.9192-6.3647-0.47216-9.2677 0.88781-1.7087 1.9695-3.3741 3.4564-4.6223 0.48042-0.38449 1.0194-0.71147 1.6167-0.87509z" color="#000000" style="block-progression:tb;text-decoration-line:none;text-indent:0;text-transform:none"/>
    <path d="m595.34 327.72c-3.4276 7.8001-5.0976 17.144-1.1192 25.081 2.229 11.809-0.92524 23.733-2.7568 35.369 0.73041 7.6761 0.71032 15.285 0.31599 22.978 1.2968 15.108 8.2098 29.263 8.0378 44.59 0.45553 19.542 2.2908 39.121 0.92485 58.656-1.1239 9.6412-3.0301 19.171-4.9963 28.67 1.9036-6.0805 2.8279-13.572 4.0843-20.232 3.4766-20.655 0.66935-41.643 0.46046-62.434 0.042-12.532-2.6892-24.771-6.1483-36.748-2.5148-8.2791-2.3105-16.919-1.663-25.411-1.592-7.4255-0.28552-14.846 1.3731-22.123 1.3064-9.5724 2.8645-19.886-1.3064-28.997-1.4035-6.4964 0.87091-13.62 2.7936-19.398z" color="#000000" style="block-progression:tb;text-decoration-line:none;text-indent:0;text-transform:none"/>
    <path d="m599.34 327.72c-3.4276 7.8001-5.0976 17.144-1.1192 25.081 2.229 11.809-0.92524 23.733-2.7568 35.369 0.73041 7.6761 0.4938 15.285 0.0995 22.978 1.2968 15.108 8.4264 29.263 8.2543 44.59 0.45553 19.542 2.2908 39.121 0.92485 58.656-1.1239 9.6412-3.0301 19.171-4.9963 28.67 1.9036-6.0805 2.8279-11.298 4.0843-17.958 3.4766-20.655 0.66935-43.916 0.46046-64.708 0.0414-12.533-2.9374-26.101-5.8235-37.505-2.5148-8.2791-2.6353-16.161-1.9878-24.654-0.45971-7.4255 0.42268-14.954 1.9144-22.231 1.3064-9.5724 1.5302-22.182-1.5229-29.43-1.4035-6.4964 0.54612-13.079 2.4688-18.857z" color="#000000" style="block-progression:tb;text-decoration-line:none;text-indent:0;text-transform:none"/>
    <path d="m605.16 324.75c-1.6363 8.1622-3.558 16.498-3.7454 24.798 1.1996 10.026 5.1967 20.215 1.8918 30.27-1.8912 7.6765-4.6933 15.543-2.5762 23.489 1.4409 10.58 2.0751 21.367 5.8061 31.466 0.54967 7.3581 7.0636 15.985 2.0139 22.668-2.3861 5.887-3.4754 13.717 0.13641 19.278-1.6234 8.2722-0.82544 16.716 0.0649 25.102 0.97008 12.299 0.12222 25.017-3.4048 36.88-1.9882 3.0576-5.4288 16.991-2.5207 6.8874 6.0113-12.761 6.7869-27.274 6.3963-41.148-0.56321-8.8567-2.5467-17.856-0.21862-26.597-2.8021-5.3825-2.7144-11.682-1.4636-17.663 6.0852-6.6442 1.391-15.033-0.0391-22.608-2.3189-7.687-4.5478-15.372-5.176-23.42-0.72519-9.0077-3.8306-18.109-0.62851-26.973 2.474-8.4339 4.4207-17.321 1.9946-26.024-1.4857-6.9301-3.1583-14.035-1.0744-21.037 0.6255-5.086 1.8113-10.658 2.5432-15.37z" color="#000000" style="block-progression:tb;text-decoration-line:none;text-indent:0;text-transform:none"/>
    <path d="m613.05 324.75c-1.6363 8.1622-5.5067 16.282-5.6941 24.582 1.1996 10.026 4.4388 20.215 1.134 30.27-1.8912 7.6765-4.3685 16.301-2.2514 24.247 1.4409 10.58 0.55943 20.826 4.2904 30.924 0.35702 4.7793 2.9461 8.1434 3.7886 12.505 0.45463 2.3532 0.86119 5.7642-0.90863 8.1064-1.5085 3.7218-3.8849 7.3319-3.0828 12.084 0.46664 2.7644 2.4321 9.0466 3.7605 11.092-1.6234 8.2722-2.6922 10.053-1.8018 18.438-0.31482 12.299 9.6147 40.71 6.0878 52.573-1.9882 3.0576-2.9791 11.48-0.071 1.3756 5.0932-12.99-6.324-32.503-6.0052-46.2-0.56321-8.8567-4e-3 -16.539 2.3239-25.28-0.57905-1.1123-1.7536-5.1479-2.2111-6.4376-1.7564-4.9514-1.8687-8.1041-0.87641-12.849 6.0852-6.6442 1.391-15.033-0.0391-22.608-2.3189-7.687-3.3569-17.753-3.9852-25.802-0.72519-9.0077-2.6398-18.975 0.56237-27.839 2.474-8.4339 2.5802-14.398 0.1542-23.101-1.4857-6.9301-0.45172-16.092 1.6322-23.094 0.6255-5.086 2.4609-6.9769 3.1928-11.689z" color="#000000" style="block-progression:tb;text-decoration-line:none;text-indent:0;text-transform:none"/>
    <path d="m615.84 383.41c-2.8824 7.9148-5.6317 16.081-5.6071 24.604-0.21734 8.7213 0.4756 17.716 3.8508 25.845 2.101 4.4309 4.7823 8.5572 7.5688 12.582-1.2226-2.7525-3.8518-5.849-5.3568-8.8586-4.6987-7.7534-5.684-17.058-5.8914-25.94-0.10496-6.5813 0.58662-13.197 2.7102-19.456 0.6958-2.8814 2.3518-6.2064 2.7255-8.7773z" color="#000000" style="block-progression:tb;text-decoration-line:none;text-indent:0;text-transform:none"/>
    <path d="m623.04 474.66c-2.8824 7.9148-5.6317 16.081-5.6071 24.604-0.21734 8.7213 0.4756 17.716 3.8508 25.845 2.101 4.4309 4.7823 8.5572 7.5688 12.582-1.2226-2.7525-3.8518-5.849-5.3568-8.8586-4.6987-7.7534-5.684-17.058-5.8914-25.94-0.10496-6.5813 0.58662-13.197 2.7102-19.456 0.6958-2.8814 2.3518-6.2064 2.7255-8.7773z" color="#000000" style="block-progression:tb;text-decoration-line:none;text-indent:0;text-transform:none"/>
   </g>
   <ellipse transform="matrix(1.1344 .13856 -.14806 1.0616 -10.897 -116.99)" cx="615.9" cy="467.86" rx="2.9231" ry="6.1709" fill="#ba9442"/>
   <path d="m618.79 459.77c-0.97436 0.64957-1.6218 1.7573-2.127 3.2096s-0.85638 3.5819-0.43305 5.3048c0.1935 0.78754 0.49318 1.9671 1.2992 2.057 1.3695 0.15269 2.3806-1.6564 2.9231-2.9231 0.59681-1.3937 1.027-3.341 0.10826-4.547-0.45083-0.5918-1.5131-0.89931-2.1652-0.54131-1.1004 0.60406-1.0986 2.3207-1.1909 3.5726-0.0458 0.62128-0.21043 1.5217 0.32479 1.8405 0.29413 0.17519 1.0821 0.17129 1.3188-0.076 0.54507-0.56929 0.0886-3.4967 0.0886-3.4967" fill="none" stroke="#a07f39" stroke-width=".225"/>
   <path d="m585.43 327.89 10.177 10.717 8.6456-9.7988 8.3394 10.105 14.464-3.6745-11.636 18.182s-3.4615 8.7817-3.6745 15.732c-0.17733 5.7854 1.4525 12.293 2.1435 18.795 0.69099 6.5014-0.16909 13.535 0 21.244 0.20011 9.1229 3.0507 23.455 3.3683 32.574 0.20621 5.9202 5.6572 12.365 7.0625 19.516 1.2302 6.2604-2.8498 14.969-2.8498 14.969s-1.2717 21.776 0.68673 33.418c1.9808 11.776 3.0621 35.33 3.0621 35.33l-12.933-6.4304-9.8704 7.6553-2.5214-7.3491-11.708 9.1863c-1.5311-4.1214 7.3491-12.224 7.3491-20.632s1.8373-8.549 1.8373-16.957c0-8.4083-1.2248-17.429-1.2248-25.837 0-8.4083-2.4497-23.553-2.4497-31.962 0-8.4083-3.9808-22.328-3.9808-30.737 0-8.4084-2.4497-23.247-2.4497-31.655 0-8.4083 2.7559-21.104 2.7559-29.512s-4.5932-24.472-4.5932-32.88z" fill="url(#d)"/>
  </g>
 </g>
</svg>
