<?xml version="1.0" encoding="UTF-8" standalone="no"?>
<!DOCTYPE svg PUBLIC "-//W3C//DTD SVG 1.1//EN" "http://www.w3.org/Graphics/SVG/1.1/DTD/svg11.dtd">
<svg width="100%" height="100%" viewBox="0 0 3300 2550" version="1.1" xmlns="http://www.w3.org/2000/svg" xmlns:xlink="http://www.w3.org/1999/xlink" xml:space="preserve" xmlns:serif="http://www.serif.com/" style="fill-rule:evenodd;clip-rule:evenodd;stroke-linejoin:round;stroke-miterlimit:2;">
    <g transform="matrix(1.61545,0,0,1.61545,-474.11,-1271.48)">
        <g transform="matrix(1,0,0,1,36.2571,-36.2571)">
            <path d="M486.686,1871.19C594.43,2169.64 887.203,2383.9 1231.09,2383.9C1581.86,2383.9 1879.44,2160.99 1981.74,1853.18C1810.29,1737.56 1544.77,1663.29 1246.96,1663.29C933.954,1663.29 656.634,1745.32 486.686,1871.19Z" style="fill:rgb(134,180,124);"/>
        </g>
        <path d="M522.943,1834.93C494.323,1755.65 478.758,1670.44 478.758,1581.72C478.758,1158.99 832.115,815.785 1267.35,815.785C1702.59,815.785 2055.94,1158.99 2055.94,1581.72C2055.94,1663.76 2042.63,1742.8 2018,1816.93C1846.54,1701.3 1581.03,1627.04 1283.21,1627.04C970.211,1627.04 692.891,1709.07 522.943,1834.93Z" style="fill:white;"/>
        <g>
            <g transform="matrix(1,0,0,1,31.725,0)">
                <path d="M1308.14,1744.87C1334.58,1843.07 1324.69,2240.31 1308.14,2334.05C1302.18,2367.81 1217.75,2340.42 1208.83,2307.31C1182.39,2209.12 1132.96,1838.61 1149.52,1744.87C1158.71,1692.8 1294.39,1693.82 1308.14,1744.87Z" style="fill:rgb(125,78,33);"/>
            </g>
            <path d="M1157.53,1249.96C1157.53,1207.94 1196.59,1173.82 1244.69,1173.82C1292.79,1173.82 1331.85,1207.94 1331.85,1249.96C1355.9,1213.57 1409.24,1201.08 1450.9,1222.1C1492.56,1243.11 1506.85,1289.71 1482.8,1326.11C1524.46,1305.09 1577.81,1317.58 1601.86,1353.98C1625.91,1390.37 1611.62,1436.98 1569.96,1457.99C1618.06,1457.99 1657.11,1492.11 1657.11,1534.13C1657.11,1576.15 1618.06,1610.27 1569.96,1610.27C1611.62,1631.28 1625.91,1677.89 1601.86,1714.28C1577.81,1750.67 1524.46,1763.16 1482.8,1742.15C1506.85,1778.54 1492.56,1825.15 1450.9,1846.16C1409.24,1867.17 1355.9,1854.68 1331.85,1818.29C1331.85,1860.32 1292.79,1894.43 1244.69,1894.43C1196.59,1894.43 1157.53,1860.32 1157.53,1818.29C1133.48,1854.68 1080.13,1867.17 1038.48,1846.16C996.819,1825.15 982.525,1778.54 1006.58,1742.15C964.918,1763.16 911.571,1750.67 887.52,1714.28C863.468,1677.89 877.763,1631.28 919.421,1610.27C871.318,1610.27 832.265,1576.15 832.265,1534.13C832.265,1492.11 871.318,1457.99 919.421,1457.99C877.763,1436.98 863.468,1390.37 887.52,1353.98C911.571,1317.58 964.918,1305.09 1006.58,1326.11C982.525,1289.71 996.819,1243.11 1038.48,1222.1C1080.13,1201.08 1133.48,1213.57 1157.53,1249.96Z" style="fill:rgb(35,136,23);"/>
        </g>
        <g transform="matrix(0.443279,0.232081,-0.232081,0.443279,1547.8,884.851)">
            <g transform="matrix(1,0,0,1,31.725,0)">
                <path d="M1308.14,1744.87C1334.58,1843.07 1324.69,2240.31 1308.14,2334.05C1302.18,2367.81 1217.75,2340.42 1208.83,2307.31C1182.39,2209.12 1132.96,1838.61 1149.52,1744.87C1158.71,1692.8 1294.39,1693.82 1308.14,1744.87Z" style="fill:rgb(125,78,33);"/>
            </g>
            <path d="M1157.53,1249.96C1157.53,1207.94 1196.59,1173.82 1244.69,1173.82C1292.79,1173.82 1331.85,1207.94 1331.85,1249.96C1355.9,1213.57 1409.24,1201.08 1450.9,1222.1C1492.56,1243.11 1506.85,1289.71 1482.8,1326.11C1524.46,1305.09 1577.81,1317.58 1601.86,1353.98C1625.91,1390.37 1611.62,1436.98 1569.96,1457.99C1618.06,1457.99 1657.11,1492.11 1657.11,1534.13C1657.11,1576.15 1618.06,1610.27 1569.96,1610.27C1611.62,1631.28 1625.91,1677.89 1601.86,1714.28C1577.81,1750.67 1524.46,1763.16 1482.8,1742.15C1506.85,1778.54 1492.56,1825.15 1450.9,1846.16C1409.24,1867.17 1355.9,1854.68 1331.85,1818.29C1331.85,1860.32 1292.79,1894.43 1244.69,1894.43C1196.59,1894.43 1157.53,1860.32 1157.53,1818.29C1133.48,1854.68 1080.13,1867.17 1038.48,1846.16C996.819,1825.15 982.525,1778.54 1006.58,1742.15C964.918,1763.16 911.571,1750.67 887.52,1714.28C863.468,1677.89 877.763,1631.28 919.421,1610.27C871.318,1610.27 832.265,1576.15 832.265,1534.13C832.265,1492.11 871.318,1457.99 919.421,1457.99C877.763,1436.98 863.468,1390.37 887.52,1353.98C911.571,1317.58 964.918,1305.09 1006.58,1326.11C982.525,1289.71 996.819,1243.11 1038.48,1222.1C1080.13,1201.08 1133.48,1213.57 1157.53,1249.96Z" style="fill:rgb(35,136,23);"/>
        </g>
        <g transform="matrix(-0.411943,0.215675,0.215675,0.411943,963.665,990.258)">
            <g transform="matrix(1,0,0,1,31.725,0)">
                <path d="M1308.14,1744.87C1334.58,1843.07 1324.69,2240.31 1308.14,2334.05C1302.18,2367.81 1217.75,2340.42 1208.83,2307.31C1182.39,2209.12 1132.96,1838.61 1149.52,1744.87C1158.71,1692.8 1294.39,1693.82 1308.14,1744.87Z" style="fill:rgb(125,78,33);"/>
            </g>
            <path d="M1157.53,1249.96C1157.53,1207.94 1196.59,1173.82 1244.69,1173.82C1292.79,1173.82 1331.85,1207.94 1331.85,1249.96C1355.9,1213.57 1409.24,1201.08 1450.9,1222.1C1492.56,1243.11 1506.85,1289.71 1482.8,1326.11C1524.46,1305.09 1577.81,1317.58 1601.86,1353.98C1625.91,1390.37 1611.62,1436.98 1569.96,1457.99C1618.06,1457.99 1657.11,1492.11 1657.11,1534.13C1657.11,1576.15 1618.06,1610.27 1569.96,1610.27C1611.62,1631.28 1625.91,1677.89 1601.86,1714.28C1577.81,1750.67 1524.46,1763.16 1482.8,1742.15C1506.85,1778.54 1492.56,1825.15 1450.9,1846.16C1409.24,1867.17 1355.9,1854.68 1331.85,1818.29C1331.85,1860.32 1292.79,1894.43 1244.69,1894.43C1196.59,1894.43 1157.53,1860.32 1157.53,1818.29C1133.48,1854.68 1080.13,1867.17 1038.48,1846.16C996.819,1825.15 982.525,1778.54 1006.58,1742.15C964.918,1763.16 911.571,1750.67 887.52,1714.28C863.468,1677.89 877.763,1631.28 919.421,1610.27C871.318,1610.27 832.265,1576.15 832.265,1534.13C832.265,1492.11 871.318,1457.99 919.421,1457.99C877.763,1436.98 863.468,1390.37 887.52,1353.98C911.571,1317.58 964.918,1305.09 1006.58,1326.11C982.525,1289.71 996.819,1243.11 1038.48,1222.1C1080.13,1201.08 1133.48,1213.57 1157.53,1249.96Z" style="fill:rgb(35,136,23);"/>
        </g>
    </g>
</svg>
