<?xml version='1.0' encoding='utf-8'?>
<svg xmlns="http://www.w3.org/2000/svg" enable-background="new 0 0 229.2 410.1" version="1.1" viewBox="0 0 229.2 410.1">
	<g clip-rule="evenodd" fill-rule="evenodd">
			<radialGradient id="c" cx="120.2" cy="366.6" r="106.1" gradientTransform="matrix(1 0 0 -.2469 0 457.13)" gradientUnits="userSpaceOnUse">
			<stop stop-opacity=".6863" offset="0"/>
			<stop stop-opacity="0" offset="1"/>
		</radialGradient>
		<path d="m119.95 352.5c4.433 0 11.083 0.166 19.95 0.5 8.899 0.3 15.583 0.45 20.05 0.45 2.7 0 6.783-0.034 12.25-0.101 4.833 0.033 8.95 0.2 12.35 0.5 3.667 3.233 7.351 5.684 11.05 7.351l4.601 1.95c2.633 2.333 5.633 4.116 9 5.35 0.866 0.333 2.2 0.783 4 1.35 2.066 0.768 4.267 1.101 6.6 1 3.233 0.867 6.367 1.816 9.4 2.851h-1c-2.3 0.033-5.05 0.733-8.25 2.1-3.634 1.567-6.267 2.467-7.9 2.7-3.167 0.467-7.75 0.55-13.75 0.25-6.366-0.367-10.95-0.4-13.75-0.1 2.967 0.8 5.967 3.066 9 6.8 3.733 4.6 6.5 7.5 8.3 8.7 1.4 0.933 3.95 2.266 7.65 4 3.366 1.566 5.65 2.816 6.85 3.75-5.399 0-12.533-0.484-21.399-1.45-10.567-1.134-17.667-1.8-21.3-2-1.167-0.067-4.934 0.167-11.301 0.7-4.666 0.399-8.3 0.116-10.899-0.851-1.134-0.399-2.884-1.366-5.25-2.899-2-1.301-3.8-2.117-5.4-2.45-3.667-0.767-5.55-1.167-5.649-1.2-2.601-0.733-5.617-1.2-9.051-1.4-1.767-0.1-4.916-0.149-9.449-0.149-2.167-0.167-3.884-0.3-5.15-0.4-2.3-0.134-4-0.017-5.1 0.351-0.768 0.266-1.7 1.05-2.801 2.35-1.133 1.333-2.033 2.15-2.699 2.45-0.667 0.267-1.634 0.333-2.9 0.2-1.566-0.134-2.566-0.184-3-0.15-1.667 0.2-3.684 0.883-6.05 2.05-3.067 1.467-5.017 2.333-5.851 2.601-7.066 2.366-13.783 3.566-20.149 3.6-2.434-0.066-4.267-0.117-5.5-0.15-2.233-0.033-4.067 0.066-5.5 0.301-1.867 0.3-4.434 1.3-7.7 3-3.4 1.732-5.934 2.766-7.6 3.1-4.067 0.833-10.617 0.767-19.65-0.2 1.033-0.8 2.617-1.717 4.75-2.75 2.633-1.233 4.3-2.066 5-2.5 0.967-0.566 2.367-1.55 4.2-2.95 1.733-1.3 3.1-2.232 4.1-2.8 1.333-0.7 3.15-1.167 5.45-1.399 2.467-0.234 4.233-0.567 5.3-1 0.833-0.367 1.9-1.217 3.2-2.551 1.233-1.3 2.35-2.116 3.35-2.449-0.333-1.9-1.733-3.134-4.2-3.7-2.933-0.267-4.9-0.45-5.9-0.55 0.133-0.867 0.3-1.533 0.5-2-1.934-1-5.517-1.268-10.75-0.801-5.767 0.834-9.55 1.367-11.35 1.601-2.1 0.3-4.667 0.433-7.7 0.399-3.4-0.033-5.95-0.05-7.65-0.05 2.1-0.399 5-1.35 8.7-2.85 4-1.601 6.85-2.617 8.55-3.05 3.833-0.967 7.833-2.5 12-4.601 4.667-2.333 8.3-4.816 10.9-7.45 4.767-1.732 11.85-4.633 21.25-8.699l9.4-4.05c1.733-0.732 2.817-1.184 3.25-1.35l5.601-2.2c1.5 0.067 3.767 0.25 6.8 0.55 2.566 0.268 4.283 0.4 5.15 0.4h23.049z" fill="url(#c)"/>
			<radialGradient id="d" cx="111.06" cy="361.77" r="91.359" gradientTransform="matrix(.9999 -.0142 -.006 -.4224 7.3281 514.53)" gradientUnits="userSpaceOnUse">
			<stop stop-opacity=".4" offset="0"/>
			<stop stop-opacity=".098" offset="1"/>
		</radialGradient>
		<path d="m124.45 379.55c-1.467-1-2.617-1.517-3.45-1.55-0.367 0-0.934 0.083-1.7 0.25-0.8 0.166-1.417 0.25-1.85 0.25-0.7 0-1.2 0.033-1.5 0.1-0.334 0.101-0.75 0.334-1.25 0.7-0.4 0.3-1.351 1.116-2.851 2.45-1.1 1-2.1 1.733-3 2.2-1.033 0.566-2.3 0.899-3.8 1-1.967 0.167-3.116 0.3-3.45 0.399-1.5 0.334-2.416 1.051-2.75 2.15-0.166 0.467-0.166 0.883 0 1.25 0.067 0.133 0.267 0.45 0.601 0.95-4.033 0.1-8.684 0.5-13.95 1.2-3.333 0.467-7.467 1.183-12.4 2.149l-7.05 1.351c-0.233 0.066-1.4 0.25-3.5 0.55-1.404 0.233-1.871 0.334-1.4 0.3l-6.95 0.8c0.6-0.433 1.3-0.783 2.1-1.05 1.134-0.367 1.85-0.617 2.15-0.75 0.7-0.334 1.433-1.133 2.2-2.4 0.967-1.566 1.65-2.55 2.05-2.949 1-1.033 2.083-1.768 3.25-2.2 0.633-0.233 1.917-0.517 3.85-0.851 2.033-0.366 4.533-1.333 7.5-2.899 3.634-1.9 5.15-3.583 4.55-5.05-0.166-0.4-0.699-0.801-1.6-1.2-0.767-0.333-1.367-0.517-1.8-0.55-0.434-0.067-1.067-0.033-1.9 0.1-0.934 0.133-1.566 0.2-1.899 0.2-2.234 0-5.517 0.167-9.851 0.5-0.5 0.033-1.267 0.167-2.3 0.399-1 0.233-1.767 0.367-2.3 0.4-2 0.1-3.5 0.35-4.5 0.75-1.601 0.666-3.284 1.1-5.05 1.3-1.5 0.167-3.25 0.184-5.25 0.05-1.433-0.1-3.25-0.1-5.45 0-2.833 0.134-4.617 0.2-5.351 0.2-2.233 0-4.916 0.25-8.05 0.75-3.086 0.559-5.494 0.976-7.225 1.25 2.239-0.407 4.965-1.474 8.175-3.2 0.867-0.467 2.117-1.033 3.75-1.699 1.333-0.634 2.367-1.551 3.1-2.75l41.75-19.3c1.733-0.732 2.817-1.184 3.25-1.35 2.067-0.834 4.783-1.867 8.15-3.1 0.9-0.167 3.2-0.801 6.9-1.9 2.899-0.833 5.267-1.45 7.1-1.85 2.467-0.5 4.866-0.801 7.2-0.9 2.767-0.1 6.666-0.35 11.7-0.75 5.433-0.434 9.333-0.7 11.699-0.8 3.7-0.167 8.167-0.25 13.4-0.25 2.4 0 6.167-0.134 11.3-0.4 4.601-0.1 8.333 0.2 11.2 0.9 5 1.267 8.883 2.433 11.65 3.5 1 1.767 2.199 3.267 3.6 4.5 4.2 3.866 8.316 6.7 12.35 8.5l2.851 1.2c6.1 5.333 10.95 9.133 14.55 11.399-3.5 0.233-6.533 0.351-9.1 0.351-0.567-0.033-1.084 0.033-1.551 0.199-0.566 0.233-1.05 0.4-1.449 0.5-1.167 0.334-2.684 0.518-4.551 0.551-2.1-0.033-3.666-0.033-4.699 0-0.801 0.033-1.884 0.3-3.25 0.8-1.4 0.533-2.45 0.816-3.15 0.85-0.967 0.067-2.467-0.017-4.5-0.25-2-0.267-3.5-0.366-4.5-0.3-0.066 0.9 0.633 1.816 2.1 2.75 0.801 0.533 1.867 1.15 3.2 1.85 1.066 0.768 2.05 1.816 2.95 3.15 0.167 0.267 0.934 1.583 2.3 3.95 0.566 0.966 1.583 1.95 3.05 2.95 1.5 1 2.5 1.883 3 2.649 0.367 0.567 0.783 1.283 1.25 2.15 0.434 0.667 1.033 1.033 1.801 1.1-1.534-0.033-3.384-0.2-5.551-0.5-0.8-0.1-2.033-0.083-3.699 0.05-1.667 0.134-2.9 0.134-3.7 0-1.134-0.133-2.4-0.533-3.8-1.199-1.301-0.601-2.518-1.334-3.65-2.2-0.7-0.601-1.25-1.05-1.65-1.351-0.666-0.533-1.267-0.866-1.8-1-0.6-0.166-1.467-0.199-2.6-0.1-1.733 0.1-2.634 0.15-2.7 0.15-1.9 0.066-3.333 0.1-4.3 0.1-1.667-0.033-3.084-0.233-4.25-0.6-0.733-0.234-1.483-0.601-2.25-1.101-0.9-0.634-1.617-1.134-2.15-1.5-2.1-1.3-4.783-2.433-8.05-3.399-2.667-0.834-5.566-1.25-8.7-1.25-1.533 0-3.866-0.268-7-0.801-1.066-0.166-2.05-0.517-2.95-1.05-0.13-0.07-1.02-0.65-2.65-1.75z" fill="url(#d)"/>
	</g>
		<path d="m85.1 18.4c-1.233-7.667-1.383-13.5-0.449-17.5 0.066 0.033 0.25 0.083 0.55 0.15v-0.55h80.399l0.25-0.5c0 3.2 0.301 7.2 0.9 12 0.767 6.267 1.217 10.2 1.35 11.8 0.233 3.067 0.317 6.983 0.25 11.75-0.066 2.667-0.149 6.6-0.25 11.8 0 0.533 0.067 4.917 0.2 13.15 0.033 3.933-0.066 8.3-0.3 13.1-0.533 10.566-0.8 23.917-0.8 40.05 0 4.267 0.233 7.667 0.7 10.2 0.433 2.533 0.649 5.917 0.649 10.15 0 7.4-0.033 11.9-0.1 13.5-0.233 4.833-0.834 9.133-1.8 12.9-0.067 2.1-0.184 4.717-0.351 7.85 0 2.5-0.1 6.45-0.3 11.85-0.1 4.8 0.15 8.683 0.75 11.65 0.033 0.1 0.6 2.283 1.7 6.55 0.666 2.5 1 4.783 1 6.85 0 4.466-0.233 8.05-0.7 10.75-0.434 2.633-0.65 6.183-0.65 10.649 0 11.7-0.133 25.717-0.399 42.05 0.133 1.267 0.3 2.384 0.5 3.351 0.233 1.3 0.666 2.983 1.3 5.05 0.767 2.467 1.25 4.133 1.45 5 0.767 3 1.283 6.7 1.55 11.1 0.133 2.367 0.217 6.101 0.25 11.2 0.033 3.267 0.017 6.25-0.05 8.95 0.066 1.767 0.566 4.7 1.5 8.8 0.3 1.233 0.933 3.25 1.899 6.05 0.867 2.467 1.434 4.517 1.7 6.15 0.267 1.6 0.95 2.583 2.05 2.95 1.167 0.366 1.967 1.333 2.4 2.899 0.233 0.733 0.5 1.717 0.8 2.95 0.3 1.066 0.667 2 1.101 2.8 0.366 0.634 0.982 1.483 1.85 2.551 0.866 1.066 1.467 1.883 1.8 2.449 1.601 2.768 2.583 4.434 2.95 5 1.133 1.768 2.366 3.268 3.7 4.5 0.2 0.2 0.783 0.834 1.75 1.9 0.733 0.833 1.35 1.416 1.85 1.75 0.333 0.233 1.017 0.566 2.05 1 0.834 0.4 1.5 0.8 2 1.2 0.367 0.333 1.301 1.417 2.801 3.25 1.166 1.433 2.166 2.283 3 2.55-0.934-0.066-4.167-0.167-9.7-0.3-4.267-0.101-7.65-0.333-10.15-0.7-3.399-0.6-5.917-1.05-7.55-1.35-2.967-0.5-5.55-0.75-7.75-0.75-0.8 0-1.65 0.116-2.55 0.35-0.967 0.3-1.733 0.5-2.3 0.6-0.467 0.101-1.134 0.117-2 0.051 0.633 1 1.199 2.066 1.699 3.199 1.101 2.434 2.417 4.533 3.95 6.301 1.3 1.5 3.083 3.1 5.351 4.8 1.133 0.833 2 1.533 2.6 2.1 0.833 0.866 1.483 1.817 1.95 2.851 0.3 0.699 0.6 1.916 0.899 3.649 0.267 1.601 0.634 2.8 1.101 3.601-0.533 0.232-1.101 0.066-1.7-0.5-0.667-0.768-1.2-1.301-1.6-1.601-0.867-0.667-1.934-1.233-3.2-1.7-0.601-0.232-1.8-0.6-3.601-1.1-1.533-0.467-2.666-0.816-3.399-1.05-1.3-0.333-2.467-0.534-3.5-0.601-0.067 0-1.233 0.033-3.5 0.101-1.434 0.033-2.567-0.134-3.4-0.5-3.7-1.934-6.5-3.384-8.399-4.351-3.467-1.767-6.384-2.699-8.75-2.8-4.534-0.2-7-0.333-7.4-0.399-2.667-0.4-5-1.334-7-2.801-2.434-2.166-4.267-3.767-5.5-4.8-2.2-1.8-4.25-2.8-6.15-3-2-0.2-3.899-0.183-5.699 0.05-2.268 0.268-4.084 0.851-5.45 1.75-1.167 0.801-3.134 2.601-5.9 5.4-2.3 2.333-4.434 3.916-6.399 4.75-3.268 1.367-6.667 2.083-10.2 2.15-1.733 0.033-3.317 0.316-4.75 0.85-1.167 0.467-2.601 1.283-4.3 2.45-2.367 1.633-4.434 2.6-6.2 2.899-0.967 0.066-1.667 0.117-2.101 0.15-0.833 0.033-1.533 0.233-2.1 0.6-1.467 1-2.566 1.7-3.3 2.101-1.233 0.667-2.483 0.95-3.75 0.85 0.399-0.733 1.033-2.283 1.899-4.649 0.767-2.101 1.483-3.601 2.15-4.5 2.2-2.934 4.184-5.25 5.95-6.95 0.866-0.833 2.316-1.8 4.35-2.9 2.033-1.066 3.483-2.033 4.351-2.899 0.966-0.867 1.649-1.684 2.05-2.45l0.25-0.75c-2.5 0.7-7.167 1.417-14 2.149-7.167 0.801-13.184 1.816-18.05 3.051-2.733 0.766-4.8 1.3-6.2 1.6-2.367 0.5-4.483 0.684-6.351 0.55-0.033-0.634 0.9-2.116 2.8-4.45 1.633-2.033 3-3.55 4.1-4.55 4.867-4.533 8.833-8.85 11.9-12.95 3.333-4.467 6.417-9.733 9.25-15.8 0.867-1.833 2.183-3.649 3.95-5.45 1.634-1.666 2.867-3.566 3.7-5.699 0.5-1.268 1.9-3.65 4.2-7.15 2-3 3.2-5.434 3.6-7.3 0.267-1.2 0.351-2.9 0.25-5.101-0.166-2.399-0.25-4.116-0.25-5.149 0-1.134-0.183-5.134-0.55-12-0.2-3.7 0.017-7.667 0.65-11.9 0.133-0.967 0.6-3.149 1.399-6.55 0.567-2.533 0.867-4.767 0.9-6.7 0.033-1.6-0.033-3.533-0.2-5.8-0.267-3.634-0.399-5.55-0.399-5.75-0.268-4.8-0.217-9.2 0.149-13.2 0.667-7.767 1.017-12.133 1.05-13.1 0.267-5.3 0.351-9.233 0.25-11.8-0.166-4.834-0.25-8.768-0.25-11.8 0-5.934-0.449-13.333-1.35-22.2-0.267-2.6-0.316-5.933-0.15-10 0.2-6 0.301-9.383 0.301-10.15 0-3.367-0.334-8.517-1-15.45-0.534-5.433-0.601-10.566-0.2-15.4 0.233-3.1 0.767-6.733 1.6-10.9 0.767-3.8 1.233-7.467 1.4-11 0.333-6.434 0.533-15.2 0.6-26.3 0.033-3.767 0.783-8.184 2.25-13.25 1.233-4.4 1.667-8.767 1.3-13.1-0.233-2.567 0.167-6.1 1.2-10.6 1.2-5.233 1.851-8.817 1.95-10.75 0.168-3.067-0.466-9.017-1.899-17.85z" clip-rule="evenodd" fill="#4B330F" fill-rule="evenodd"/>
	<g clip-rule="evenodd" fill="#402C08" fill-rule="evenodd">
		<path d="m181.35 354.55c-0.666 0.434-1.133 0.733-1.399 0.9 0.333 0.7 0.916 1.433 1.75 2.2 1.233 1.1 1.916 1.717 2.05 1.85-1.134 0.633-2.634 0.75-4.5 0.35-2.566-0.6-4.083-0.899-4.55-0.899-2.101 0-3.533 0.633-4.3 1.899-0.834 1.301-0.067 2.384 2.3 3.25 0.7 0.233 1.733 0.367 3.1 0.4 1.533 0 2.583 0.066 3.15 0.2 1.433 0.333 3.616 1.017 6.55 2.05 2.7 0.833 4.934 1.117 6.7 0.85-1.101-1-2.384-2.316-3.851-3.949 1.134-0.033 2.384 0.333 3.75 1.1 1.733 0.967 2.917 1.533 3.551 1.7-3.534-2.867-6.084-5.467-7.65-7.8-2.066-3.101-3.15-6.617-3.25-10.551-0.367-0.066-0.684 0.217-0.95 0.851-0.267 0.833-0.517 1.433-0.75 1.8-0.133 0.267-0.217 0.7-0.25 1.3 0 0.601-0.083 1.033-0.25 1.3-0.2 0.37-0.6 0.77-1.2 1.2zm-54.6-324.1c-0.066-4.434-0.1-13.017-0.1-25.75-0.301-0.367-0.45-0.65-0.45-0.85v-3.35h40v312.65c0 0.066 0.717 0.283 2.149 0.649 1.5 0.533 2.75 1.934 3.75 4.2 0.567 1.267 1.301 3.167 2.2 5.7 1.967 4.233 3.467 8.116 4.5 11.649 0.601 2.067 1.967 4.25 4.101 6.551 1.8 1.966 2.85 4.316 3.149 7.05-0.5-0.5-0.934-0.783-1.3-0.851 0.167 2.066 2.066 4.717 5.7 7.95 1.933 1.733 4.55 3.866 7.85 6.4 3.8 3.233 6.184 5.233 7.15 6 2.833 2.267 5.35 3.95 7.55 5.05-3.1 1.4-7.65 1.617-13.65 0.65-6.566-1.4-11.149-2.184-13.75-2.351-2.6-0.066-4.5-0.149-5.699-0.25-2-0.167-3.817-0.55-5.45-1.149-2.667-0.967-5.317-1.768-7.95-2.4 2.066 4.666 4.133 8.133 6.2 10.4 4.2 4.467 6.7 7.283 7.5 8.449 2.633 3.801 3.683 7.5 3.149 11.101-4.967-4.267-9.3-7.3-13-9.101-0.933-0.467-2.666-1.033-5.199-1.699-2.268-0.601-3.867-1.2-4.801-1.801-0.467-0.3-1.033-0.833-1.699-1.6-0.7-0.767-1.268-1.3-1.7-1.6-1.367-0.934-3.567-1.867-6.601-2.801-3.199-1-5.467-1.899-6.8-2.699 1.601-0.4 4.233 0.3 7.9 2.1 3.767 1.833 6.616 2.583 8.55 2.25-1.467-2.2-3.6-4.233-6.4-6.1-2.633-1.734-5.283-2.967-7.949-3.7 0.966 0.133 2.666 0.433 5.1 0.899 2.133 0.268 3.633 0 4.5-0.8-1.066-0.866-2.6-1.649-4.6-2.35-0.434-0.134-2.184-0.667-5.25-1.601-1.134 0.9-2.384 1.7-3.75 2.4-0.9 0.5-2.733 0.65-5.5 0.45-2.567-0.167-4.184 0.05-4.851 0.649-1.233 1.134-1.3 2.518-0.2 4.15 0.9 1.3 2.101 2.316 3.601 3.05-3.233-0.6-6.7-2.183-10.4-4.75-1.5-1.033-4.616-3.517-9.35-7.45 0.066 0.7-0.2 1.25-0.8 1.65 0.5 0.267 1.366 0.65 2.6 1.15 1.033 0.533 1.7 1.166 2 1.899-3 0-5.867 0.483-8.6 1.45-2.467 0.867-5.034 2.233-7.7 4.1-1.9 1.301-4.384 3.617-7.45 6.95-1.467 1.634-3.167 2.817-5.1 3.55-1.367 0.5-3.351 0.9-5.95 1.2-2.533 0.3-5.283 0.934-8.25 1.9-1.134 0.366-3.784 1.333-7.95 2.899-1.4 0.533-3.617 1.217-6.65 2.051-2.866 0.766-5.033 1.449-6.5 2.05 0.834-1 1.767-2.483 2.8-4.45 1.2-2.3 2.034-3.8 2.5-4.5 0.367-0.566 0.917-1.084 1.65-1.55 0.4-0.267 1.017-0.684 1.85-1.25 0.467-0.333 1.217-1.017 2.25-2.05 0.933-0.934 1.7-1.601 2.3-2 0.3 1.666-0.384 3.816-2.05 6.449 2.367-0.967 5.167-3.25 8.4-6.85-0.066 0.033-0.149 0.033-0.25 0 0.467-0.533 2.033-1.633 4.7-3.3 2.167-1.333 3.483-2.717 3.95-4.15-1.033-0.033-2.101-0.033-3.2 0 1.767-0.7 5.116-1.533 10.05-2.5 4.267-0.8 7.517-1.85 9.75-3.149 1.233-0.7 2.167-1.734 2.8-3.101 0.7-1.467 0.934-3.017 0.7-4.649-0.366 0.066-0.816 0.266-1.35 0.6l-1.35 0.75c0.434-1.2 1.434-3.033 3-5.5 1.434-2.267 2.351-4.15 2.75-5.65 0.467-1.933 0.717-3.916 0.75-5.949 0.033-2.233-0.217-4.2-0.75-5.9-0.399-1.134-1.3-2.117-2.699-2.95-1.101-0.633-1.601-1.717-1.5-3.25 0.633 0.5 1.866 0.8 3.699 0.9 1.5 0.066 2.551 0.666 3.15 1.8 0.033-1.2-0.2-1.767-0.7-1.7-0.566 0.066-0.917-0.483-1.05-1.649-0.2-1.9-0.2-4.25 0-7.051 0.333-3.166 0.533-5.533 0.6-7.1 0.167-4.1 0.25-7.833 0.25-11.2 0-1.454-0.083-2.088-0.25-1.899 0.07-0.21 0.236-0.743 0.5-1.601 2.101 5.267 3.217 9.767 3.351 13.5 0.1 2.434 0 7.066-0.3 13.9 0.033 1.833 0.232 3.283 0.6 4.35 0.434 1.233 0.717 2.667 0.85 4.3 0.167 1.867 0.2 4.65 0.101 8.351-0.101 3.733-0.084 6.517 0.05 8.35 0.333-1.066 0.866-1.917 1.6-2.55 0.134 1.1 0.15 2.783 0.051 5.05-0.067 2.333-0.051 4.05 0.05 5.15 0.1 0.667 0.35 1.633 0.75 2.899 1.566 0.101 4.7 0.65 9.399 1.65 3.9 0.833 7.084 1.117 9.551 0.85-0.2-0.166-1.25-0.934-3.15-2.3-1.367-0.967-2.384-1.866-3.05-2.7 0.8-0.033 2.133-0.05 4-0.05 1.7 0 3.017-0.033 3.95-0.1-1.034-2.4-1.917-4.101-2.65-5.101-1.5-1.866-4.134-3.184-7.9-3.949-4.133-0.834-6.899-1.851-8.3-3.051 1.634-0.033 2.617-0.116 2.95-0.25 1.133-0.333 1.65-1.183 1.55-2.55-0.066-1.066-1.184-2.017-3.35-2.85-2.8-1.067-4.283-1.667-4.45-1.8 0.434-0.2 0.983-0.584 1.65-1.15 0.767-0.7 1.3-1.15 1.6-1.35 0.267-0.167 0.6-0.551 1-1.15 0.4-0.566 0.733-0.934 1-1.1 0.633-0.367 1.783-0.551 3.45-0.551 1.533 0 2.683-0.316 3.45-0.949-0.567-2.934-0.801-5.417-0.7-7.45 0-0.7 0.267-3.184 0.8-7.45 0.3-2.267 0.566-6.8 0.8-13.6 0.167-5.5 0.467-8.684 0.9-9.551 1.1 4.4 1.666 6.717 1.7 6.95 0.433 2.2 0.666 4.583 0.699 7.15 0 5.833-0.399 10.866-1.199 15.1-0.301 1.533-0.217 2.033 0.25 1.5 0.566-0.667 0.783-0.133 0.649 1.601 0.634-3.667 1.867-7.551 3.7-11.65 1.6-3.6 2.6-7.483 3-11.65 0.3-3.633 0.45-6.383 0.45-8.25-0.067-2.566-0.101-5.333-0.101-8.3v-10.4c-0.066-1.7-0.35-3.018-0.85-3.95-0.767-1.101-1.417-2.217-1.95-3.351-0.767-1.699-1.25-4.433-1.45-8.199-0.233-4.167-0.6-7.051-1.1-8.65-0.267 3.7-0.434 9.45-0.5 17.25-0.033 7.566-0.217 13.3-0.55 17.2-0.9-2.567-1.467-6.267-1.7-11.101-0.1-2.066-0.15-5.899-0.15-11.5 0-2.133-0.1-5.517-0.3-10.149-0.2-4.5-0.3-7.884-0.3-10.15 0-3.133 0.283-5.899 0.85-8.3 0.567-2.3 0.817-4.934 0.75-7.9-2.433-3.433-4.35-7.283-5.75-11.55-1.399-4.366-2.033-8.434-1.899-12.2 0.066-1.566 0.133-2.383 0.2-2.449 0.066-0.034 0.166 0.283 0.3 0.949 0.267 1.467 0.517 0.983 0.75-1.45 0.467-4.733 0.583-10.617 0.35-17.65-0.366-7.934-0.6-13.833-0.7-17.7 0.834 2.233 1.417 3.883 1.75 4.95 0.567 1.9 0.9 3.633 1 5.2 0-6.8-0.116-11.983-0.35-15.55-0.434-5.767-1.267-10.9-2.5-15.4-0.833-3.1-1.384-5.233-1.65-6.4-0.5-2.3-0.816-4.483-0.949-6.55l-0.1-1.55c0.066 0.467 0.101-0.05 0.101-1.55-0.301-3.967-0.467-6.767-0.5-8.4-0.067-2.7 0.533-5.316 1.8-7.85 0.066 1.566 0.116 3.883 0.149 6.95 0 1.9 0.15 4.217 0.45 6.95 0.134 1.367 0.601 1.833 1.4 1.4 0.899-0.467 1.533-0.033 1.899 1.3 1 3.533 1.684 6.3 2.051 8.3 0.566 3.2 0.699 6.05 0.399 8.55 0.333-0.767 0.5-1.783 0.5-3.05-0.033-1.434-0.05-2.517-0.05-3.25 0.066-1.967 0.267-3.317 0.6-4.05 0.334-0.833 0.567-2.2 0.7-4.1 0.134-2.2 0.434-3.85 0.9-4.95 0.6-1.467 1.033-3.067 1.3-4.8 0.4-2.434 0.5-5.134 0.3-8.1-0.1-1.233-0.417-3.867-0.95-7.9-1.133-8.6-1.949-16.317-2.449-23.15-0.52-7.14-0.803-14.69-0.851-22.65 0.098 2.558 0.715 5.725 1.851 9.5 0.666 2.3 1.699 5.6 3.1 9.9 1 3.633 1.667 8.133 2 13.5 0.167 2.8 0.267 7.383 0.3 13.75 0.033-2.667 0.467-6.25 1.3-10.75 0.9-4.8 1.4-8.383 1.5-10.75 0.233-5.167 0.351-8.1 0.351-8.8 0.1-3.367 0.1-6.317 0-8.85-0.167-4.1-0.817-7.917-1.95-11.45-1.467-4.667-2.434-8.434-2.9-11.3-0.333-2.033-0.683-3.617-1.05-4.75-0.533-1.733-1.283-3.1-2.25-4.1-1.267 1.4-1.95 3.983-2.05 7.75-0.033 2.067 0.05 4.85 0.25 8.35-0.67-7.367-1.08-16.1-1.25-26.2z"/>
		<path d="m121.2 274.25c0.533-3.634 0.85-7.95 0.95-12.95 0-1.767-0.034-6.149-0.101-13.149 0.134 2.133 0.55 5.35 1.25 9.649 0.333 3 0.5 5.767 0.5 8.3 0.066 4.7-0.5 11.467-1.7 20.301-1.233 9.1-1.866 15.866-1.899 20.3 0 3.233 0.1 5.816 0.3 7.75 0.333 3 0.55 5.583 0.65 7.75 0.1 1.767-0.051 3.083-0.45 3.95-0.5 1.066-0.783 2.35-0.851 3.85l-0.324-0.45c0.05-0.067 0.074-0.451 0.074-1.149 0-3.434-0.199-6.601-0.6-9.5-0.267-1.9-0.5-3.051-0.7-3.45-0.233-0.4-0.483-1.55-0.75-3.45-0.434-2.8-0.7-4.783-0.8-5.95-0.233-2.2-0.283-4.2-0.15-6 0.101-1.2 0.467-2.667 1.101-4.399 0.7-1.967 1.133-3.4 1.3-4.301 0.4-2.1 0.8-4.949 1.2-8.55 0.47-4.3 0.8-7.15 1-8.55z"/>
		<path d="m119.3 200.65c-0.399 3-0.7 4.9-0.899 5.7-0.167 1.134-0.434 2.783-0.801 4.95-0.267 1.867-0.383 3.55-0.35 5.05-1.733-6.366-2.566-11.316-2.5-14.85 0.434-5 0.65-10.333 0.65-16h2.399c0 1.8 0.384 3.95 1.15 6.45 0.767 2.633 1.183 4.566 1.25 5.8 0.1 1.333 0.066 1.833-0.101 1.5-0.33-0.63-0.6-0.17-0.8 1.4z"/>
		<path d="m116.85 223.35c0.7 0.967 1.267 2.45 1.7 4.45 0.267 1.134 0.55 2.767 0.851 4.9 0.1 0.566 0.449 1.967 1.05 4.2 0.1 0.399 0.033 1.833-0.2 4.3-0.134 1.366-0.6 4.083-1.4 8.149-0.699 3.567-1.066 6.334-1.1 8.301-0.066-1.834-0.384-4.851-0.95-9.051-0.533-3.833-0.8-6.816-0.8-8.949 0.033-1.733 0.1-2.601 0.2-2.601 0.133-0.033 0.233-0.899 0.3-2.6-0.066-2.434-0.117-4.317-0.15-5.65-0.07-2.4 0.1-4.22 0.5-5.45z"/>
		<path d="m82.7 331.1c0.2-1.033 0.366-1.433 0.5-1.199 0.133 0.199 0.233-0.2 0.3-1.2 0.3-4.2 0.483-8.9 0.55-14.101 0-1.566 0.083-2.517 0.25-2.85 1.333 6.767 2.05 13.55 2.15 20.35 0.033 1.867 0.033 3.017 0 3.45-0.033 0.4-0.167 1.55-0.4 3.45-0.167 1.866-0.233 2.983-0.2 3.35 0.801-1.166 1.567-2.767 2.301-4.8 0.767-2.3 1.35-4 1.75-5.1 0.1 3.133 0.149 4.75 0.149 4.85 0.033 1.934-0.05 3.55-0.25 4.851-0.667 4.232-1.783 7.683-3.35 10.35-0.334 0.6-0.95 1.45-1.851 2.55-0.899 1.067-1.533 1.917-1.899 2.55-0.367 0.634-0.617 1.551-0.75 2.75-0.167 1.4-0.367 2.384-0.601 2.95-0.267 0.733-1.017 1.851-2.25 3.351-1.1 1.333-1.75 2.533-1.949 3.6-0.301 0.033-1.25 0.017-2.851-0.05-1.2-0.034-2.167 0.033-2.9 0.2-3.333 0.866-5.833 1.516-7.5 1.949-3 0.768-5.517 1.268-7.55 1.5-1.633 0.2-3.883 0.733-6.75 1.601-3.1 0.899-5.35 1.466-6.75 1.7-2.233 0.333-4.517 0.5-6.85 0.5-0.833 0.066-1.483 0.1-1.95 0.1-0.833 0-1.45-0.117-1.85-0.35 0.866-1 2.366-2.101 4.5-3.301 2.267-1.267 3.816-2.316 4.649-3.149-0.3-0.034-0.899 0.066-1.8 0.3 2.3-2.4 5.634-4.684 10-6.85 1.3-0.634 2.2-1.167 2.7-1.601 0.7-0.6 1.383-1.467 2.05-2.6 0.567-0.934 1.117-1.65 1.65-2.15 0.366-0.333 1.066-0.833 2.1-1.5 0.267 0.833-0.616 2.467-2.65 4.9-0.2 0.233-0.85 0.866-1.95 1.899-0.867 0.768-1.483 1.45-1.851 2.051 1.8-1.634 3.4-2.667 4.8-3.101-0.4 0.833-0.617 1.3-0.65 1.4-0.2 0.566-0.283 1.066-0.25 1.5 0.8 0.167 2.316-0.017 4.55-0.55 4.267-1.067 7.55-2.417 9.85-4.051-0.6-0.3-1.567-0.416-2.9-0.35-1.467 0.133-2.45 0.2-2.95 0.2h-3.1c0.767-0.601 1.85-1.617 3.25-3.05 0.633-0.567 1.8-1.551 3.5-2.95 1.466-1.333 2.383-2.55 2.75-3.65-0.934 0.033-2.134 0.3-3.601 0.8-1.6 0.634-2.767 1.066-3.5 1.301 2.5-1.801 4.917-4.434 7.25-7.9 1.134-1.6 2.15-3.384 3.051-5.35 1-2.2 1.666-4.184 2-5.95 0 2.566-0.101 6.416-0.301 11.55 1.5-0.467 2.65-1.75 3.45-3.85 0.434-1.2 0.867-3.051 1.3-5.551 0.101-0.6 0.2-0.833 0.301-0.699 0.199 0.366 0.533 0.333 1-0.101 0.3 0.667 0.517 0.467 0.649-0.6l0.101-0.8v0.449c0.27-1.33 0.453-2.33 0.553-3z"/>
		<path d="m116.3 25.6c0-3.4 0.184-6.784 0.55-10.15 0.634-5.5 1.601-7.983 2.9-7.45 1.233 0.533 1.833 4.1 1.8 10.7 0 3.433-0.149 7.3-0.45 11.6-0.066 4.333-0.199 8.567-0.399 12.7-0.267 5.1-0.45 9.316-0.55 12.65-0.034 1.567-0.034 7.333 0 17.3 0.029 6.468-0.162 11.801-0.575 16 0.153-2.377 0.062-5.461-0.275-9.25-0.5-5.567-0.75-9.1-0.75-10.6 0-3.467-0.116-6-0.35-7.6-0.4-2.133-0.767-4.633-1.101-7.5-0.467-4-0.733-8.717-0.8-14.15v-14.25z"/>
		<path d="m105.2 25.55c0-2.433 0.2-6.017 0.6-10.75 0.4-4.467 0.566-7.967 0.5-10.5 0.733 13.667 2.316 27.383 4.75 41.15 1.434 8.233 2.017 15.533 1.75 21.9-0.167 3.733-1.017 11.017-2.55 21.85-0.733 5.1-1.167 10.583-1.3 16.45-0.101 3.5-0.15 9.083-0.15 16.75-0.063 4.969-0.087 9.277-0.075 12.925-0.152-5.222-0.628-9.714-1.425-13.475-0.833-3.9-1.316-8.583-1.45-14.05-0.433-17.333-0.649-33.367-0.649-48.1v-34.14z"/>
		<path d="m110 236.58c0.139 4.588 1.039 12.163 2.7 22.725 1.333 8.367 1.383 16.2 0.149 23.5-0.166 0.9-0.3 2.601-0.399 5.101-0.101 2.166-0.317 3.833-0.65 5 0-1.434-0.383-3.534-1.149-6.301-0.733-2.733-1.101-4.899-1.101-6.5v-14.85c0-4.4 0.083-9.316 0.25-14.75 0.12-5.06 0.19-9.7 0.2-13.92z"/>
		<path d="m87.85 181.3c-0.699-8.367 0.384-15.2 3.25-20.5l1.351-0.5v8.05c-0.067 3.033-0.217 5.683-0.45 7.95-0.066 0.633-0.05 5.184 0.05 13.65 0.033 5.866-0.717 10.1-2.25 12.7 0.066-2.833-0.167-6.417-0.7-10.75-0.768-6.57-1.184-10.1-1.251-10.6z"/>
		<path d="m89 228.65c1.233-1.467 2.083-3.233 2.55-5.301 0.667-3.633 1.2-6.399 1.601-8.3 0.666-3.399 1.449-6.033 2.35-7.899 0.4 3.399 0.566 7.416 0.5 12.05 0 1.066-0.134 5.1-0.4 12.1-0.066 1.967-0.25 3.066-0.55 3.3-0.5 0.434-0.95 1.517-1.35 3.25-0.533 2.4-1.317 6.567-2.351 12.5-1.1 5.233-2.366 9.134-3.8 11.7-0.366-6.6-0.383-15.883-0.05-27.85 0.066-2.57 0.566-4.42 1.5-5.55z"/>
	</g>
	<g clip-rule="evenodd" fill="#4B330F" fill-rule="evenodd">
		<path d="m137.1 131.4c0.634-0.033 1.051-0.867 1.25-2.5 0.267-2.2 0.367-3.817 0.301-4.85-0.167-2.1-0.25-3.717-0.25-4.85l0.899-7.8c-0.267 3.567 0.101 7.017 1.101 10.35 1.366 4.5 2.166 7.767 2.399 9.8 0.045 0.375 0.087 0.708 0.125 1-0.01 0.396-0.019 0.879-0.024 1.45-0.034 2.6-0.367 5.8-1 9.6-1.034 6.033-1.567 9.2-1.601 9.5-0.133 1.133-0.167 4.133-0.1 9 0.066 4.033-0.2 6.85-0.8 8.45l-0.65-14c-0.1-2.033-0.634-5.816-1.6-11.35-0.834-4.7-1.167-8.417-1-11.15 0.1-1.7 0.42-2.58 0.95-2.65z"/>
		<path d="m134.05 33.2c-0.5-2.634-0.167-5.6 1-8.9 1.601-3.7 2.717-6.467 3.351-8.3l2.25 1.55c1.466 6.6 2.517 13.2 3.149 19.8 0.533 6.033 0.816 9.433 0.851 10.2 0.199 4.267-0.051 7.5-0.75 9.7-0.4-3.067-1.983-7.067-4.75-12-2.87-5.133-4.57-9.15-5.1-12.05z"/>
		<path d="m134.3 182.65c0.167-5.467 0.884-9.4 2.15-11.8 0.333 3 0.666 7.466 1 13.4 0.366 5.3 0.983 9.717 1.85 13.25 0.833 3.333 1.15 5.217 0.95 5.65-0.4 0.733-0.434 2.65-0.1 5.75 0.933 8.6 1.399 16.883 1.399 24.85 0 2.233 0.101 4.9 0.3 8-0.033 2.4-0.699 4.717-2 6.95-0.033-0.601-0.05-1.584-0.05-2.95 0.033-1.3 0.017-2.283-0.05-2.95-0.134-1.3-0.517-2.95-1.15-4.95-0.833-2.467-1.333-4.1-1.5-4.899-0.566-2.667-0.8-4.617-0.699-5.851 0.232-2.3 0.3-4.316 0.199-6.05-0.133-2.399-0.833-5.033-2.1-7.899-1.9-4.167-2.967-6.601-3.2-7.3-1.066-3.333-1.3-5.117-0.7-5.35 1.434-0.533 2.434-2.283 3-5.25 0.27-1.37 0.5-5.57 0.7-12.6z"/>
		<path d="m141.1 319.35l1.351-2.05c0 1.667 0.1 4.333 0.3 8 0.133 3.3 0.033 5.917-0.3 7.851-0.167 0.966-0.634 1.25-1.4 0.85-1-0.5-1.767-0.4-2.3 0.3-1.033 1.267-2.033 2.917-3 4.95-1.367 2.9-2.267 4.717-2.7 5.45-0.6-1.8-1.017-3.15-1.25-4.05-0.366-1.534-0.45-2.967-0.25-4.301 0.267-1.566 1.05-2.267 2.351-2.1 1.533 0.233 2.616-0.217 3.25-1.35 1.8-3.27 3.12-7.78 3.95-13.55z"/>
		<path d="m142.8 266.9c-0.033 1.033 0.184 2.533 0.65 4.5 0.5 2.133 0.767 3.683 0.8 4.649 0.167 3.2 0.133 6.983-0.1 11.351-0.268 4.966-0.534 8.482-0.801 10.55-0.458 3.799-1.175 7.199-2.149 10.2 0.328-1.13 0.445-3.014 0.35-5.65-0.133-3.367-0.167-5.384-0.1-6.05 0.666-5.167 1.05-9.05 1.149-11.65 0.067-1.033-0.066-4.017-0.399-8.95-0.27-3.63-0.07-6.62 0.6-8.95z"/>
	</g>
	<g clip-rule="evenodd" fill="#5C3F1A" fill-rule="evenodd">
		<path d="m63.75 338.15c0.373-0.436 1.356-1.353 2.95-2.75-1.343 0.62-2.326 1.53-2.95 2.75zm35.45-337.65v1.25c0 0.3 0.2 2.167 0.6 5.6 0.367 3.367 0.467 5.216 0.3 5.55-0.1 0.867-0.1 3.05 0 6.55 0.134 3.466 0.134 5.633 0 6.5-0.699 5.066-1.1 8.366-1.199 9.9-0.2 2.4-0.2 5.75 0 10.05 0.066 1.567 0.267 5 0.6 10.3 0.133 1.8-0.117 3.733-0.75 5.8-0.7 2.267-1.05 4.217-1.05 5.85 0 1.367 0.017 3.9 0.05 7.6-0.167 3.267-0.767 5.566-1.8 6.9-0.101-1.2-0.033-4.133 0.2-8.8 0.199-3.733 0.033-6.633-0.5-8.7-0.367-1.534-0.95-2.367-1.75-2.5-0.733-0.133-1.268-1.034-1.601-2.7-0.366-1.933-0.35-4.333 0.05-7.2 0.467-3.3 0.65-5.717 0.551-7.25-0.134-2.1-0.184-4.384-0.15-6.85 0.1-2.867 0.15-5.167 0.15-6.9 0 0.1-1.2-5.634-3.601-17.2-0.5 4.533-0.899 12.316-1.2 23.35-0.199 8.367-0.3 16.15-0.3 23.35 0 1.667-0.066 11.033-0.2 28.1 0 4.434 0.033 10.317 0.101 17.65 0 6.3-0.184 12.183-0.55 17.65-0.233 3.966-0.884 6.8-1.95 8.5-1.233 1.966-2.101 4.75-2.601 8.35-1.267 8.933-2.183 21.35-2.75 37.25-0.1 2.533 0.084 5.033 0.551 7.5l-0.101 1.15c-0.133 4.733 0.2 8.283 1 10.65 1.033 3.033 1.7 6.55 2 10.55 0.434 5.867 0.517 11.233 0.25 16.101-0.167 3.033-0.566 8.399-1.2 16.1-1.267 21-2.017 35-2.25 42-0.1 2.434-0.033 5.217 0.2 8.35 0.134 1.834 0.367 4.601 0.7 8.301 0.133 1.566 0.2 3.883 0.2 6.949 0 3.033 0.066 5.317 0.2 6.851-0.034 3-0.084 4.717-0.15 5.149-0.1 0.533-0.566 2.084-1.4 4.65l-0.05-1.7c-0.467 0.667-1.05 1.8-1.75 3.4-0.733 1.533-1.333 2.633-1.8 3.3-0.5 0.8-1.316 1.667-2.45 2.6-1.333 1.167-2.2 1.983-2.6 2.45-0.568 0.639-1.401 1.23-2.5 1.775-1.087 1.836-2.604 3.594-4.55 5.274-3.6 3.134-5.867 5.417-6.8 6.851 0.767 0.3 1.8 0.383 3.101 0.25 2.033-0.233 3.116-0.351 3.25-0.351-0.667 1.7-2.467 3.267-5.4 4.7-3.3 1.601-5.383 2.967-6.25 4.101-0.566 0.766-1.417 2.149-2.55 4.149-1.066 1.9-1.95 3.283-2.65 4.15-0.966 1.233-2.05 2.316-3.25 3.25-0.966 0.733-2.25 1.55-3.85 2.45l-2.65 1.649c0.867-1 1.667-1.833 2.4-2.5 4.867-4.533 8.833-8.85 11.9-12.95 3.333-4.467 6.417-9.733 9.25-15.8 0.867-1.833 2.183-3.649 3.95-5.45 1.634-1.666 2.867-3.566 3.7-5.699 0.5-1.268 1.9-3.65 4.2-7.15 2-3 3.2-5.434 3.6-7.3 0.267-1.2 0.351-2.9 0.25-5.101-0.166-2.399-0.25-4.116-0.25-5.149 0-1.134-0.183-5.134-0.55-12-0.2-3.7 0.017-7.667 0.65-11.9 0.133-0.967 0.6-3.149 1.399-6.55 0.567-2.533 0.867-4.767 0.9-6.7 0.033-1.6-0.033-3.533-0.2-5.8-0.267-3.634-0.399-5.55-0.399-5.75-0.268-4.8-0.217-9.2 0.149-13.2 0.667-7.767 1.017-12.133 1.05-13.1 0.267-5.3 0.351-9.233 0.25-11.8-0.166-4.834-0.25-8.768-0.25-11.8 0-2.733-0.083-5.8-0.25-9.2l-1.1-13c-0.267-2.6-0.316-5.933-0.15-10 0.2-6 0.301-9.383 0.301-10.15 0-3.367-0.334-8.517-1-15.45-0.534-5.433-0.601-10.566-0.2-15.4 0.233-3.1 0.767-6.733 1.6-10.9 0.767-3.8 1.233-7.467 1.4-11 0.333-6.434 0.533-15.2 0.6-26.3 0.033-3.767 0.783-8.184 2.25-13.25 1.233-4.4 1.667-8.767 1.3-13.1-0.267-2.767-0.267-5.483 0-8.15 0.5-5.534 0.75-8.317 0.75-8.35 0.599-11.433 0.616-24.833 0.049-40.2 0.066 0.033 0.25 0.083 0.55 0.15v-0.55h14z"/>
		<path d="m99.15 217.4c0.833 2.899 1.199 5.199 1.1 6.899-0.066 1.101-0.217 3.483-0.45 7.15 0 4.133-0.066 7.217-0.2 9.25-0.199 3.3-0.616 6.333-1.25 9.1-1.233 5.533-1.85 10.233-1.85 14.101 0 6.6-0.017 10.316-0.05 11.149-0.434 10.167-1.717 19.3-3.851 27.4-0.767 2.899-1.55 5.166-2.35 6.8-1.333 2.667-2.333 4.85-3 6.55-0.8-3-1.283-4.917-1.45-5.75-0.2-1.1 0-3.033 0.601-5.8 0.5-1.9 0.866-3.283 1.1-4.15 0.4-1.566 0.6-3.017 0.6-4.35-0.033-4.2-0.066-7.367-0.1-9.5-0.033-3.8 0-6.967 0.1-9.5 0.101-2.1 0.5-4.867 1.2-8.3 0.8-4.067 1.283-6.8 1.45-8.2 0.167-1.3 0.316-3.9 0.45-7.8 0.133-3.233 0.383-5.834 0.75-7.8 0.3-1.534 0.533-3.584 0.7-6.15 0.199-3.134 0.366-5.184 0.5-6.15 0.133-1.133 0.55-1.149 1.25-0.05 0.833 1.267 1.433 1.316 1.8 0.15 0.899-2.634 1.5-5.3 1.8-8 0.133-1.567 0.233-2.783 0.3-3.65 0.167-1.6 0.45-2.73 0.85-3.4z"/>
		<path d="m90.5 315.25c-0.467 2.434-1.017 4.883-1.65 7.35-0.666 2.667-1.233 5.167-1.699 7.5 0.066-1.733 0.1-2.833 0.1-3.3-0.033-1.434-0.05-2.533-0.05-3.3 0-1.833 0.483-3.8 1.45-5.9 1.199-2.566 1.916-4.383 2.149-5.449l-0.3 3.1z"/>
		<path d="m92.35 318.75c1.367 0.366 2.017 3.816 1.95 10.35-0.033 3.434-0.2 7.717-0.5 12.851 0 2.533-0.399 4.8-1.2 6.8-0.767 1.8-1.983 3.7-3.649 5.7-3.2 3.8-5.45 6.2-6.75 7.2 0.3-1 0.933-2.117 1.899-3.351 1.367-1.767 2.134-2.8 2.301-3.1 1.966-3.233 3.149-6.233 3.55-9l0.95-14.65c0.566-8.67 1.049-12.93 1.449-12.8z"/>
		<path d="m91.2 354.85c0.366-0.399 1.45-1.416 3.25-3.05 1.566-1.6 2.333-2.783 2.3-3.55 0.2 3.2-0.384 5.883-1.75 8.05-1.167 1.833-3.1 3.601-5.8 5.3-3.367 2.101-5.733 3.7-7.101 4.801-2.5 1.967-4.483 4.116-5.949 6.449 0.333 0 0.883 0.018 1.649 0.051 0.634 0.033 1.017 0 1.15-0.101-0.601 0.467-1.834 1.733-3.7 3.8-1.467 1.634-2.783 2.7-3.95 3.2l0.5-1.149c-0.533 0.399-2.316 1.433-5.35 3.1-2.233 1.233-3.833 2.533-4.8 3.9 0.567-0.9 1.183-2.101 1.85-3.601 0.633-1.267 1.467-2.333 2.5-3.2 0.767-0.666 1.867-1.416 3.3-2.25 1.867-1.066 3.017-1.75 3.45-2.05 1.133-0.899 2.05-1.45 2.75-1.649l0.6-0.051c0.4-1.833 1.267-3.399 2.601-4.699 0.8-0.734 2.133-1.867 4-3.4 0.8-0.767 1.883-1.95 3.25-3.55 0.666-0.7 1.55-1.75 2.649-3.15 1.201-1.53 2.068-2.6 2.601-3.2z"/>
		<path d="m80.3 370.85c0.9-1.434 2.816-2.934 5.75-4.5 3-1.6 5.233-2.25 6.7-1.949-0.533 1.666-2.417 3.217-5.65 4.649-1.6 0.7-2.717 1.15-3.35 1.351-1.4 0.47-2.55 0.62-3.45 0.45z"/>
		<path d="m99.85 312.35c-0.066 2.134-0.166 3.567-0.3 4.301-0.1 0.767-0.2 2.199-0.3 4.3-0.1 2.399-0.5 4.95-1.2 7.649-0.594 2.314-0.911 4.715-0.95 7.2-0.013-0.815-0.129-1.815-0.35-3-0.333-1.7-0.517-2.85-0.55-3.45v-0.699c0-6.301 0.267-11.4 0.8-15.301 0.1-0.767 0.184-1.183 0.25-1.25 0.033-0.033 0.15 0.084 0.35 0.351 0.5 0.8 1.25 0.77 2.25-0.1z"/>
		<path d="m101.75 335c0.033 1.4-0.083 2.616-0.35 3.65-0.334 1.399-1.084 2.75-2.25 4.05-1.634 1.866-2.584 3.017-2.851 3.45 1.367-3.134 2.316-5.467 2.851-7 0.066-0.2 0.25-1.134 0.55-2.801 0.233-1.199 0.566-2.05 1-2.55l0.6-2.399c0.27 1.03 0.42 2.23 0.45 3.6z"/>
		<path d="m120.8 232.05l1.5-7.6c0 3.666 0.101 6.1 0.3 7.3 0.167 0.833 0.601 2.2 1.301 4.1 0.666 1.7 1.05 3.117 1.149 4.25 0.267 2.834 0.083 4.834-0.55 6-0.2 0.367-1.583 1.917-4.15 4.65-0.3-1.667-0.366-3.9-0.199-6.7 0.267-4.533 0.399-6.816 0.399-6.85 0-1.134-0.283-2.101-0.85-2.9-0.27-0.33 0.1-1.08 1.1-2.25z"/>
		<path d="m124.75 273.3l-0.5-5.399c0.434 2.6 0.684 4.083 0.75 4.449 0.233 1.667 0.35 3.15 0.35 4.45 0 0.7 0.017 2.134 0.051 4.3 0.033 1.801 0.017 3.217-0.051 4.25-0.267 4.634-0.75 8.417-1.449 11.351-1.034 4.2-2.65 7.483-4.851 9.85-0.133-3.399 0.384-6.717 1.55-9.95 2.77-7.87 4.15-15.63 4.15-23.3z"/>
		<path d="m121.1 325.6c-0.199-2.8-0.333-5.066-0.399-6.8-0.167-3.2 0.017-5.517 0.55-6.95 0.5 4.801 0.75 8.7 0.75 11.7 0 1.667 0.083 3.467 0.25 5.4-0.027 1.144-0.41 2.419-1.15 3.825v1.975c-0.033-0.267-0.05-0.5-0.05-0.7-0.063-0.458-0.13-0.725-0.2-0.8 0.084-0.156 0.168-0.314 0.25-0.475v-7.18z"/>
		<path d="m120.8 307.7l0.9 3.1c-0.2 0.3-0.351 0.65-0.45 1.05l-0.45-4.15z"/>
		<path d="m130 303.95c-0.667-1.934-1.117-3.65-1.35-5.15-0.2-1.366-0.301-3.1-0.301-5.2l1.65 10.35z"/>
		<path d="m128.9 322.05c0.699-4.399 1.083-7.283 1.149-8.649 0.066-0.834 0.101-3.768 0.101-8.801l-0.15-0.65 0.05 0.05c0.601 1.667 1.117 2.2 1.55 1.6 0.233-0.3 0.351 0.267 0.351 1.7-0.07 6.6-1.08 11.52-3.05 14.75z"/>
		<path d="m129.1 359.25c-1.515-0.659-3.99-1.542-7.425-2.65 1.296 0.37 3.688 0.604 7.175 0.7 3.233 0.366 5.367 1.533 6.4 3.5-0.767 0.467-1.8 0.434-3.1-0.1-1.44-0.7-2.46-1.18-3.06-1.45z"/>
		<path d="m115.45 353.95c1 0.566 2.783 2.267 5.35 5.1 2 2.167 4.117 3.384 6.351 3.65l3.899 3.8c-0.8-0.467-1.6-0.717-2.399-0.75-0.367-0.867-1.5-1.55-3.4-2.05-2.467-0.634-3.867-1.05-4.2-1.25-4.2-2.43-6.07-5.27-5.6-8.5z"/>
		<path d="m147.85 369.75c-2.633-0.066-4.55-0.383-5.75-0.95 0.434-0.767 2.267-0.967 5.5-0.6 3.233 0.366 5.101 1.05 5.601 2.05v0.35c-1-0.53-2.78-0.82-5.35-0.85z"/>
		<path d="m143.75 373.7c-2.434-0.934-4.167-2.067-5.2-3.4 4.134 1.601 6.5 2.483 7.101 2.65 0.933 0.3 2.433 0.683 4.5 1.149 1.767 0.533 3.1 1.316 4 2.351l1.35 1.3c-0.733-0.4-1.733-0.783-3-1.15-1.667-0.5-2.6-0.783-2.8-0.85-2.57-0.8-4.55-1.48-5.95-2.05z"/>
		<path d="m155.5 377.75c1.033 0.533 1.783 1.25 2.25 2.15l-2.25-2.15z"/>
		<path d="m136.55 374.7c0.833-0.101 1.967 0.2 3.4 0.899 1.533 0.768 2.666 1.167 3.399 1.2l1.2 1c-0.467-0.233-1.066-0.366-1.8-0.399-0.833-0.067-1.417-0.15-1.75-0.25-0.634-0.2-1.384-0.567-2.25-1.101-0.97-0.6-1.7-1.05-2.2-1.35z"/>
		<path d="m91.95 80.95c0.133-1.9 0.416-3.567 0.85-5 0.066 0.4 0.134 1.05 0.2 1.95 0.3 1.4 0.533 3.9 0.7 7.5 0.133 3.2 0.467 5.683 1 7.45 0.833 2.6 1.383 4.667 1.649 6.2 0.4 2.033 0.601 4.267 0.601 6.7 0 0.767 0.1 2.75 0.3 5.95 0.133 1.933 0.05 3.917-0.25 5.95-0.233 1.733-0.884 2.95-1.95 3.65-0.967 0.7-1.533 1.967-1.7 3.8-0.366 4.4-0.649 9.4-0.85 15-0.3 4.533-1.184 9.417-2.65 14.65-1.066 3.7-1.75 6.217-2.05 7.55-0.7 2.934-1.1 5.55-1.2 7.85-0.033 0.633-0.017 3.967 0.051 10 0.033 4.033-0.25 7.3-0.851 9.8-0.767-12.567-0.783-22.467-0.05-29.7 0.133-1.434 0.483-3.25 1.05-5.45 0.601-2.467 0.983-4.233 1.15-5.3 0.333-2.2 0.55-5.05 0.649-8.55 0.167-5.634 0.25-8.483 0.25-8.55 0.101-1.567 0.217-2.533 0.351-2.9 0.1-0.2 0.133-1.2 0.1-3 0-2.8 0.601-5.417 1.8-7.85 1.233-2.4 1.834-4.967 1.801-7.7 0-3.434-0.233-7.717-0.7-12.85-0.434-5.067-0.65-9.4-0.65-13l0.601 1.6c-0.269-1.833-0.336-3.75-0.202-5.75z"/>
		<path d="m96.9 131.55l3.449-11.35c0 5.733 0.033 11.8 0.101 18.2-0.167 4.6-1 10.517-2.5 17.75-1.167 5.733-1.75 10.7-1.75 14.9v13.2c0 2.133 0.033 5.3 0.1 9.5 0.033 3.767-0.017 6.917-0.149 9.45-0.101 1.733-0.417 2.683-0.95 2.85s-0.851 1.134-0.95 2.9c-0.233-9.267-0.384-15.8-0.45-19.6-0.066-6.333 0.233-12.8 0.9-19.4 0.399-3.9 0.566-8.233 0.5-13-0.033-1.667-0.2-6.017-0.5-13.05-0.067-1.433-0.167-1.983-0.3-1.65-0.101 0.233-0.15-0.333-0.15-1.7v-5.1c0.066-1.434 0.483-2.1 1.25-2 0.799 0.1 1.266-0.53 1.399-1.9z"/>
		<path d="m88.4 193.8v13.7c0 2.566-0.101 5.616-0.301 9.15-0.133 2-0.333 4.982-0.6 8.949-0.233 3.934-0.384 6.434-0.45 7.5-0.3 3.033-0.717 5.45-1.25 7.25-0.233-2.699-0.316-6.1-0.25-10.199 0.101-4.601 0.15-8.034 0.15-10.301 0-1.767-0.067-4.433-0.2-8-0.119-2.542-0.194-4.634-0.225-6.274-0.477 0.831-0.635 0.306-0.476-1.575 0.3-3.633 0.45-3.7 0.45-0.2 0 0.517 8e-3 1.108 0.025 1.775 0.119-0.22 0.261-0.528 0.425-0.925l2.702-10.86z"/>
		<path d="m109.6 148.7c-0.066 3.7-0.1 6.167-0.1 7.4 0.066 2.767 0.283 5.2 0.65 7.3 0.199 1.233 0.517 3.017 0.949 5.35 0.334 2.033 0.434 3.833 0.301 5.4-0.601 6.667-0.934 10.683-1 12.05-0.134 2.833-0.117 6.883 0.05 12.15 0.033 0.667 0.316 4.383 0.85 11.15 0.267 3.434 0.184 7.167-0.25 11.2-0.3 3-1.399 5.166-3.3 6.5-2.1 1.467-3.45 3.433-4.05 5.899-0.134-2.033 0.133-3.116 0.8-3.25 0.866-0.233 1.467-1.199 1.8-2.899 0.601-3.033 0.833-6.983 0.7-11.851-0.333-5.566-0.566-9.55-0.7-11.95-0.133-2.767-0.316-3.633-0.55-2.6-0.167 0.733-0.25-0.15-0.25-2.65 0-1.133-0.083-2.9-0.25-5.3-0.167-2.333-0.25-4.117-0.25-5.35 0-1.733 0.283-3.483 0.85-5.25 0.7-2 1.217-3.617 1.551-4.85 0.699-2.667 0.899-7.383 0.6-14.15-0.27-6.2 0.27-10.97 1.6-14.3z"/>
	</g>
	<g clip-rule="evenodd" fill="#34240C" fill-rule="evenodd">
		<path d="m152.05 318.4c0.134 1.566 0.117 3.333-0.05 5.3-0.33-2-0.32-3.77 0.05-5.3z"/>
		<path d="m157.72 304.45c-0.076-0.088-0.151-0.171-0.225-0.25 0-1.033 0.066-1 0.2 0.1 0.01 0.05 0.02 0.1 0.02 0.15zm7.88-303.95l0.15-0.3 0.1 0.05c0.033 3.167 0.334 7.133 0.9 11.9 0.767 6.1 1.217 9.983 1.35 11.65 0.233 3.067 0.317 6.983 0.25 11.75-0.066 2.667-0.149 6.6-0.25 11.8 0 0.533 0.067 4.917 0.2 13.15 0.033 3.933-0.066 8.3-0.3 13.1-0.533 10.566-0.8 23.917-0.8 40.05 0 4.267 0.233 7.667 0.7 10.2 0.433 2.533 0.649 5.917 0.649 10.15 0 7.4-0.033 11.9-0.1 13.5-0.233 4.833-0.834 9.133-1.8 12.9-0.067 2.1-0.184 4.717-0.351 7.85 0 2.5-0.1 6.45-0.3 11.85-0.1 4.8 0.15 8.683 0.75 11.65 0.033 0.1 0.6 2.283 1.7 6.55 0.666 2.5 1 4.783 1 6.85 0 4.466-0.233 8.05-0.7 10.75-0.434 2.633-0.65 6.183-0.65 10.649 0 11.7-0.133 25.717-0.399 42.05 0.133 1.267 0.3 2.384 0.5 3.351 0.233 1.3 0.666 2.983 1.3 5.05 0.767 2.467 1.25 4.133 1.45 5 0.767 3 1.283 6.7 1.55 11.1 0.133 2.367 0.217 6.101 0.25 11.2 0.033 3.267 0.017 6.25-0.05 8.95 0.066 1.767 0.566 4.7 1.5 8.8 0.3 1.233 0.933 3.25 1.899 6.05 0.867 2.467 1.434 4.517 1.7 6.15 0.267 1.6 0.95 2.583 2.05 2.95 1.167 0.366 1.967 1.333 2.4 2.899 0.233 0.733 0.5 1.717 0.8 2.95 0.3 1.066 0.667 2 1.101 2.8 0.366 0.634 0.982 1.483 1.85 2.551 0.866 1.066 1.467 1.883 1.8 2.449 1.601 2.768 2.583 4.434 2.95 5 1.133 1.768 2.366 3.268 3.7 4.5 0.2 0.2 0.783 0.834 1.75 1.9 0.733 0.833 1.35 1.416 1.85 1.75 0.333 0.233 1.017 0.566 2.05 1 0.834 0.4 1.5 0.8 2 1.2 0.367 0.333 1.301 1.417 2.801 3.25 1.166 1.433 2.166 2.283 3 2.55l-3.101-0.15c1.267 0.634 2.4 1.033 3.4 1.2 0.566 0.101 1.35 0.134 2.35 0.101 1.101-0.033 1.884-0.033 2.351 0-0.967 1.133-2.801 1.717-5.5 1.75-3-0.167-5-0.25-6-0.25-3.167 0-5.634-0.2-7.4-0.601-0.8-0.167-2.15-0.6-4.05-1.3-1.733-0.667-3.084-1.066-4.05-1.2-1.467-0.2-3.367-0.267-5.7-0.2-2.601 0.134-4.517 0.2-5.75 0.2-1.834 0-3.9-0.517-6.2-1.55-0.934-0.4-1.617-0.983-2.05-1.75-0.834-1.533-1.317-2.383-1.45-2.55-0.434-0.601-1.117-1.267-2.05-2-1.033-0.8-1.75-1.417-2.15-1.851-1.5-1.699-2.75-4.083-3.75-7.149-0.833-2.5-1.434-5.233-1.8-8.2 0.6 2.167 2.267 4.184 5 6.05 0.167-1.634-0.2-3.483-1.1-5.55-1.167-2.333-2.018-4.017-2.551-5.05-0.633-1.2-1.6-2.233-2.899-3.101-0.934-0.6-1.533-1.8-1.8-3.6-0.268-1.634-0.317-3.55-0.15-5.75 0.233-2.566 0.4-4.5 0.5-5.8 0.3 1.833 1.1 4.616 2.4 8.35 0.666 1.967 1.583 3.417 2.75 4.351 1.533 1.267 2.732 2.583 3.6 3.949-0.1-2.066-0.667-4.25-1.7-6.55-0.866-1.967-1.217-4.167-1.05-6.6 0.833 2.399 1.6 4.883 2.3 7.45 0.634 2 1.7 4.383 3.2 7.149 0.4 0.7 0.934 1.617 1.6 2.75 0.5 0.967 0.817 1.983 0.95 3.05 0.2 1.067 0.434 2.783 0.7 5.15 0.167 1.2 0.316 1.967 0.45 2.3 0.233 0.667 0.7 1.2 1.399 1.601 0.334 0.199 0.95 0.333 1.851 0.399 0.8 0.067 1.383 0.25 1.75 0.55-1.7 1.301-2.767 2.2-3.2 2.7-0.667 0.767-0.267 1.783 1.2 3.05 0.967 0.867 1.967 1.467 3 1.801 0.366 0.133 1.467 0.366 3.3 0.699 0.566 0.101 1.566 0.233 3 0.4 1.333 0.166 2.316 0.383 2.95 0.65 0.2 0.1 0.399 0.283 0.6 0.55 0.167 0.267 0.3 0.433 0.4 0.5 1.533 1 3.2 1.733 5 2.2 1.233 0.333 3 0.616 5.3 0.85-1.5-1.1-2.634-1.934-3.4-2.5 0.733-0.1 1.667-0.017 2.801 0.25 1.6 0.4 2.5 0.617 2.699 0.65-1.166-1.167-2.949-2.884-5.35-5.15-1.833-1.7-3.217-2.983-4.15-3.85-1.633-1.567-2.916-2.967-3.85-4.2l-3.2-1.45c-1.967-0.9-3.417-1.7-4.35-2.4-1.7-1.3-2.567-2.717-2.601-4.25 0.667 0.101 1.567 0.384 2.7 0.851 1.3 0.533 2.2 0.866 2.7 1 0.967 0.233 1.616 0.399 1.95 0.5-0.367-1.4-0.733-3.184-1.101-5.351-1.033 0.067-2.399-0.816-4.1-2.649-1.7-1.834-2.483-3.25-2.35-4.25 0.6 0.133 1.399 0.683 2.399 1.649 0.934 0.934 1.684 1.434 2.25 1.5 0.3-1.433-0.217-3.517-1.55-6.25-1.667-2.866-2.733-4.75-3.2-5.649-0.399-0.733-1.017-0.851-1.85-0.351-1.233 0.733-2.15 1.084-2.75 1.051-0.058 1.931-0.074 3.006-0.05 3.225-0.415-1.361-1.432-2.687-3.051-3.975-1.133-0.9-1.449-2.4-0.949-4.5 0.166-0.667 0.517-1.65 1.05-2.95 0.533-1.233 0.883-2.25 1.05-3.05l0.6-3.4 0.025-1.35c-0.364-0.253-0.673-0.553-0.925-0.9-0.233-0.434-0.434-0.75-0.601-0.95-1.355-1.734-3.548-4.243-6.574-7.524 9e-3 -0.111 0.017-0.236 0.024-0.375 0.5-7.733 0.667-16.301 0.5-25.7-0.133-9.767-0.783-19.467-1.95-29.101-0.267-2.1-0.8-4.217-1.6-6.35-0.5-1.4-0.684-3.55-0.55-6.45-0.601 0.7-1 1.117-1.2 1.25 0-1.467 0.316-3.967 0.95-7.5l-0.75-1.8 0.1-11.4-0.649-5.1c-0.067-0.867-0.134-2.367-0.2-4.5-0.033-1.934-0.117-3.45-0.25-4.55 0.133 6.566 0.1 11.233-0.101 14-0.1 1.366-0.433 2.933-1 4.7-0.3 1-0.783 2.5-1.449 4.5-0.434-1.268-0.684-3.034-0.75-5.301 0.033-2.566 0.05-4.383 0.05-5.449v-7.7c0-2.7 0.2-4.967 0.6-6.8s0.601-4.117 0.601-6.85c0-5.667 0.583-10.566 1.75-14.7l1.3-3.85-0.05-21.75-0.301 0.8c-0.3-1.133-0.55-2.566-0.75-4.3-0.133-2-0.283-3.517-0.449-4.55-0.934-3.833-1.534-6.733-1.801-8.7-0.1-1.434-0.267-2.733-0.5-3.9-0.133-0.3-0.383 0.85-0.75 3.45-0.333 2.567-0.533 3.733-0.6 3.5-0.233-0.9-0.316-2.35-0.25-4.35 0.066-2.5 0.083-3.95 0.05-4.35-0.3-4.534-0.55-7.5-0.75-8.9-0.3-2.067-0.967-4.967-2-8.7-0.233-0.7-0.383-1.2-0.45-1.5-0.166-0.5-0.233-1-0.199-1.5 1.666 2.066 2.866 3.617 3.6 4.65 1.267 1.8 2.267 3.5 3 5.1-0.3-6.767-0.4-15.717-0.3-26.85 0.1-11.833 0.033-20.8-0.2-26.9-0.667 1.133-1.15 2.85-1.45 5.15-0.133 1.2-0.267 3.033-0.399 5.5-0.101 1.767-0.15 5.3-0.15 10.6 0 4.967-0.134 9.033-0.4 12.2-0.366 4.633-1.05 8.583-2.05 11.85-0.3-3.4-0.434-7.517-0.399-12.35 0.1-5.467 0.149-9.6 0.149-12.4-0.066-4.933-0.116-8.633-0.149-11.1-0.034-4.467 0.017-8.184 0.149-11.15 0.101-1.6 0.733-3.583 1.9-5.95 1.267-2.567 2-4.467 2.2-5.7 0.133-0.733 0.166 0 0.1 2.2l-0.025 1.075c0.092-2.079 0.25-4.987 0.476-8.725-0.134-2.467-0.617-7.083-1.45-13.85-0.7-5.8-1.05-10.417-1.05-13.85v-20h17.4z"/>
		<path d="m129.65 379.85c0.899-0.1 1.85-0.149 2.85-0.149-2.434-1.167-4.083-2.65-4.95-4.45 1.467 1.6 3.851 2.633 7.15 3.1 4.8 0.7 7.383 1.101 7.75 1.2 1.833 0.634 4.267 1.8 7.3 3.5 3.9 2.267 9.066 3.333 15.5 3.2-0.867-0.066-1.884-0.434-3.05-1.1-1.3-0.768-2.267-1.317-2.9-1.65-2.667-1.367-4.767-2.316-6.3-2.85-0.833-0.234-1.483-0.417-1.95-0.551-0.833-0.232-1.467-0.517-1.899-0.85 3.8 0.267 8.399 1.583 13.8 3.95 1.666 0.8 2.933 1.2 3.8 1.2-1.066-1.2-2.783-2.7-5.15-4.5-1.566-1.067-2.767-1.917-3.6-2.551-1.566-1.166-2.583-2.25-3.05-3.25 5.7 4.301 10.3 7.233 13.8 8.801 0.6 0.266 1.483 0.583 2.65 0.949 1.133 0.367 1.966 0.667 2.5 0.9 1.533 0.7 2.767 1.517 3.699 2.45 0.967 0.966 1.851 2.25 2.65 3.85-0.667-0.2-1.434-0.55-2.3-1.05-0.101 0.6 0.983 1.733 3.25 3.4 2.133 1.566 2.95 2.933 2.45 4.1-4.667-3.367-8.467-5.383-11.4-6.05-3.733-0.8-6.066-1.267-7-1.4l-1.15-0.149c-2.166 0.066-3.683-0.084-4.55-0.45l-1.8-0.851c-1.066-0.267-2.05-0.566-2.95-0.899-0.767-0.3-2.467-1.317-5.1-3.05-2.134-1.434-3.884-2.184-5.25-2.25-3.334 0.199-5.95 0.283-7.851 0.25-3.43-0.1-5.75-1.03-6.95-2.8z"/>
		<path d="m166 375.9c-1.2-0.467-2.667-1.567-4.4-3.301-0.6-0.566-1.35-1.017-2.25-1.35-3.199-2.4-5.866-5.05-8-7.95-2.8-3.8-4.033-7.35-3.699-10.649 1 1.699 2.933 3.949 5.8 6.75 2.767 2.699 4.649 4.982 5.649 6.85 1.434 2.666 2.65 4.7 3.65 6.1 0.3 0.434 0.866 1.033 1.7 1.801 0.77 0.73 1.28 1.32 1.55 1.75z"/>
		<path d="m151.4 247.25c0.232 2 0.35 4.467 0.35 7.4 0 1.633-0.033 4.1-0.1 7.399 0 3.367 0.1 5.717 0.3 7.05 0.1 0.7 0.383 2.017 0.85 3.95 0.367 1.634 0.583 2.967 0.65 4 0.166 2.134 0.25 4.7 0.25 7.7 0 0.8 0.017 2.017 0.05 3.65 0 1.433-0.033 2.633-0.1 3.6-0.034 0.2-0.084 1.267-0.15 3.2-0.066 1.399-0.2 2.399-0.4 3-0.267-0.601-0.416-1.733-0.449-3.4-0.034-1.566-0.217-2.667-0.551-3.3-0.233-0.467-0.783-0.983-1.649-1.55-0.7-0.5-1.134-1.15-1.3-1.95-0.067-0.434-0.117-1.05-0.15-1.85 0-0.967-0.017-1.584-0.05-1.851-0.101-1.833-0.184-5.1-0.25-9.8-0.033-4.167-0.167-7.45-0.4-9.85-0.866-8.867-0.5-17.518 1.101-25.95 0.066-0.233 0.183-1.45 0.35-3.65 0.1-1.633 0.35-2.75 0.75-3.35 0.1 1.3 0.233 3.899 0.4 7.8 0.1 3.23 0.27 5.82 0.5 7.75z"/>
		<path d="m149.85 299.6c0.02 2.671 0.169 4.538 0.45 5.601 0.033 0.166 0.45 1.433 1.25 3.8 0.193 0.608 0.352 1.191 0.476 1.75 8e-3 -0.193 0.016-0.359 0.024-0.5 0.101-1.066 0.2-0.617 0.3 1.35 0.334 6.267 0.334 6.717 0 1.351-0.039-0.684-0.147-1.417-0.324-2.2-0.018 0.533-0.025 1.266-0.025 2.2-0.033 1.166-0.134 2.017-0.3 2.55-2.434-2.733-3.483-5.283-3.15-7.65 0.81-2.9 1.24-5.65 1.3-8.25z"/>
		<path d="m145.8 151.5c0.134 0.8 0.434 2 0.9 3.6 0.467 1.566 0.767 2.767 0.899 3.6 0.301 2.066 0.45 5.616 0.45 10.65 0.066 4.5-0.149 8.35-0.649 11.55-0.367 2.4-0.567 5.283-0.601 8.65 0 1.934 0.05 4.833 0.15 8.7-0.233-1.434-0.9-4.067-2-7.9-0.967-3.3-1.517-5.934-1.65-7.9-0.066-1.2-0.1-2.884-0.1-5.05-0.033-2.367-0.067-4.05-0.101-5.05-0.233-5.133-0.316-8.517-0.25-10.15 0.2-3.867 0.967-7.083 2.301-9.65l0.65-1.05z"/>
		<path d="m110.85 342.1c0.167-2.399 0.233-4.433 0.2-6.1-0.033-1.167-0.233-2.15-0.6-2.95-0.2-0.366-0.067-1.333 0.399-2.899 0.033 1.399 0.334 2.35 0.9 2.85 0.667 0.6 1.083 1.566 1.25 2.9 0.267 1.699 0.366 4.333 0.3 7.899 0 1.167-0.167 2.5-0.5 4-0.2 0.833-0.517 2.134-0.95 3.9-0.166 0.833-0.517 2.383-1.05 4.649-0.333 2.033-0.316 3.566 0.05 4.601 1.467-2.034 2.5-4.167 3.101-6.4-0.033 1.167-0.117 3-0.25 5.5-0.067 2.2 0 4.017 0.2 5.45 0.066 0.533 0.449 1.65 1.149 3.35 0.533 1.367 0.75 2.533 0.65 3.5-4.467-0.033-8.55 1.351-12.25 4.15-0.101 0.066-2.4 2.316-6.9 6.75-2.7 2.666-5.417 4.184-8.149 4.55-1.334 0.2-3.2 0.601-5.601 1.2-2.467 0.633-4.35 1.05-5.649 1.25-2.7 0.133-4.734 0.35-6.101 0.65-1.133 0.232-2.517 0.783-4.15 1.649-2.2 1.167-3.533 1.851-4 2.05-1.133 0.467-2.483 0.867-4.05 1.2-1.8 0.366-3.149 0.634-4.05 0.8 0.5-0.666 1.15-1.283 1.95-1.85 0.5-0.367 1.233-0.85 2.2-1.45 1.3-0.833 2.366-1.767 3.2-2.8 0.5-0.633 1.317-1.867 2.45-3.7-0.267 0.533-0.45 1.283-0.55 2.25 0.8-0.5 1.817-1.233 3.05-2.2 1.101-0.666 2.267-0.934 3.5-0.8-0.566 0.267-1.183 0.717-1.85 1.351 1.934-0.634 4.55-1.9 7.85-3.801v0.65c0.567-0.2 1.917-0.733 4.051-1.6 1.566-0.667 2.949-1.117 4.149-1.351 1.934-0.366 3.65-1.399 5.15-3.1 0.866-1 2.149-2.717 3.85-5.15-0.366 0.833-0.55 1.717-0.55 2.65 4.633-3.067 8.133-5.784 10.5-8.15 4.3-4.2 6.366-8.167 6.2-11.899-0.834 0.166-1.417 0.399-1.75 0.699 0.133-0.434 0.45-0.982 0.95-1.649 0.466-0.7 0.767-1.267 0.899-1.7 0.134-0.5 0.2-1.3 0.2-2.4 0.033-1.467 0.05-2.267 0.05-2.399 0.27-2.7 0.45-4.73 0.55-6.1z"/>
		<path d="m108.65 339.05l-0.45 2.601c0.066-0.867-0.184-1.967-0.75-3.301-0.834-2-1.267-3.05-1.3-3.149-0.2-0.7-0.483-0.917-0.851-0.65-0.133 0.101-0.017-0.05 0.351-0.45 1.267 1.067 1.982 1.801 2.149 2.2 0.17 0.33 0.45 1.25 0.85 2.75z"/>
		<path d="m84.8 328.85c-0.1-0.6 0.117-1.35 0.65-2.25 1.2 3.301 1.816 6.2 1.85 8.7 0.033 0.867-0.2 3.884-0.7 9.05 0.733-0.6 1.417-1.649 2.051-3.149 0.633-1.767 1.083-3.017 1.35-3.75 0.2 2.467-0.434 5.666-1.9 9.6-0.333 1-0.916 2.117-1.75 3.351-1.1 1.633-1.767 2.683-2 3.149-1.133 2.2-1.983 4.567-2.55 7.101-0.233 1.033-0.767 2.166-1.6 3.399-1 1.366-1.733 2.434-2.2 3.2-1.5 2.467-4 3.8-7.5 4-1.967 0-3.434 0.017-4.4 0.05-1.767 0.067-3.216 0.317-4.35 0.75-0.467 0.2-1.066 0.55-1.8 1.05-0.833 0.601-1.417 0.983-1.75 1.15-0.567 0.3-1.317 0.566-2.25 0.8-1 0.233-1.75 0.417-2.25 0.55-1.733 0.533-3.034 0.917-3.9 1.15-1.5 0.4-2.816 0.65-3.95 0.75-4.666 0.3-8.85 0.283-12.55-0.05 0.467-0.367 1.267-0.601 2.4-0.7 1.2-0.133 2-0.316 2.399-0.55-0.433-0.067-0.8-0.083-1.1-0.05 2-0.268 4.583-1.717 7.75-4.351 0.7-0.566 1.934-1.75 3.7-3.55 1.7-1.467 3.1-2.167 4.2-2.1-0.5 1.266-1.483 2.399-2.95 3.399 1.1 0 2.767-0.167 5-0.5 0.033 0 1.183-0.017 3.45-0.05 1.5-0.033 2.633-0.217 3.4-0.55 0.533-0.2 1.4-0.65 2.6-1.351 1.067-0.633 1.967-1.05 2.7-1.25 4-1.066 6.5-2.434 7.5-4.1-0.733 0.133-1.283 0.3-1.649 0.5 0.399-0.7 1.05-1.767 1.95-3.2 0.633-1.333 0.866-2.566 0.699-3.7l-0.1 0.101c0.333-0.4 0.934-1.05 1.8-1.95 0.767-0.767 1.25-1.316 1.45-1.65 2.167-3.066 3.55-5.25 4.15-6.55 0.433-0.899 0.616-1.684 0.55-2.35-0.167-0.9-0.3-1.7-0.4-2.4-0.233-2.066 0.083-4.467 0.95-7.2 0.906 1.031 1.39 2.498 1.45 4.4v-6.15c0-0.43-0.134-1.35-0.4-2.75z"/>
	</g>
	<path d="m116.2 89.85c0 5.867-0.117 11.65-0.351 17.35-0.133 2.7-0.449 8.45-0.949 17.25-0.101 2-0.317 4.433-0.65 7.3-0.267 2.066-0.4 4.483-0.4 7.25 0 0.7 0.167 2.783 0.5 6.25 0.167 1.6-0.083 3.483-0.75 5.65-0.166-1.867-0.267-4.45-0.3-7.75-0.033-3.733-0.1-6.317-0.2-7.75-0.1-1.967-0.433-3.4-1-4.3-0.533-0.833-0.85-2.217-0.949-4.15-0.067-2.067-0.084-3.434-0.051-4.1 0.067-1.567 0.101-2.95 0.101-4.15 0.033-4.333 0.233-8.067 0.6-11.2 0.367-3 1.05-6.6 2.05-10.8l2.35-6.85z" clip-rule="evenodd" fill="#402C08" fill-rule="evenodd"/>
	<path d="m122.5 80.5c0-6.567 0.2-11.7 0.6-15.4 0.067-0.667 0.117-2.333 0.15-5 0.033-2.1 0.2-3.717 0.5-4.85 0.7 1.833 1.033 4.35 1 7.55 0 1.8-0.083 4.417-0.25 7.85 0 2.467-0.066 6.2-0.2 11.2-0.1 4.5-0.017 8.216 0.25 11.15 0.167 1.833 0.55 4.533 1.15 8.1 0.433 2.833 0.7 5.533 0.8 8.1 0.2 4.566 0.267 7.65 0.2 9.25-0.233 3.733-1.033 6.583-2.4 8.55-0.434-0.833-0.733-2.417-0.899-4.75-0.101-2.533-0.184-4.217-0.25-5.05-0.268-2.934-0.4-4.583-0.4-4.95-0.033-1.6 0.217-3.217 0.75-4.85l-1.3 1.5c0-3.667 0.05-8.4 0.149-14.2 0.1-5.833 0.15-10.567 0.15-14.2z" clip-rule="evenodd" fill="#402C08" fill-rule="evenodd"/>
	<path d="m113.5 56.95l-0.15-1.9c0.101 0.434 0.15-0.233 0.15-2-0.2-3.233-0.333-5.75-0.4-7.55-0.166-3.3 0.051-5.667 0.65-7.1 0.133 1.5 0.15 3.8 0.05 6.9 0.066 2.067 0.55 4.65 1.45 7.75 1.1 3.733 1.75 6.267 1.95 7.6 0.3 1.733 0.517 2.45 0.649 2.15v2.1c0 2.767-0.25 5.333-0.75 7.7-0.433 2.233-1.183 4.683-2.25 7.35-0.6 1.533-1.133 3.35-1.6 5.45-0.267 1.233-0.65 3.117-1.15 5.65-1.699 8.633-2.683 16.85-2.949 24.65-0.115 4.266-0.124 11.099-0.025 20.5-0.136-3.774-0.361-8.825-0.675-15.15-0.334-6.633-0.317-13.267 0.05-19.9 0.3-6.167 0.85-10.933 1.65-14.3 1.066-4.367 1.716-7.767 1.949-10.2 0.067-0.867 0.351-2.233 0.851-4.1 0.467-1.767 0.733-3.133 0.8-4.1 0.24-3.4 0.16-7.233-0.24-11.5z" clip-rule="evenodd" fill="#5C3F1A" fill-rule="evenodd"/>
	<path d="m116.5 171.1c-0.2-3.467-0.316-6.367-0.35-8.7-0.034-4.467 0.399-6.9 1.3-7.3 0.133 1.8 0.3 4.4 0.5 7.8 0.2 2.967 0.5 5.567 0.899 7.8 1.2 6.566 1.867 10.25 2 11.05 0.667 4.2 1 7.917 1 11.15 0 1.133 0.084 3.25 0.25 6.35 0.067 1.367-0.1 3.467-0.5 6.3-0.399 2.8-1.416 5.9-3.05 9.3-1.195 2.479-1.871 5.238-2.024 8.275 0.076-3.49 0.484-6.981 1.225-10.475 1.066-4.967 1.733-8.884 2-11.75 0.3-3.467 0.167-6.283-0.4-8.45-1.033-3.767-1.666-6.567-1.899-8.4-0.64-4.96-0.96-9.27-0.96-12.94z" clip-rule="evenodd" fill="#5C3F1A" fill-rule="evenodd"/>
	<path d="m114.25 232.85c0.6 1.9 0.783 4.884 0.55 8.95-0.3 5.066-0.399 8.2-0.3 9.4l0.8 9.149c0.333 3.634 0.517 6.684 0.55 9.15 0 0.6-0.1 7.5-0.3 20.7-0.132 8.276 0.076 15.109 0.625 20.5-0.145-1.169-0.653-2.819-1.524-4.95-0.9-2.2-1.417-3.934-1.551-5.2-0.066-0.899-0.066-2.116 0-3.649 0.067-2.067 0.101-3.284 0.101-3.65 0-3.5 0.083-7.384 0.25-11.65 0.267-7.467 0.2-14.283-0.2-20.449-0.267-3.167-0.434-5.5-0.5-7-0.066-2.467 0.1-4.817 0.5-7.051 0.366-1.866 0.6-4.233 0.7-7.1 0.12-4.07 0.22-6.45 0.29-7.15z" clip-rule="evenodd" fill="#5C3F1A" fill-rule="evenodd"/>
	<path d="m100.65 277.15c1.166-4.733 2.05-8.301 2.649-10.7 1.066-4.334 1.7-7.95 1.9-10.851v3.15c0 2.267-0.184 5.033-0.55 8.3-0.534 4.967-0.817 7.717-0.851 8.25-0.066 0.8-0.116 2.717-0.149 5.75-0.034 2.267-0.184 4.167-0.45 5.7-0.2 1.033-0.783 3.133-1.75 6.3-0.8 2.533-1.233 4.667-1.3 6.4-0.2 4.8-0.301 8.683-0.301 11.649-0.025 1.522-0.033 4.122-0.024 7.801-0.036-1.385-0.077-2.984-0.125-4.801-0.134-3.8-0.2-6.649-0.2-8.55-0.233-6.934-0.384-11.7-0.45-14.3-0.067-4.2 0.467-8.9 1.6-14.1z" clip-rule="evenodd" fill="#5C3F1A" fill-rule="evenodd"/>
	<path d="m112.5 302.85c-1.733 4.334-1.967 8.983-0.7 13.95 0.333 1.434 0.934 3.601 1.8 6.5 0.7 2.7 1.117 5.184 1.25 7.45 0.167 2.8 0.017 6.3-0.449 10.5-0.268 2.333-0.667 5.8-1.2 10.4-0.067-4.2-0.184-8.018-0.351-11.45-0.066-1.733-0.433-3.15-1.1-4.25-0.6-1.033-0.9-2.467-0.9-4.3-0.267-6.301-0.416-11.117-0.449-14.45-0.067-5.9 0.533-10.55 1.8-13.95l0.3-0.4z" clip-rule="evenodd" fill="#5C3F1A" fill-rule="evenodd"/>
	<g clip-rule="evenodd" fill="#402C08" fill-rule="evenodd">
		<path d="m155.7 30.85l3-2.3c0 1.6 0.2 3.55 0.6 5.85 0.533 2.8 0.833 4.667 0.9 5.6 0.533 5.667 0.783 10.983 0.75 15.95-0.033 3-0.117 8.316-0.25 15.95 0 7.333-0.067 12.483-0.2 15.45-0.233 5.6-0.8 10.633-1.7 15.1-0.233 1.133-0.833 2.466-1.8 4-0.421 0.631-0.688 1.348-0.8 2.15-0.011-10.073-0.094-22.556-0.25-37.45-0.13-16.767-0.22-30.2-0.25-40.3z"/>
		<path d="m157.2 178l1.5-2.25c0 2.066 0.3 5.533 0.899 10.4 0.533 4.367 0.733 7.817 0.601 10.35-0.167 2.833-1.184 5.133-3.05 6.9-2.233 2.067-3.7 4.267-4.4 6.6-0.267-2.467-0.417-4.033-0.45-4.7-0.033-0.867 0.283-2.383 0.95-4.55 1-2.6 1.717-4.483 2.15-5.65 0.767-2.067 1.199-4.117 1.3-6.15 0-0.034-0.084-1.934-0.25-5.7-0.1-2.53 0.15-4.28 0.75-5.25z"/>
		<path d="m163.2 277.65l1.5-2.25c-0.067 2 0.333 7.75 1.2 17.25 0.433 8.8-0.45 13.916-2.65 15.35-0.267-4.033-0.35-9.083-0.25-15.15 0.13-6.77 0.2-11.83 0.2-15.2z"/>
	</g>
</svg>