<?xml version='1.0' encoding='utf-8'?>
<svg xmlns="http://www.w3.org/2000/svg" enable-background="new 0 0 241.15 457.3" version="1.1" viewBox="0 0 241.15 457.3">
<g clip-rule="evenodd" fill-rule="evenodd">
		<radialGradient id="a" cx="111.62" cy="434.92" r="73.841" gradientTransform="matrix(1 0 0 -.3031 0 566.74)" gradientUnits="userSpaceOnUse">
		<stop stop-opacity=".3373" offset="0"/>
		<stop stop-opacity="0" offset="1"/>
	</radialGradient>
	<path d="m163.85 419.1c14.4 4.367 21.601 9.634 21.601 15.801 0 6.166-7.2 11.449-21.601 15.85-14.433 4.367-31.833 6.55-52.2 6.55-20.4 0-37.8-2.183-52.2-6.55-14.434-4.4-21.65-9.684-21.65-15.85 0-6.167 7.217-11.434 21.65-15.801 14.4-4.366 31.8-6.55 52.2-6.55 20.37 0 37.77 2.18 52.2 6.55z" fill="url(#a)"/>
	<path d="m34.75 52.2c10.667 0.367 25.934 1.083 45.8 2.15 8.034 0.3 20.184 0.683 36.45 1.15 14.233 0.533 26.367 1.367 36.4 2.5 3 0.333 6.383 0.85 10.149 1.55 11.033-4.966 23.917-8.716 38.65-11.25-0.033 11.733 0.316 29.1 1.05 52.1 0.767 23.5 1.133 40.917 1.1 52.25-2.133 0.267-4.066-0.583-5.8-2.55 0 0.667-0.25 1.633-0.75 2.9-0.529 1.291-0.796 2.157-0.8 2.6-5e-3 -0.206-0.172-0.489-0.5-0.85l-0.5-0.55c0.533 1.733 0.733 3.25 0.6 4.55-0.133 1.5-0.683 2.9-1.649 4.2-0.3-0.3-1.167-0.7-2.601-1.2-1.467-0.567-2.482-1.083-3.05-1.55-0.566 3.667-1.933 6.25-4.1 7.75-0.667-0.6-1.167-1.2-1.5-1.8-1.033 0.667-2.283 2.25-3.75 4.75-1.3 2.267-2.8 3.733-4.5 4.4 0-0.933-0.333-2-1-3.2-0.033 0-0.4 0.133-1.101 0.4-0.566 0.2-1.05 0.217-1.449 0.05l-1.051-1.85c-0.166-0.167-0.449-0.133-0.85 0.1-0.5 0.267-0.9 0.4-1.2 0.4 0-0.267-0.1-0.583-0.3-0.95-0.233-0.367-0.483-0.667-0.75-0.9-0.2 0.533-0.9 1.117-2.1 1.75-1.5 0.833-2.334 1.316-2.5 1.45l-1-1.35c-0.601 0.367-1.434 0.716-2.5 1.05-1.334 0.467-2.051 0.717-2.15 0.75-0.333-0.3-0.5-1.05-0.5-2.25-0.833 0.2-1.733 0.25-2.7 0.15-0.919-0.098-1.544-0.148-1.875-0.15 0.317-9e-3 0.476-0.31 0.476-0.9-0.834-0.733-1.283-1.184-1.351-1.35-0.133-0.233-0.2-0.833-0.2-1.8h-2.05c0-0.333 0.083-0.967 0.25-1.9s0.25-1.55 0.25-1.85c-1.899 2.133-4.467 3.2-7.7 3.2-0.333 0.3-0.5 1.217-0.5 2.75-0.533 0-1.3 0.083-2.3 0.25-1.033 0.133-1.8 0.2-2.3 0.2 0.6 0.533 0.983 1.45 1.15 2.75 0.199 1.733 0.316 2.65 0.35 2.75-0.667-0.3-2.033-0.45-4.1-0.45 0.199 0.333 0.183 0.967-0.051 1.9-0.3 1.167-0.449 1.9-0.449 2.2-0.167-0.333-0.7-0.633-1.601-0.9-1-0.333-1.667-0.633-2-0.9-0.566 2.066-1.467 3.483-2.7 4.25-1.433 0.867-3.1 0.667-5-0.6 0 0.267-0.166 0.816-0.5 1.65-0.333 0.833-0.5 1.5-0.5 2-0.267-0.233-1.199-0.767-2.8-1.6-1.366-0.733-2.15-1.267-2.35-1.6-0.167 0.3-0.5 0.684-1 1.15-0.534 0.466-0.884 0.85-1.05 1.15-0.133-0.2-0.883-0.85-2.25-1.95-1.033-0.867-1.65-1.75-1.85-2.65-1.366 0.3-2.4 0.45-3.1 0.45 0-0.567-0.184-1.233-0.55-2-0.466-0.8-0.783-1.35-0.95-1.65-1.567 1.167-3.15 1.717-4.75 1.65-1.667-0.034-3-0.733-4-2.1-0.167 0.167-0.5 0.316-1 0.45-0.534 0.167-0.884 0.317-1.05 0.45-0.167-0.3-0.333-0.833-0.5-1.6s-0.333-1.3-0.5-1.6c-1.4 0.6-2.433 0.9-3.1 0.9-0.066-1.367-0.083-2.45-0.05-3.25 0.066-1.434 0.434-2.633 1.1-3.6-0.367-0.3-0.883-0.45-1.55-0.45 0.3-0.4 0.733-1.3 1.3-2.7 0.466-1.233 0.883-2.017 1.25-2.35-1.534-0.434-2.383-0.7-2.55-0.8-0.167-0.066-1.017-0.566-2.55-1.5-3.767 2.9-6.583 4.95-8.45 6.15-3.333 2.066-6.167 2.15-8.5 0.25-0.133 0.4-0.45 1-0.95 1.8-0.4 0.633-0.6 1.117-0.6 1.45-0.767-0.934-1.333-1.65-1.7-2.15-0.7-0.867-1.15-1.683-1.35-2.45-0.333 0.467-1.017 1.083-2.05 1.85s-1.733 1.367-2.1 1.8c-1.433-1.267-2.483-2.133-3.15-2.6-1.2-0.9-2.367-1.55-3.5-1.95-0.167 0.167-0.683 0.466-1.55 0.9-0.867 0.467-1.383 0.767-1.55 0.9 0-0.167-0.1-0.317-0.3-0.45-0.367-0.233-0.6-0.383-0.7-0.45-0.4 0.667-1.25 1.417-2.55 2.25-1.434 0.867-2.3 1.483-2.6 1.85-0.167-0.3-0.25-0.583-0.25-0.85 0-0.333-0.066-0.633-0.2-0.9-1.8 1.867-3.867 2.55-6.2 2.05-0.066-1.033-0.15-1.783-0.25-2.25-2.1-0.167-3.633-0.717-4.6-1.65-1.167-1.067-1.033-2.333 0.4-3.8l-2.45 1.05c0 0.333-0.117-0.45-0.35-2.35-0.367 0.033-1.117-0.017-2.25-0.15-1-0.1-1.733-0.1-2.2 0 0.167-0.233 0.384-0.767 0.65-1.6 0.2-0.7 0.55-1.283 1.05-1.75-0.5-0.133-1.117-0.483-1.85-1.05-0.733-0.6-1.216-0.934-1.45-1 0.2-0.133 0.75-0.567 1.65-1.3 0.586-0.524 1.177-0.874 1.775-1.05-1.125 0.294-2.184 0.378-3.175 0.25-0.767-0.1-1.784-0.417-3.05-0.95 0.467-0.2 1.233-0.717 2.3-1.55 1.033-0.733 1.85-1.217 2.45-1.45-0.9-0.3-1.517-0.517-1.85-0.65 0.034-0.033 0.467-0.567 1.3-1.6 0.533-0.633 1.333-1.1 2.4-1.4-2.267 0.067-4.05 0.05-5.35-0.05-2-0.167-3.716-0.55-5.15-1.15 0.566-1.033 1.434-2.05 2.6-3.05 0.4-0.333 1.517-1.167 3.35-2.5-0.634 0.1-1.534 0.033-2.7-0.2-1.3-0.233-2.1-0.35-2.4-0.35 1.633-2.667 4.066-5.25 7.3-7.75 3.6-2.8 7-4.467 10.2-5-1.1-15.567-1.867-27.534-2.3-35.9-0.633-13.267-0.9-25.217-0.8-35.85z" fill="#182E0F"/>
	<path d="m105.45 98.65c0-1.733 0.25-4.8 0.75-9.2l0.75-6.05 0.8 8.15c0.5 5.8 0.75 9.567 0.75 11.3v26.85c0 2.667 0.434 7.733 1.3 15.2 0.867 7.467 1.3 12.934 1.3 16.4 0 4.167 0.433 9.367 1.3 15.6 0.4 3.1 0.817 5.783 1.25 8.05l7.55-2.65c5.3-1.933 8.6-3.333 9.899-4.2 1.434-1 3.334-3.367 5.7-7.1 2.2-3.467 3.717-6.35 4.55-8.65 0.7-1.9 1.684-6.684 2.95-14.35 1.134-6.767 1.867-11.817 2.2-15.15 0.367-3.934 0.633-6.45 0.8-7.55 0.367-2.3 0.783-3.117 1.25-2.45 0.4 0.633 0.533 2.066 0.4 4.3-0.267 4.067-0.4 6.667-0.4 7.8 0 4.566-0.083 8.133-0.25 10.7-0.3 4.367-0.899 8.167-1.8 11.4-0.667 2.467-1.617 5.9-2.85 10.3-1.134 3.667-2.584 7.083-4.351 10.25-1.667 2.967-4.467 5.433-8.399 7.4-4.467 1.9-7.65 3.467-9.551 4.7-2.366 1.533-4.1 2.867-5.2 4l-0.95 1.25 1 13.15c0.066 0.9 0.9 7.4 2.5 19.5 1.433 10.733 2.149 17.75 2.149 21.05 0 2.8-0.133 9.649-0.399 20.55-0.167 10.366-0.033 17.366 0.399 21 0.367 3.399-0.05 11.95-1.25 25.649-1.467 16.634-2.25 26.5-2.35 29.601-0.167 4.5 0.066 11.233 0.7 20.2 0.566 8.133 0.667 14.217 0.3 18.25-0.867 9.967-1.35 15.899-1.45 17.8-0.366 6.399-0.216 10.633 0.45 12.7 0.633 2 1.717 3.767 3.25 5.3 0.934 0.934 2.467 2.3 4.6 4.1 2.667 2.533 5.684 4.667 9.051 6.4 0.699 0.366 2.982 1.6 6.85 3.7 3.867 2 6.55 3.217 8.05 3.649 1.4 0.4 1 0.533-1.2 0.4-3.967-0.267-6.3-0.4-7-0.4-5.467 0-8.899-0.166-10.3-0.5-0.767-0.2-1.633-0.383-2.6-0.55-1.434-0.233-2.434-0.4-3-0.5-1.067-0.233-2.417-0.3-4.05-0.2l-2.15 0.2 0.55 2.6 1.8 2.301c1.2 1.666 1.801 2.833 1.801 3.5 0 0.533-0.301 0.699-0.9 0.5-1.767-0.567-3.833-0.983-6.2-1.25-2.7-0.301-4.25-0.733-4.65-1.301-0.4-0.633-0.933-1-1.6-1.1-1.3-0.233-2.716-1.267-4.25-3.1l-1.9-2.7c-2.4-1.4-4.466-2.45-6.2-3.15-1.067-0.433-1.95-0.383-2.65 0.15-1.033 1.033-2.1 1.95-3.2 2.75-1.233 0.866-2.167 1.167-2.8 0.899-0.866-0.366-1.733-0.399-2.6-0.1-1.3 0.434-2.884 0.566-4.75 0.4l-2.45-0.4 9.25-9.5c0.934-0.967 1.483-3 1.65-6.1 0.167-3.5 0.467-5.684 0.9-6.551 0.434-0.866 1.067-3.1 1.9-6.699 0.8-3.467 1.633-5.983 2.5-7.551 0.866-1.566 2.216-8.533 4.05-20.899 2-13.5 3.283-21.25 3.85-23.25 0.867-3.101 1.733-6.483 2.6-10.15 1.033-4.6 1.883-8.399 2.55-11.399 0.733-3.167 1.05-10.801 0.95-22.9-0.067-12.1 0.133-19.2 0.6-21.3 0.567-2.5 0.967-11.05 1.2-25.65 0.267-15.899 0.55-25.25 0.85-28.05 0.433-4.167-0.3-14.1-2.2-29.8l-2.95-22.3c-1.367-16.5-2.217-27.9-2.55-34.2-0.2-3.934-0.267-10.017-0.2-18.25l0.2-11.2c0.467-2.633 0.85-6.433 1.15-11.4 0.27-4.2 0.4-7.6 0.4-10.2z" fill="#4B330F"/>
	<g fill="#402C08">
		<path d="m107.5 148.9c0.2-2.667 0.316-4.383 0.35-5.15 0.033-2.233 0.083-5.333 0.15-9.3 0.1-4.934 0.133-9.917 0.1-14.95l-0.1-6.1 0.5-3v19.3c0 2.667 0.434 7.733 1.3 15.2 0.867 7.467 1.3 12.934 1.3 16.4 0 5.567 0.716 12.7 2.15 21.4l-0.4 0.95c-0.6 0.533-1.217 0.733-1.85 0.6-1.267-0.267-2.017-2.05-2.25-5.35-0.167-2.633-0.483-6.233-0.95-10.8-0.366-3.767-0.55-6.133-0.55-7.1-0.033-1.933-0.066-3.517-0.1-4.75 0-2.27 0.12-4.72 0.35-7.35z"/>
		<path d="m146.2 151.8c0.433-3.033 1.217-9.216 2.35-18.55v1.7c0 4.566-0.083 8.133-0.25 10.7-0.3 4.367-0.899 8.167-1.8 11.4-0.667 2.467-1.617 5.9-2.85 10.3-1.134 3.667-2.584 7.083-4.351 10.25-1.667 2.967-4.467 5.433-8.399 7.4-4.467 1.9-7.65 3.467-9.551 4.7-2.366 1.533-4.1 2.867-5.2 4l-0.95 1.25 1 13.15c0.066 0.9 0.9 7.4 2.5 19.5 1.433 10.733 2.149 17.75 2.149 21.05 0 2.8-0.133 9.649-0.399 20.55-0.167 10.366-0.033 17.366 0.399 21 0.367 3.399-0.05 11.95-1.25 25.649-1.467 16.634-2.25 26.5-2.35 29.601-0.167 4.5 0.066 11.233 0.7 20.2 0.566 8.133 0.667 14.217 0.3 18.25-0.867 9.967-1.35 15.899-1.45 17.8-0.366 6.399-0.216 10.633 0.45 12.7 0.633 2 1.717 3.767 3.25 5.3 0.934 0.934 2.467 2.3 4.6 4.1 2.667 2.533 5.684 4.667 9.051 6.4 0.699 0.366 2.982 1.6 6.85 3.7 3.867 2 6.55 3.217 8.05 3.649 1.4 0.4 1 0.533-1.2 0.4-3.967-0.267-6.3-0.4-7-0.4-5.467 0-8.899-0.166-10.3-0.5-0.767-0.2-1.633-0.383-2.6-0.55-1.434-0.233-2.434-0.4-3-0.5-1.067-0.233-2.417-0.3-4.05-0.2l-2.15 0.2 0.55 2.6 1.8 2.301c1.2 1.666 1.801 2.833 1.801 3.5 0 0.533-0.301 0.699-0.9 0.5-1.767-0.567-3.833-0.983-6.2-1.25-2.7-0.301-4.25-0.733-4.65-1.301-0.4-0.633-0.933-1-1.6-1.1-1.3-0.233-2.716-1.267-4.25-3.1l-1.9-2.7c-2.4-1.4-4.466-2.45-6.2-3.15-1.067-0.433-1.95-0.383-2.65 0.15-1.033 1.033-2.1 1.95-3.2 2.75-1.233 0.866-2.167 1.167-2.8 0.899-0.866-0.366-1.733-0.399-2.6-0.1-0.934 0.3-2.067 0.45-3.4 0.45l1.05-0.2 7.2-6.05 2.55-2.65c0.7-0.7 1.566-2.017 2.6-3.95l0.25 2.4 1.55 0.5c1.2-2.1 1.883-4.033 2.05-5.8 0.034-0.434 0.05-1.233 0.05-2.4 0-0.666 0.15-1.616 0.45-2.85 0.2-0.833 0.483-2.283 0.85-4.351 0.2-1.232 0.35-1.716 0.45-1.449 0.133 0.467 0.367 2.066 0.7 4.8 0.367 2.934 0.55 4.934 0.55 6 0 2.633 0.183 4.3 0.55 5 0.167 0.366 0.55 0.967 1.15 1.8 0.534 0.9 0.917 1.884 1.15 2.95 0.333 1.733 1.017 3.483 2.05 5.25l0.7 0.25c0.667 0.366 1.533 0.983 2.6 1.85 2.4 1.934 3.867 2.983 4.4 3.15 0.5 0.2 0.833-0.667 1-2.601l-2.05-7.649-0.25-2.9 1.3 0.25-3.6-7.6-1.55-7.65 0.25-11.85 2.3 8.95c0.267-5.101 0.117-8.867-0.45-11.301-0.2-0.966-0.05-2.267 0.45-3.899 0.7-2.233 1.05-5.5 1.05-9.8 0-4.801-0.117-10.317-0.35-16.551l-1.2-15.55-0.65 7.05c-0.434 4.834-0.65 7.584-0.65 8.25-0.667 10.7-1.083 14.9-1.25 12.601-0.1-1.4 0.083-5.717 0.55-12.95l1-22.05c0.167-4.333 0.417-8.867 0.75-13.601 0.667-9.466 1.433-15.183 2.3-17.149s1.767-4.851 2.7-8.65l1.15-5.05c-0.333-8.233-0.5-13.233-0.5-15 0-1.3-0.517-0.967-1.55 1-1.034 1.967-1.55 3.566-1.55 4.8 0 1.567-0.167 3.5-0.5 5.8-0.167-2.133-0.233-4.5-0.2-7.1 0.033-5.2 0.533-8.9 1.5-11.1 1.2-2.4 1.917-4.017 2.15-4.851 0.267-0.967 0.4-3.116 0.4-6.45 0-3.066-0.3-7.149-0.9-12.25l-0.9-6.699c-0.867-9.101-1.2-15.767-1-20 0.1-2.634 0.033-5.7-0.2-9.2l-1.1-23.15-1.05 6.85v-10.55l1.8-3.4 5.5-1.7c3.899-1.267 6.433-2.283 7.6-3.05 1.867-1.233 3.667-2.9 5.4-5l6.899-12.1c0.833-1.133 1.7-2.65 2.601-4.55 1.83-3.83 3.02-7.67 3.55-11.5z"/>
	</g>
	<path d="m103.65 368.9c0.2-2.533 0.817-5.533 1.85-9l1.45-4.45-0.5 10.55c-0.1 1.6-0.134 2.833-0.1 3.7 0.066 1.633 0.1 2.934 0.1 3.899v6.051l-3.35 20.8-1.25-9.45c0-2.633 0.6-5.883 1.8-9.75 0.7-2.233 0.883-4.467 0.55-6.7-0.43-2.83-0.62-4.72-0.55-5.65z" fill="#402C08"/>
	<path d="m119.05 249.7l-0.3-12.4-2.05-18.4-0.05-6.95c0.4 3.167 1.25 9.566 2.55 19.2 1.1 8.699 1.649 14.533 1.649 17.5 0 2.8-0.133 9.649-0.399 20.55-0.167 10.366-0.033 17.366 0.399 21 0.367 3.399-0.05 11.95-1.25 25.649-1.467 16.634-2.25 26.5-2.35 29.601-0.167 4.5 0.066 11.233 0.7 20.2 0.566 8.133 0.667 14.217 0.3 18.25-0.967 11.199-1.5 18.133-1.6 20.8l-0.2-4.25c-0.667-14.667-1-23.967-1-27.9 0-2.033-0.083-4.433-0.25-7.2-0.2-2.767-0.3-4.833-0.3-6.199v-12.1c0-1.233-0.066-2.733-0.2-4.5-0.2-2.433-0.467-3.483-0.8-3.149-0.6 0.633-1.083 0.533-1.45-0.301-0.434-0.966-0.034-2.533 1.2-4.699 0.934-1.634 1.633-4.95 2.1-9.95 0.533-5.601 1.367-9.917 2.5-12.95 1.4-3.667 2.033-7.533 1.9-11.6-0.4-4-0.601-6.7-0.601-8.101 0-1.733-0.216-4.233-0.65-7.5l-0.65-4.35c0.7-14.9 0.97-24.98 0.8-30.25z" fill="#2F2106"/>
	<path d="m109 439.95c0.066 0.033 0.066 0.133 0 0.3-0.133 0.2 0.25 0.583 1.15 1.15l-0.6-0.15c-1.3-0.233-2.716-1.267-4.25-3.1l-1.9-2.7c-2.4-1.4-4.466-2.45-6.2-3.15-1.067-0.433-1.95-0.383-2.65 0.15-1.033 1.033-2.1 1.95-3.2 2.75-0.8 0.566-1.417 0.899-1.85 1-0.333 0.066-0.667 0.017-1-0.15l1-0.6c-0.066-0.4-0.05-0.833 0.05-1.3 0.2-0.967 0.784-1.667 1.75-2.101 1.567-0.7 3.117-1.316 4.65-1.85 0.633-0.367 1.033-0.601 1.2-0.7 0.333-0.233 0.617-0.533 0.85-0.9l4.1 3.95 1.8 1.351 2.55 2.85 1 1.5c0.73 1 1.25 1.57 1.55 1.7z" fill="#2F2106"/>
	<path d="m123.75 422.6l1.35 1.2c2.667 2.533 5.684 4.667 9.051 6.4 0.699 0.366 2.982 1.6 6.85 3.7 3.867 2 6.55 3.217 8.05 3.649 1.4 0.4 1 0.533-1.2 0.4-3.967-0.267-6.3-0.4-7-0.4-5.467 0-8.899-0.166-10.3-0.5-0.767-0.2-1.633-0.383-2.6-0.55-1.434-0.233-2.434-0.4-3-0.5-1.134-0.267-2.5-0.333-4.101-0.2l-0.8-1.399-1.95-12.2c1.3 2.866 2.55 4.649 3.75 5.35 2.567 1.601 4.283 2.4 5.15 2.4l0.8 0.649c0.3 0-0.149-1.1-1.35-3.3-1.03-1.93-1.93-3.5-2.7-4.7z" fill="#2F2106"/>
	<path d="m115.95 191c0.6-0.333 0.25-0.5-1.05-0.5-0.4 0 0.55-0.183 2.85-0.55l4.3-0.7-0.7 0.45c-2.366 1.533-4.1 2.867-5.2 4l-0.95 1.25c0.033-0.133-0.034-0.883-0.2-2.25-0.07-0.7 0.25-1.27 0.95-1.7z" fill="#2F2106"/>
	<path d="m103.9 149.7c-0.133-2.667-0.2-5.05-0.2-7.15l0.05 0.2c0.267 0.933 0.483 3.117 0.65 6.55 0.233 4.867 0.534 9.117 0.9 12.75 0.333 3.3 0.934 7.15 1.8 11.55 0.6 3.2 0.9 6.066 0.9 8.6 0 2.667 0.617 8 1.85 16 1.4 9.3 2.2 15.017 2.4 17.15 0.333 3.867 0.684 10.933 1.05 21.2 0.3 9.033 0.45 14.983 0.45 17.851 0 1.133 0.066 3.533 0.2 7.199 0.133 3.7 0.2 7.101 0.2 10.2 0 3.467-0.25 6.483-0.75 9.05-0.267 1.268-0.533 2.2-0.8 2.801l-0.15 3.25c-0.134 2.733-0.2 5.583-0.2 8.55 0 2.5-0.25 8.033-0.75 16.6-0.533 8.533-0.8 13.667-0.8 15.4 0 3.033-0.167 5.5-0.5 7.399-0.4 2.301-1.134 4.567-2.2 6.801-0.967 1.967-1.434 4.866-1.4 8.699 0.033 1.9 0.15 3.601 0.35 5.101-0.2 0.267-0.467 0.717-0.8 1.35-0.7 1.267-1.367 2.8-2 4.601-0.7 1.967-1.35 6.383-1.95 13.25-0.5 6.033-0.75 10.949-0.75 14.75 0 2.5-0.767 5.983-2.3 10.449-1.533 4.467-2.3 6.768-2.3 6.9v5.95c0 1.566-0.383 2.883-1.15 3.95l-2.7-2.8-0.4 2.2c-0.267 1.567-0.4 2.684-0.4 3.351 0 1.066-0.634 3.033-1.9 5.899-1.167 1.033-2.583 2.101-4.25 3.2l1.95-2c0.934-0.967 1.483-3 1.65-6.1 0.167-3.5 0.467-5.684 0.9-6.551 0.434-0.866 1.067-3.1 1.9-6.699 0.8-3.467 1.633-5.983 2.5-7.551 0.866-1.566 2.216-8.533 4.05-20.899 2-13.5 3.283-21.25 3.85-23.25 0.867-3.101 1.733-6.483 2.6-10.15 1.033-4.6 1.883-8.399 2.55-11.399 0.733-3.167 1.05-10.801 0.95-22.9-0.067-12.1 0.133-19.2 0.6-21.3 0.567-2.5 0.967-11.05 1.2-25.65 0.267-15.899 0.55-25.25 0.85-28.05 0.433-4.167-0.3-14.1-2.2-29.8l-2.95-22.3c-1.37-16.5-2.22-27.9-2.55-34.2z" fill="#6A481F"/>
	<path d="m8.025 105.08c0.183 0.083 0.375 0.158 0.575 0.225 1.233 0.4 2.466 0.35 3.7-0.15-1.443-0.36-2.868-0.39-4.275-0.07zm129.22-92.68c0.5 1.4 0.75 2.533 0.75 3.4 1.333-3.767 3.217-6.233 5.65-7.4 0 0.367 0.083 0.833 0.25 1.4 0.166 0.567 0.25 0.917 0.25 1.05 0.199-0.567 0.633-1.283 1.3-2.15 0.767-1.034 1.2-1.633 1.3-1.8 1.367 2.167 2.05 4.967 2.05 8.4 0.2-1.066 0.667-2.117 1.4-3.15 0.433-0.633 1.167-1.566 2.2-2.8 0 0.867 0.25 2.167 0.75 3.9s0.75 2.917 0.75 3.55c2.232-2.9 4.116-4.716 5.649-5.45 0 0.667 0.067 1.816 0.2 3.45 0.09 1.344 0.048 2.41-0.125 3.2 0.317-1.174 0.926-2.257 1.825-3.25 1.033-1.133 2.283-1.933 3.75-2.4 0 0.5 0.133 1.25 0.399 2.25 0.167 1 0.033 1.883-0.399 2.65 0.333-0.3 0.933-0.783 1.8-1.45 0.833-0.633 1.434-1.133 1.8-1.5 0 1.733-0.066 3.083-0.2 4.05-0.199 1.6-0.649 3.05-1.35 4.35 0.633-0.4 1.55-0.8 2.75-1.2 1.533-0.467 2.333-0.717 2.4-0.75-0.4 0.733-0.634 1.85-0.7 3.35-0.101 1.667-0.217 2.683-0.351 3.05 3.434-2.2 6.684-3.517 9.75-3.95-0.199 0.533 0 1.517 0.601 2.95 0.633 1.6 0.95 2.583 0.95 2.95 2.366-0.4 5.1-1.217 8.199-2.45 0 2.3-0.166 3.783-0.5 4.45 1.601-0.167 3.801-0.733 6.601-1.7 2.833-1 4.917-1.583 6.25-1.75-0.167 0.5-0.45 1.317-0.851 2.45-0.399 1.033-0.8 1.867-1.199 2.5 1.1-0.867 2.3-1.367 3.6-1.5h3.55c0 0.333 0.15 1.566 0.45 3.7 0.233 1.7 0.25 2.934 0.05 3.7h2.601c0.433 2.567-0.934 5.367-4.101 8.4 0.867-0.4 2.033-0.6 3.5-0.6 0.833 0 1.884 0.034 3.15 0.1-0.333 0.5-0.667 1.434-1 2.8-0.367 1.466-0.717 2.517-1.05 3.15 0.399-0.133 1.533-0.167 3.399-0.1 1.767 0.1 3.033-0.033 3.8-0.4 0.2 0.367 0.268 0.683 0.2 0.95-0.133 0.5-0.2 0.833-0.2 1 2.367-0.667 4.167-1.083 5.4-1.25 1.967-0.267 3.75-0.183 5.35 0.25l-1.899 2.45c-0.536 0.675-1.136 1.2-1.8 1.575 0.889-0.334 1.889-0.526 3-0.575 0.899-0.033 2.333-0.017 4.3 0.05-0.101 0.2-0.283 0.95-0.55 2.25-0.268 1.2-0.601 2.083-1 2.65 4.366-0.833 5.85 1.6 4.449 7.3-0.767 3.067-2.25 6.733-4.449 11 2.866 0 4.699 0.65 5.5 1.95 0.833 1.333 0.366 2.983-1.4 4.95 0.533 0 1.4 0.167 2.6 0.5s2.051 0.5 2.551 0.5c-0.834 2.434-3.018 4.8-6.551 7.1-4.166 2.333-7.116 4.083-8.85 5.25 0.5 0.133 2.367 0.417 5.6 0.85 2.268 0.3 4 0.833 5.2 1.6-1.366 1.3-3.116 2.367-5.25 3.2-1.3 0.5-3.316 1.083-6.05 1.75 0.967 0 2.05 0.35 3.25 1.05 1.467 0.8 2.434 1.267 2.9 1.4-0.268 0.833-0.567 1.467-0.9 1.9-0.367 0.567-0.917 1.083-1.65 1.55 1.4 0.7 2.25 1.2 2.551 1.5-1.101 1.067-2.9 2.117-5.4 3.15-2.667 1.1-4.45 2.017-5.35 2.75 2.8 1.966 4.967 4.466 6.5 7.5 1.8 3.566 0.133 4.7-5 3.4v3.45c-0.5-0.7-1.268-1.45-2.301-2.25-1.033-0.833-1.8-1.566-2.3-2.2 0.7 1.1 1.033 2.316 1 3.65 0 0.833-0.167 1.917-0.5 3.25-0.3-0.3-1.149-0.8-2.55-1.5 0.3 2.033 0.333 3.65 0.1 4.85-0.267 1.566-0.982 2.917-2.149 4.05-0.767-1.566-1.3-2.733-1.601-3.5-0.375-1.027-0.551-2.019-0.524-2.975-0.134 0.72-0.408 1.461-0.825 2.225-0.767 1.2-1.333 2.133-1.7 2.8-0.967-0.467-1.633-1.367-2-2.7-0.3-1.233-0.316-2.65-0.05-4.25-2.667 3.233-5.233 5.05-7.7 5.45-0.5-1.2-0.649-2.517-0.45-3.95 0.2-1.367 0.7-2.683 1.5-3.95-1.433 1.133-2.35 1.65-2.75 1.55-0.166-0.067-0.967-0.917-2.399-2.55-0.101 0.967-0.2 3.083-0.3 6.35-0.101 2.5-0.334 4.5-0.7 6-1.367-0.9-2.2-1.467-2.5-1.7-0.967-0.867-1.667-1.95-2.101-3.25 0.567 2.767 0.9 5.133 1 7.1 0.134 2.434-0.033 4.684-0.5 6.75-0.699-2.1-1.05-3.583-1.05-4.45-0.366 2.566-0.667 4.35-0.899 5.35-0.434 2.033-0.983 3.7-1.65 5-1.333-2.467-2.184-4.6-2.55-6.4 0 0.8-0.2 1.8-0.601 3-0.6 1.833-0.916 2.817-0.949 2.95-0.434-1.067-0.75-1.917-0.95-2.55-0.4-1.133-0.601-2.1-0.601-2.9-1.866 4.133-4.433 6.434-7.699 6.9-0.334-1.633-0.5-2.784-0.5-3.45-0.2 0.4-0.617 0.883-1.25 1.45-0.7 0.533-1.134 0.867-1.301 1-0.699-3.2-1.732-5.667-3.1-7.4 0.233 4.167-1.133 5.85-4.1 5.05-2.9-0.767-4.783-2.783-5.65-6.05 0.6 2.733 0.233 6.367-1.1 10.9-1.867 6.367-2.867 9.983-3 10.85-0.134-0.4-0.467-1.083-1-2.05-0.5-0.867-0.851-1.667-1.051-2.4-0.1 3.333-0.583 5.467-1.449 6.4-0.667 0.767-1.717 0.867-3.15 0.3-1.867-0.9-3.316-1.55-4.35-1.95-1.867-0.7-3.5-0.8-4.9-0.3 0.333-0.833 0.633-1.517 0.9-2.05 0.467-0.967 1.017-1.767 1.649-2.4-1.833 0.667-2.967 0.917-3.399 0.75-0.634-0.633-1.384-1.367-2.25-2.2l-2.051 1.95c-0.666-2.6-1-5.067-1-7.4-0.566 0.533-1.583 1.167-3.05 1.9-1.433 0.733-2.3 1.25-2.6 1.55 0-0.367-0.15-1.45-0.45-3.25-0.267-1.5-0.3-2.717-0.1-3.65-0.533 1.067-1.384 1.883-2.551 2.45 0-0.3-0.166-1.067-0.5-2.3-0.333-1.233-0.5-2.117-0.5-2.65-1.866 1.367-4.433 2.367-7.7 3 0.034-0.133 0.217-0.95 0.55-2.45 0.233-1.066 0.55-1.9 0.95-2.5-1.4 0.534-2.85 0.867-4.35 1-1.7 0.133-3.15-0.033-4.35-0.5 0.584-1.394 1.709-2.752 3.375-4.075-0.044 0.011-0.085 0.02-0.125 0.025-0.534 0.067-1.617-0.067-3.25-0.4 0.3-0.3 0.667-1.067 1.1-2.3 0.434-1.233 0.917-2.117 1.45-2.65-0.767 0.567-1.867 0.967-3.3 1.2-1.667 0.267-2.784 0.533-3.35 0.8 0.267-1.5 0.483-2.65 0.65-3.45 0.3-1.5 0.767-2.667 1.4-3.5-3.5 2.066-6.066 2.9-7.7 2.5-2.5 2-5.4 3.25-8.7 3.75-3.767 0.3-6.684 0.7-8.75 1.2-1.7 0.633-3 1.117-3.9 1.45-1.633 0.6-3.067 0.6-4.3 0-1.066 2.633-2.417 4.183-4.05 4.65-1.7 0.5-2.917-0.55-3.65-3.15-2.4 1.367-3.784 2.15-4.15 2.35-1.733 0.867-3.25 1.4-4.55 1.6 0-0.5-0.167-1.4-0.5-2.7-0.367-1.333-0.55-2.25-0.55-2.75-2.4 1.167-4.217 2-5.45 2.5-2.167 0.833-4.117 1.15-5.85 0.95 0.8-1.6 1.317-2.75 1.55-3.45-4.1 3.233-7.867 4.217-11.3 2.95 0.134-0.233 0.233-0.917 0.3-2.05 0.1-1.167 0.35-2.117 0.75-2.85-1.167 0.867-2.45 1.434-3.85 1.7-0.867 0.167-2.15 0.25-3.85 0.25 0.467-1.4 0.767-2.217 0.9-2.45 0.414-0.986 0.93-1.786 1.55-2.4-0.813 0.774-1.829 1.257-3.05 1.45-1.466 0.133-2.633 0.283-3.5 0.45 0.2-0.566 0.167-1.467-0.1-2.7-0.31-1.53-0.46-2.45-0.46-2.75-0.267 0.1-1.283 0.283-3.05 0.55-1.467 0.233-2.5 0.55-3.1 0.95 0.633-1.733 1.5-3.383 2.6-4.95-0.6 0.367-1.45 0.6-2.55 0.7-1.367 0.1-2.233 0.2-2.6 0.3 1.067-2.533 2.6-5 4.6-7.4-2.367 0.333-4.133 0.517-5.3 0.55-1.934 0.067-3.583-0.117-4.95-0.55 1.333-3.167 3.05-5.15 5.15-5.95-0.5 0.167-1.267 0.25-2.3 0.25s-1.816 0.083-2.35 0.25c1.1-2 2.133-3.316 3.1-3.95-0.7 0.167-1.617 0.167-2.75 0-1.1-0.167-1.9-0.167-2.4 0 0.466-0.567 1.066-1.617 1.8-3.15 0.633-1.3 1.233-2.216 1.8-2.75-0.634 0.2-1.55 0.25-2.75 0.15-1.233-0.1-2.017-0.15-2.35-0.15 0.333-0.333 0.75-1.083 1.25-2.25 0.5-1.133 0.933-1.867 1.3-2.2-0.566 0-1.316-0.167-2.25-0.5-0.933-0.333-1.55-0.5-1.85-0.5 0.5-1.9 1.817-3.35 3.95-4.35 0.669-0.302 1.344-0.527 2.025-0.675-0.945-0.417-1.736-1.042-2.375-1.875 0.967-1.6 1.65-2.567 2.05-2.9 0.226-0.206 0.484-0.381 0.775-0.525-0.278-0.017-0.536-0.025-0.775-0.025 1.915-2.807 4.615-4.94 8.1-6.4-1.047 0.4-2.297 0.6-3.75 0.6-1.7-0.1-2.983-0.15-3.85-0.15 0.7-0.5 1.733-1.3 3.1-2.4 1.2-0.967 2.217-1.65 3.05-2.05-3.067 0.667-5.4 1.1-7 1.3-2.633 0.367-5.083 0.434-7.35 0.2 0.7-0.967 1.767-1.917 3.2-2.85 1.267-0.867 2.583-1.567 3.95-2.1h-2.55c0.867-0.5 2.233-1.267 4.1-2.3 1.7-0.934 3.066-1.817 4.1-2.65-0.9 0-2.433-0.317-4.6-0.95 0.7-0.167 1.733-0.5 3.1-1s2.384-0.833 3.05-1c-2.034 0-4.083-0.333-6.15-1 0.533-0.167 1.3-0.567 2.3-1.2 1.033-0.667 1.8-1.083 2.3-1.25-1.267-0.5-2.316-0.9-3.15-1.2-1.5-0.533-2.667-0.8-3.5-0.8 0.534-0.167 1.3-0.483 2.3-0.95 1.033-0.5 1.8-0.833 2.3-1-0.967 0.2-2.25 0.183-3.85-0.05-1.966-0.3-3.25-0.45-3.85-0.45 1.333-0.633 2.4-1.083 3.2-1.35 1.242-0.392 2.55-0.592 3.925-0.6-0.852-0.011-1.827-0.195-2.925-0.55-1.233-0.467-2.117-0.783-2.65-0.95 0.333-0.333 1.017-1.15 2.05-2.45-0.5 0-1.267-0.167-2.3-0.5-1-0.333-1.767-0.5-2.3-0.5 0.833-1 2.25-1.867 4.25-2.6 3.2-1.2 4.85-1.817 4.95-1.85-0.633 0-2-0.5-4.1-1.5 1.2-0.467 3-1.133 5.4-2 2.134-0.833 3.934-1.65 5.4-2.45-2.067-0.566-3.583-0.983-4.55-1.25-1.733-0.5-3.133-1.066-4.2-1.7 0.767-0.7 1.816-1.5 3.15-2.4 1.3-0.833 2.483-1.517 3.55-2.05-0.633-0.633-1.15-0.95-1.55-0.95 2.533-1.233 4.933-2.067 7.2-2.5-2.6-0.633-4.65-1.45-6.15-2.45 0.567 0.2 1.417 0.183 2.55-0.05 1.366-0.3 2.216-0.45 2.55-0.45-0.994-0.994-1.677-1.494-2.05-1.5 0.309-1e-3 1.025-0.084 2.15-0.25 1.1-0.167 1.917-0.25 2.45-0.25-0.4-0.3-0.716-0.55-0.95-0.75-0.367-0.367-0.55-0.767-0.55-1.2 0-0.167 0.167-0.333 0.5-0.5s0.5-0.333 0.5-0.5c0-0.133-0.083-0.4-0.25-0.8s-0.25-0.783-0.25-1.15c0.467 0 1.434-0.25 2.9-0.75 1.433-0.5 2.517-0.75 3.25-0.75 0.233-1.467 1.05-2.434 2.45-2.9 1.367-0.467 2.95-0.317 4.75 0.45 0.167-0.333 0.483-0.917 0.95-1.75 0.4-0.767 0.6-1.35 0.6-1.75 0.1 0.167 0.433 0.55 1 1.15 0.161 0.151 0.303 0.317 0.425 0.5-0.381-1.261-0.239-2.494 0.425-3.7 0.934-1.667 2.534-2.617 4.8-2.85 0-0.533 0.183-1.333 0.55-2.4 0.333-1.067 0.5-1.75 0.5-2.05 0.7 0.5 1.684 1.133 2.95 1.9 1 0.767 1.716 1.783 2.15 3.05-0.2-1.267-0.15-2.45 0.15-3.55 0.434-1.1 0.733-1.9 0.9-2.4 0.267 0 0.583 0.1 0.95 0.3 0.361 0.229 0.544 0.463 0.55 0.7v-2.95c1.5-0.467 3-0.417 4.5 0.15 1.434 0.567 2.684 1.5 3.75 2.8-0.433-1.2-0.466-2.316-0.1-3.35 0.566-1.067 0.933-1.934 1.1-2.6 0.434 0.267 1.4 0.617 2.9 1.05 1.433 0.434 2.517 0.917 3.25 1.45 0-0.333 0.267-1 0.8-2 0.5-1 0.75-1.65 0.75-1.95 0.167 0.5 0.483 1.333 0.95 2.5 0.4 1.133 0.6 2.1 0.6 2.9 0.267-1.966 0.483-3.433 0.65-4.4 0.3-1.733 0.767-3.217 1.4-4.45 1.033 1 1.716 1.816 2.05 2.45 0-1.233 0.3-2.5 0.9-3.8 0.767-1.4 1.317-2.434 1.65-3.1 0.533 0.5 1.45 1.2 2.75 2.1 1.167 0.867 1.966 1.8 2.4 2.8 0.2-0.933 0.716-1.867 1.55-2.8 0.9-1.067 1.417-1.767 1.55-2.1 0.3 0.567 1.033 1.467 2.2 2.7 1.067 1.1 1.7 2 1.9 2.7 0.7-1.333 1.2-2.15 1.5-2.45 2.4 0.833 4.817 2.6 7.25 5.3 1.434 1.567 3.467 4.083 6.1 7.55 0.233-0.7 0.917-2.183 2.05-4.45 0 0.333 0.366 0.933 1.1 1.8 0.833 0.967 1.333 1.684 1.5 2.15 0-0.3 0.35-0.9 1.05-1.8 0.667-0.9 1-1.617 1-2.15 0.167 0.333 0.6 0.833 1.3 1.5 0.667 0.633 1.083 1.117 1.25 1.45 0.167-0.5 0.767-1.316 1.8-2.45 1.033-1.167 1.633-2 1.8-2.5 0 0.367 0.083 0.767 0.25 1.2 0.167 0.4 0.25 0.667 0.25 0.8 0.167-0.167 0.45-0.483 0.85-0.95 0.367-0.367 0.767-0.55 1.2-0.55 0.833 1 1.667 2.233 2.5 3.7 0.381 0.68 0.914 1.63 1.601 2.85 0.131-0.198 0.298-0.398 0.5-0.6 0.433 0 0.767 0.1 1 0.3 0.133 0.133 0.316 0.367 0.55 0.7 0.2-1.167 0.75-2.283 1.649-3.35 1.167-1.434 1.817-2.3 1.95-2.6 0.167 0.5 0.567 1.367 1.2 2.6 0.566 1.066 0.85 1.683 0.85 1.85 0.5-2.966 2.051-4.95 4.65-5.95 0 0.633 0.25 1.65 0.75 3.05z" fill="#365818"/>
	<path d="m129.8 10.85c0.167 0.5 0.567 1.367 1.2 2.6 0.566 1.066 0.85 1.683 0.85 1.85 0.5-2.966 2.051-4.95 4.65-5.95 0 0.633 0.25 1.65 0.75 3.05s0.75 2.533 0.75 3.4c1.333-3.767 3.217-6.233 5.65-7.4 0 0.367 0.083 0.833 0.25 1.4 0.166 0.567 0.25 0.917 0.25 1.05 0.199-0.567 0.633-1.283 1.3-2.15 0.767-1.034 1.2-1.633 1.3-1.8 1.367 2.167 2.05 4.967 2.05 8.4 0.2-1.066 0.667-2.117 1.4-3.15 0.433-0.633 1.167-1.566 2.2-2.8 0 0.867 0.25 2.167 0.75 3.9s0.75 2.917 0.75 3.55c2.232-2.9 4.116-4.716 5.649-5.45 0 0.667 0.067 1.816 0.2 3.45 0.09 1.344 0.048 2.41-0.125 3.2 0.317-1.174 0.926-2.257 1.825-3.25 1.033-1.133 2.283-1.933 3.75-2.4 0 0.5 0.133 1.25 0.399 2.25 0.167 1 0.033 1.883-0.399 2.65 0.333-0.3 0.933-0.783 1.8-1.45 0.833-0.633 1.434-1.133 1.8-1.5 0 1.733-0.066 3.083-0.2 4.05-0.199 1.6-0.649 3.05-1.35 4.35 0.633-0.4 1.55-0.8 2.75-1.2 1.533-0.467 2.333-0.717 2.4-0.75-0.4 0.733-0.634 1.85-0.7 3.35-0.101 1.667-0.217 2.683-0.351 3.05 3.434-2.2 6.684-3.517 9.75-3.95-0.199 0.533 0 1.517 0.601 2.95 0.633 1.6 0.95 2.583 0.95 2.95 2.366-0.4 5.1-1.217 8.199-2.45 0 2.3-0.166 3.783-0.5 4.45 1.601-0.167 3.801-0.733 6.601-1.7 2.833-1 4.917-1.583 6.25-1.75-0.167 0.5-0.45 1.317-0.851 2.45-0.399 1.033-0.8 1.867-1.199 2.5 1.1-0.867 2.3-1.367 3.6-1.5h3.55c0 0.333 0.15 1.566 0.45 3.7 0.233 1.7 0.25 2.934 0.05 3.7h2.601c0.433 2.567-0.934 5.367-4.101 8.4 0.867-0.4 2.033-0.6 3.5-0.6 0.833 0 1.884 0.034 3.15 0.1-0.333 0.5-0.667 1.434-1 2.8-0.367 1.466-0.717 2.517-1.05 3.15 0.399-0.133 1.533-0.167 3.399-0.1 1.767 0.1 3.033-0.033 3.8-0.4 0.2 0.367 0.268 0.683 0.2 0.95-0.133 0.5-0.2 0.833-0.2 1 2.367-0.667 4.167-1.083 5.4-1.25 1.967-0.267 3.75-0.183 5.35 0.25-0.232 0.233-0.783 0.934-1.649 2.1-0.667 0.867-1.333 1.5-2 1.9 0.933-0.367 2.083-0.566 3.45-0.6 0.8 0 2.066 0.033 3.8 0.1-0.101 0.2-0.283 0.95-0.55 2.25-0.268 1.2-0.601 2.083-1 2.65 4.366-0.833 5.85 1.6 4.449 7.3-0.767 3.067-2.25 6.733-4.449 11 2.866 0 4.699 0.65 5.5 1.95 0.833 1.333 0.366 2.983-1.4 4.95 0.533 0 1.4 0.167 2.6 0.5s2.051 0.5 2.551 0.5c-0.834 2.434-3.018 4.8-6.551 7.1-4.166 2.333-7.116 4.083-8.85 5.25 0.5 0.133 2.367 0.417 5.6 0.85 2.268 0.3 4 0.833 5.2 1.6-1.366 1.3-3.116 2.367-5.25 3.2-1.3 0.5-3.316 1.083-6.05 1.75 0.967 0 2.05 0.35 3.25 1.05 1.467 0.8 2.434 1.267 2.9 1.4-0.268 0.8-0.584 1.45-0.95 1.95-3.233-1.1-6.634-1.733-10.2-1.9l0.1-0.05c-2.1-0.167-4.017-0.167-5.75 0 0.2-0.067 0.5-0.233 0.9-0.5-0.733-0.667-1.533-1.15-2.4-1.45-1-0.333-1.899-0.333-2.699 0l1-1c-0.233 0-0.684-0.083-1.351-0.25-0.633-0.167-1.133-0.25-1.5-0.25 0.434-0.1 0.934-0.367 1.5-0.8 0.333-0.2 0.783-0.517 1.351-0.95-1-0.167-2.384-0.083-4.15 0.25-2.467 0.467-3.917 0.717-4.35 0.75 1.767-1.333 2.55-2.566 2.35-3.7-2.195 0-4.329 0.683-6.4 2.05 0.639-0.469 1.089-1.052 1.351-1.75 0.3-0.8 0.267-1.55-0.101-2.25-1.1-0.1-2.366 0.117-3.8 0.65-0.533 0.2-1.667 0.717-3.399 1.55 1.166-1.333 1.3-2.333 0.399-3-0.866-0.7-2.017-0.6-3.45 0.3 0.467-0.7 0.684-1.267 0.65-1.7-0.033-0.333-0.25-0.833-0.65-1.5-0.166 0.167-0.482 0.317-0.949 0.45-0.5 0.167-0.867 0.333-1.101 0.5 0.101-0.4 0.083-0.867-0.05-1.4-0.066-0.167-0.233-0.6-0.5-1.3-0.133 0.133-0.617 0.317-1.45 0.55-0.8 0.2-1.333 0.433-1.6 0.7 0-0.333-0.167-1-0.5-2-0.867 0.1-1.783 0.567-2.75 1.4-1.067 1.066-1.867 1.833-2.4 2.3-0.167-0.667-0.25-1.15-0.25-1.45-1.366 0.233-2.399 1.3-3.1 3.2 0-0.4-0.134-0.85-0.4-1.35-0.366-0.667-0.566-1.05-0.6-1.15-1.533 0.867-2.3 2.433-2.3 4.7-1.033-0.967-1.817-1.117-2.351-0.45-0.333 0.433-0.583 1.333-0.75 2.7-0.2-0.133-0.7-0.383-1.5-0.75-0.667-0.3-1.1-0.55-1.3-0.75 0 0.233-0.083 0.7-0.25 1.4-0.2 0.7-0.3 1.217-0.3 1.55-0.2-0.2-0.601-0.4-1.2-0.6-0.7-0.267-1.15-0.466-1.35-0.6 0 0.8 0.083 2.2 0.25 4.2h-1c0 0.4 0.066 1.25 0.199 2.55 0.134 1.033 0.15 1.816 0.051 2.35l-1.301-0.25c-0.333 0.733-1.183 1.417-2.55 2.05-1.366 0.6-2.233 1.316-2.6 2.15-0.601-0.467-0.95-0.85-1.05-1.15-0.101-0.3-0.084-0.9 0.05-1.8-0.367 0-0.884-0.167-1.55-0.5 1.399-0.667 2.517-1 3.35-1-0.867-0.3-1.467-0.533-1.8-0.7l1.3-1.25c-0.833-0.367-1.267-0.733-1.3-1.1-0.033-0.267 0.217-0.8 0.75-1.6-0.067 0-0.15-0.033-0.25-0.1-0.067-0.1-0.15-0.15-0.25-0.15 0.1-0.033 0.483-0.283 1.149-0.75 0.634-0.367 1.101-0.617 1.4-0.75l-0.75-1.25c0.1-0.066 0.316-0.1 0.65-0.1 0.366 0 0.583-0.05 0.649-0.15l-1.05-0.95c0.133-0.133 0.733-0.467 1.8-1l-1.55-0.75c0.8-1 2-1.5 3.6-1.5-0.267-0.067-0.649-0.267-1.149-0.6-0.533-0.333-0.917-0.533-1.15-0.6 0.667-0.533 1.583-0.9 2.75-1.1 0.7-0.133 1.75-0.267 3.15-0.4-0.467-0.967-0.9-1.533-1.3-1.7 0.566-0.667 1.449-1.017 2.649-1.05 0.5 0 1.583 0.1 3.25 0.3-0.633-0.3-1.05-0.75-1.25-1.35-0.366-0.9-0.55-1.367-0.55-1.4 0.833-0.367 1.7-0.55 2.6-0.55 0.9 0.033 1.65 0.267 2.25 0.7-0.232-0.3-0.482-1.083-0.75-2.35 0.867-0.533 2.051-0.567 3.551-0.1 0.833 0.233 2.05 0.683 3.649 1.35-0.533-1.567-0.866-2.7-1-3.4-0.233-1.267-0.233-2.45 0-3.55 1.8 0 3.384 0.917 4.75 2.75 0.867 1.167 1.75 2.883 2.65 5.15 0.033-0.167 0.066-1.5 0.1-4 0.067-1.533 0.3-2.75 0.7-3.65 0.733 0.533 1.483 1.35 2.25 2.45 0.434 0.667 1.05 1.667 1.85 3-0.066-1.233-0.1-2.184-0.1-2.85 0-1.167 0.2-2.117 0.6-2.85 1.601 0.934 3.167 2.417 4.7 4.45 0.9 1.167 2.15 2.9 3.75 5.2 0.067-0.2 0.283-0.566 0.65-1.1 0.267-0.4 0.399-0.7 0.399-0.9 0.533 0.5 1.567 1.667 3.101 3.5 1.133-0.933 2.983-1.617 5.55-2.05 3-0.5 4.983-0.983 5.95-1.45 0.233-0.133 0.633-0.5 1.2-1.1 0.566-0.567 1.033-0.934 1.399-1.1 0.467-0.267 1.134-0.383 2-0.35 0.934 0.033 1.55-0.017 1.851-0.15 0.333-0.167 0.85-0.333 1.55-0.5 0.667-0.167 1.167-0.333 1.5-0.5-1.4-0.5-2.684-1.383-3.851-2.65-1.366-1.467-1.1-2.3 0.801-2.5-0.467 0-0.9-0.133-1.301-0.4-0.5-0.367-0.933-0.65-1.3-0.85 1-1.833 2.717-2.9 5.15-3.2-2.101 0-3.55-0.5-4.351-1.5 0.934-1.1 2.217-1.917 3.851-2.45-2.4 0-4.117-0.5-5.15-1.5 0.434-0.466 1-1.017 1.7-1.65 0.367-0.367 0.917-0.883 1.65-1.55-1.067-0.133-1.867-0.25-2.4-0.35-0.867-0.233-1.517-0.617-1.95-1.15 1.601-0.833 3.733-1.4 6.4-1.7-1.634 0-2.851-0.05-3.65-0.15-1.399-0.167-2.5-0.533-3.3-1.1 0.3-0.133 0.75-0.35 1.35-0.65 0.533-0.267 1-0.433 1.4-0.5-1.1 0.033-2.434-0.233-4-0.8 0.633-0.833 1.717-1.367 3.25-1.6-1.533 0.066-2.8-0.15-3.8-0.65 1.066-0.667 2.017-1.067 2.85-1.2-2.866 0.2-4.366 0.3-4.5 0.3-1.767 0.034-3.267-0.15-4.5-0.55 0.134-0.633 0.483-1.233 1.05-1.8 0.601-0.534 1.283-0.934 2.051-1.2-2.233 0.233-3.551 0.35-3.95 0.35-1.567 0.033-2.9-0.167-4-0.6 0.433-0.567 1.167-1.3 2.2-2.2 1-0.9 1.717-1.633 2.149-2.2-2.399-0.333-4.017-0.75-4.85-1.25l1.5-1.5c-2.4 0.333-4.101 0.5-5.101 0.5 0.233-0.167 0.617-0.5 1.15-1 0.5-0.467 0.883-0.783 1.15-0.95-1.4 0.367-2.467 0.617-3.2 0.75-1.267 0.3-2.333 0.45-3.2 0.45 0.566-0.567 1.167-1.05 1.8-1.45-2.233 0.533-4.2 0.617-5.899 0.25 0.199-0.667 0.633-1.45 1.3-2.35 0.833-1.066 1.333-1.767 1.5-2.1-1.967 0.1-3.45 0.15-4.45 0.15-1.767 0-3.184-0.217-4.25-0.65 0.133-0.133 0.35-0.417 0.65-0.85 0.199-0.333 0.399-0.55 0.6-0.65-1.333 0-2.783-0.25-4.35-0.75 1.219-0.75 2.951-1.15 5.199-1.2-2.949-3e-3 -5.232-0.037-6.85-0.1-3.1-0.167-5.283-0.717-6.55-1.65 0.333-0.333 0.75-0.667 1.25-1-1.667 0.533-2.917 0.9-3.75 1.1l-0.351 0.65 0.15-0.6-0.65 0.1-0.05-2.45c-0.933 0-1.95 0.4-3.05 1.2 0.8-1.1 1.184-2.417 1.15-3.95-0.033-1.533-0.5-2.85-1.4-3.95l-1 1c0.867-1.067 1.3-2.167 1.3-3.3 0-1.3-0.6-2.167-1.8-2.6-1.434-0.467-4.783 2.333-10.05 8.4-0.267-3.967-0.8-6.3-1.601-7-0.967-0.9-2.899-0.133-5.8 2.3-0.8-3.3-1.75-4.783-2.85-4.45-0.2 0.033-2 1.433-5.4 4.2-0.3-1.2-0.55-2.083-0.75-2.65-0.366-1-0.883-1.767-1.55-2.3-0.867 0.2-1.733 0.7-2.6 1.5-0.967 0.966-1.717 1.7-2.25 2.2 0-0.467-0.268-1.367-0.801-2.7-0.6 0.667-1.166 1.617-1.699 2.85-0.768 1.6-1.217 2.534-1.351 2.8-1.167-0.967-2.05-1.667-2.649-2.1-1.033-0.767-2.033-1.05-3-0.85-0.167 0.467-0.384 1.25-0.65 2.35-0.233 1.033-0.45 1.817-0.65 2.35-0.267-0.3-1.066-1.483-2.399-3.55-0.967-1.5-1.95-2.533-2.95-3.1-0.333 1.433-0.417 3.15-0.25 5.15 0.066 1.133 0.233 2.783 0.5 4.95-1.633-2.066-2.583-3.216-2.85-3.45-0.4 0.667-0.716 1.667-0.95 3-0.367 2.133-0.567 3.267-0.6 3.4-1.267-0.167-3.083-1.083-5.45-2.75-2.4-1.667-4.333-2.633-5.8-2.9-0.667 1.033-0.883 2.316-0.65 3.85 0.133 0.867 0.433 2.216 0.9 4.05-0.367-0.267-0.967-0.5-1.8-0.7-0.833-0.233-1.35-0.417-1.55-0.55 0.1 0.967 0.417 2.1 0.95 3.4 0.866 2.1 1.316 3.184 1.35 3.25-0.466-0.233-1.75-0.55-3.85-0.95 0.2 0.333 0.383 0.95 0.55 1.85 0.167 0.934 0.333 1.55 0.5 1.85-0.033 0-0.8-0.033-2.3-0.1-0.867-0.033-1.55 0-2.05 0.1 0.4 0.967 1.083 2.2 2.05 3.7-0.534 0.333-0.884 0.583-1.05 0.75 1.4 0.9 4.217 2.867 8.45 5.9-0.633 0.5-2 1.317-4.1 2.45 0.033 0.033 0.184 0.25 0.45 0.65 0.2 0.3 0.4 0.5 0.6 0.6-0.267 0.1-0.7 0.35-1.3 0.75-0.6 0.433-1.017 0.683-1.25 0.75 1.333 0.8 2.783 1.2 4.35 1.2-1.733 0.167-2.967 0.25-3.7 0.25-1.3-0.033-2.466-0.267-3.5-0.7 0.1-0.4 0.333-1 0.7-1.8 0.5-1.133 0.783-1.783 0.85-1.95l-4-0.7c-1.3-0.5-1.684-1.5-1.15-3-2.133-0.267-3.667-0.95-4.6-2.05-1.034-1.233-0.267-2.184 2.3-2.85-2.233 0.4-3.017-0.333-2.35-2.2 0.534-1.5 1.483-2.917 2.85-4.25-0.367 0-0.9-0.15-1.6-0.45-0.733-0.333-1.216-0.5-1.45-0.5 0.733-0.733 1.866-1.317 3.4-1.75 0.833-0.233 2.083-0.567 3.75-1-0.4-0.133-1.25-0.3-2.55-0.5-1.133-0.2-1.983-0.434-2.55-0.7 1.2-0.833 3-1.75 5.4-2.75-1.7-1.5-1.466-3.367 0.7-5.6 1.733-1.8 3.633-3.05 5.7-3.75-4.233-2.066-6.417-3.117-6.55-3.15-2.5-0.533-4.25 0.833-5.25 4.1-0.3-2.033-1.167-3.517-2.6-4.45-0.733 1.2-1.233 2.6-1.5 4.2-0.167-0.9-0.767-2.217-1.8-3.95-1.3 0.967-2.284 2.684-2.95 5.15-0.333 1.4-0.716 3.483-1.15 6.25-0.133-1.333-0.25-2.3-0.35-2.9-0.2-1.066-0.517-1.917-0.95-2.55-0.534 1-0.934 2.283-1.2 3.85-0.133 0.867-0.333 2.133-0.6 3.8-0.3-4.267-0.633-7.55-1-9.85-0.633-4.066-1.917-7.033-3.85-8.9-0.866 1.133-1.383 2.8-1.55 5-0.133 1.233-0.217 3.017-0.25 5.35-0.3-1.8-0.583-3.167-0.85-4.1-0.4-1.7-0.983-2.967-1.75-3.8-0.833 2.033-1.25 4.583-1.25 7.65-0.8-1.9-1.45-3.133-1.95-3.7-0.934-1.2-2.083-1.533-3.45-1-0.733 0.4-1.184 1.75-1.35 4.05-0.1 1.2-0.167 2.65-0.2 4.35-1-1.966-1.517-2.966-1.55-3-0.667-1.1-1.433-1.9-2.3-2.4-0.667 1.167-1.133 2.617-1.4 4.35-0.034 0.3-0.167 1.8-0.4 4.5-0.966-2.2-2.167-3.6-3.6-4.2-0.5 0.767-0.9 1.9-1.2 3.4-0.434 2.1-0.717 3.367-0.85 3.8-0.733-1.133-1.267-1.883-1.6-2.25-0.7-0.767-1.45-1.25-2.25-1.45l-0.04 4.15c-0.033 1.667-0.267 2.983-0.7 3.95-1.167-1.367-2.083-2.367-2.75-3-1.133-1.1-2.35-1.816-3.65-2.15-0.466 0.767-0.716 2.067-0.75 3.9-0.033 1.867-0.216 3.117-0.55 3.75-0.9-1.133-1.383-1.717-1.45-1.75-0.533-0.6-1.066-1-1.6-1.2-0.233 1.233-0.333 3.283-0.3 6.15 0.033 2.7-0.133 4.75-0.5 6.15-0.434-0.367-0.767-0.6-1-0.7 0.1 0.233 0.1 0.684 0 1.35-0.066 0.633-0.066 1.083 0 1.35-1.033-0.5-1.816-0.833-2.35-1-0.9-0.267-1.75-0.35-2.55-0.25 0.066 0.267 0.083 0.883 0.05 1.85-0.066 0.867 0 1.483 0.2 1.85-1.5-0.2-2.617-0.333-3.35-0.4-1.333-0.167-2.267 0.05-2.8 0.65 0.466 0.5 1.383 1.25 2.75 2.25 1.233 0.867 2.033 1.6 2.4 2.2-1.733 0.033-3.017 0.067-3.85 0.1-1.467 0.033-2.667 0.25-3.6 0.65 0.767 0.6 2.117 1.417 4.05 2.45 1.8 0.967 3.1 1.8 3.9 2.5-1.067 0.5-2.35 0.9-3.85 1.2 0.4 0.467 1.066 0.967 2 1.5 1.167 0.667 1.95 1.167 2.35 1.5-2.733 0.5-4.7 0.983-5.9 1.45 0.533 0.7 1.316 1.383 2.35 2.05 1.634 1.034 2.483 1.583 2.55 1.65-1.2 0.267-2.083 0.45-2.65 0.55-1.034 0.233-1.867 0.55-2.5 0.95 0.366 0.1 0.883 0.35 1.55 0.75 0.7 0.433 1.217 0.683 1.55 0.75-1.533 0.5-2.566 1.4-3.1 2.7 0.733 0.434 1.683 0.833 2.85 1.2 0.667 0.233 1.684 0.566 3.05 1-1.767 0.9-2.967 1.566-3.6 2 1.467 0.7 2.934 1.267 4.4 1.7-0.2 0-0.5 0.083-0.9 0.25-0.434 0.167-0.733 0.25-0.9 0.25 0.4 0.6 1.133 1.217 2.2 1.85 1.534 0.867 2.417 1.4 2.65 1.6-1.367 0.367-2.367 0.65-3 0.85-1.134 0.333-2.017 0.8-2.65 1.4 0.534 0.333 1.4 0.783 2.6 1.35 1.2 0.566 2.05 1.017 2.55 1.35-1.034 0.3-1.8 0.517-2.3 0.65-0.867 0.267-1.55 0.55-2.05 0.85 0.5 0.3 2.183 0.95 5.05 1.95 2.133 0.767 3.7 1.684 4.7 2.75 0 0.8 0.083 1.533 0.25 2.2-1.8 0.267-2.833-0.383-3.1-1.95-1.167 0.367-2.017 0.617-2.55 0.75-0.967 0.233-1.817 0.3-2.55 0.2-0.1 0-0.25-0.25-0.45-0.75-0.233-0.533-0.434-0.85-0.6-0.95-1.4-0.233-2.333-0.417-2.8-0.55-0.767-0.2-0.95-1-0.55-2.4 0-0.167-0.333-0.333-1-0.5-0.066-0.167-0.1-0.333-0.1-0.5s-0.05-0.333-0.15-0.5c-2.1-1.233-3.066-0.883-2.9 1.05 0.2 2.567 0.133 3.95-0.2 4.15 0.3 0.667 0.967 1.333 2 2 1.633 1.067 2.5 1.633 2.6 1.7-0.533 0.066-1.6 0.083-3.2 0.05-1.366-0.066-2.433 0-3.2 0.2 2.333 1.233 3.966 2.3 4.9 3.2-0.7 0.167-1.217 0.333-1.55 0.5 0.833 0.867 2 1.784 3.5 2.75 2.366 1.534 3.6 2.333 3.7 2.4-0.133 0-0.6 0.133-1.4 0.4-0.767 0.233-1.333 0.35-1.7 0.35 0.233 0.733 0.7 1.333 1.4 1.8 0.667 0.467 1.4 0.7 2.2 0.7-1.966 0.433-3.466 0.833-4.5 1.2-1.767 0.667-2.917 1.583-3.45 2.75 1.2 0.467 3.167 0.867 5.9 1.2-0.7 0.5-1.217 0.75-1.55 0.75 0.7 0.367 1.6 0.733 2.7 1.1 1.4 0.433 2.3 0.733 2.7 0.9-0.534 0.3-0.884 0.533-1.05 0.7 1.067 0.2 2.567 0.267 4.5 0.2 2.233-0.033 3.733-0.017 4.5 0.05-0.833 1-1.35 1.65-1.55 1.95-0.5 0.767-0.75 1.517-0.75 2.25 0.433-0.067 1.066-0.133 1.9-0.2 0.767-0.133 1.417-0.4 1.95-0.8-1.367 1.5-2.267 2.6-2.7 3.3-0.9 1.333-1.283 2.55-1.15 3.65 1.3-0.133 2.517-0.55 3.65-1.25 1.2-0.7 2.117-1.6 2.75-2.7-0.333 0.667-0.867 1.667-1.6 3-0.5 1.167-0.65 2.217-0.45 3.15 1.133 0.1 2.383-0.117 3.75-0.65 0.9-0.367 2.05-0.967 3.45-1.8-0.5 1.8-0.767 2.8-0.8 3-0.267 1.167-0.35 2.216-0.25 3.15 1.267-0.1 2.716-0.7 4.35-1.8 0.9-0.6 2.267-1.566 4.1-2.9 0.467 1.067 1.583 1.317 3.35 0.75-0.3 1.2-0.95 3-1.95 5.4l-0.1-0.95c-2.4 1.167-4.217 2-5.45 2.5-2.167 0.833-4.117 1.15-5.85 0.95 0.8-1.6 1.317-2.75 1.55-3.45-4.1 3.233-7.867 4.217-11.3 2.95 0.134-0.233 0.233-0.917 0.3-2.05 0.1-1.167 0.35-2.117 0.75-2.85-1.167 0.867-2.45 1.434-3.85 1.7-0.867 0.167-2.15 0.25-3.85 0.25 0.467-1.4 0.767-2.217 0.9-2.45 0.414-0.986 0.93-1.786 1.55-2.4-0.813 0.774-1.829 1.257-3.05 1.45-1.466 0.133-2.633 0.283-3.5 0.45 0.2-0.566 0.167-1.467-0.1-2.7-0.3-1.53-0.45-2.45-0.45-2.75-0.267 0.1-1.283 0.283-3.05 0.55-1.467 0.233-2.5 0.55-3.1 0.95 0.633-1.733 1.5-3.383 2.6-4.95-0.6 0.367-1.45 0.6-2.55 0.7-1.367 0.1-2.233 0.2-2.6 0.3 1.067-2.533 2.6-5 4.6-7.4-2.367 0.333-4.133 0.517-5.3 0.55-1.934 0.067-3.583-0.117-4.95-0.55 1.333-3.167 3.05-5.15 5.15-5.95-0.5 0.167-1.267 0.25-2.3 0.25s-1.816 0.083-2.35 0.25c1.1-2 2.133-3.316 3.1-3.95-0.7 0.167-1.617 0.167-2.75 0-1.1-0.167-1.9-0.167-2.4 0 0.466-0.567 1.066-1.617 1.8-3.15 0.633-1.3 1.233-2.216 1.8-2.75-0.634 0.2-1.55 0.25-2.75 0.15-1.233-0.1-2.017-0.15-2.35-0.15 0.333-0.333 0.75-1.083 1.25-2.25 0.5-1.133 0.933-1.867 1.3-2.2-0.566 0-1.316-0.167-2.25-0.5-0.933-0.333-1.55-0.5-1.85-0.5 0.333-1.267 1.083-2.35 2.25-3.25 1.067-0.833 2.333-1.417 3.8-1.75-0.967-0.4-1.784-1.033-2.45-1.9 0.833-1.333 1.267-2.034 1.3-2.1 0.466-0.633 0.966-1.083 1.5-1.35h-0.75c1.915-2.807 4.615-4.94 8.1-6.4-1.047 0.4-2.297 0.6-3.75 0.6-1.7-0.1-2.983-0.15-3.85-0.15 0.7-0.5 1.733-1.3 3.1-2.4 1.2-0.967 2.217-1.65 3.05-2.05-3.067 0.667-5.4 1.1-7 1.3-2.633 0.367-5.083 0.434-7.35 0.2 0.7-0.967 1.767-1.917 3.2-2.85 1.267-0.867 2.583-1.567 3.95-2.1h-2.55c0.867-0.5 2.233-1.267 4.1-2.3 1.7-0.934 3.066-1.817 4.1-2.65-0.9 0-2.433-0.317-4.6-0.95 0.7-0.167 1.733-0.5 3.1-1s2.384-0.833 3.05-1c-2.034 0-4.083-0.333-6.15-1 0.533-0.167 1.3-0.567 2.3-1.2 1.033-0.667 1.8-1.083 2.3-1.25-1.267-0.5-2.316-0.9-3.15-1.2-1.5-0.533-2.667-0.8-3.5-0.8 0.534-0.167 1.3-0.483 2.3-0.95 1.033-0.5 1.8-0.833 2.3-1-0.967 0.2-2.25 0.183-3.85-0.05-1.966-0.3-3.25-0.45-3.85-0.45 1.333-0.633 2.4-1.083 3.2-1.35 1.242-0.392 2.55-0.592 3.925-0.6-0.852-0.011-1.827-0.195-2.925-0.55-1.233-0.467-2.117-0.783-2.65-0.95 0.333-0.333 1.017-1.15 2.05-2.45-0.5 0-1.267-0.167-2.3-0.5-1-0.333-1.767-0.5-2.3-0.5 0.833-1 2.25-1.867 4.25-2.6 3.2-1.2 4.85-1.817 4.95-1.85-0.633 0-2-0.5-4.1-1.5 1.2-0.467 3-1.133 5.4-2 2.134-0.833 3.934-1.65 5.4-2.45-2.067-0.566-3.583-0.983-4.55-1.25-1.733-0.5-3.133-1.066-4.2-1.7 0.767-0.7 1.816-1.5 3.15-2.4 1.3-0.833 2.483-1.517 3.55-2.05-0.633-0.633-1.15-0.95-1.55-0.95 2.533-1.233 4.933-2.067 7.2-2.5-2.6-0.633-4.65-1.45-6.15-2.45 0.567 0.2 1.417 0.183 2.55-0.05 1.366-0.3 2.216-0.45 2.55-0.45-0.994-0.994-1.677-1.494-2.05-1.5 0.309-1e-3 1.025-0.084 2.15-0.25 1.1-0.167 1.917-0.25 2.45-0.25-0.4-0.3-0.716-0.55-0.95-0.75-0.367-0.367-0.55-0.767-0.55-1.2 0-0.167 0.167-0.333 0.5-0.5s0.5-0.333 0.5-0.5c0-0.133-0.083-0.4-0.25-0.8s-0.25-0.783-0.25-1.15c0.467 0 1.434-0.25 2.9-0.75 1.433-0.5 2.517-0.75 3.25-0.75 0.233-1.467 1.05-2.434 2.45-2.9 1.367-0.467 2.95-0.317 4.75 0.45 0.167-0.333 0.483-0.917 0.95-1.75 0.4-0.767 0.6-1.35 0.6-1.75 0.133 0.233 0.35 0.5 0.65 0.8 0.367 0.333 0.633 0.617 0.8 0.85-0.466-1.566-0.216-2.983 0.75-4.25 1-1.333 2.483-2.1 4.45-2.3 0-0.533 0.183-1.333 0.55-2.4 0.333-1.067 0.5-1.75 0.5-2.05 0.7 0.5 1.684 1.133 2.95 1.9 1 0.767 1.716 1.783 2.15 3.05-0.2-1.267-0.15-2.45 0.15-3.55 0.434-1.1 0.733-1.9 0.9-2.4 0.267 0 0.583 0.1 0.95 0.3 0.361 0.229 0.544 0.463 0.55 0.7v-2.95c1.5-0.467 3-0.417 4.5 0.15 1.434 0.567 2.684 1.5 3.75 2.8-0.433-1.2-0.466-2.316-0.1-3.35 0.566-1.067 0.933-1.934 1.1-2.6 0.434 0.267 1.4 0.617 2.9 1.05 1.433 0.434 2.517 0.917 3.25 1.45 0-0.333 0.267-1 0.8-2 0.5-1 0.75-1.65 0.75-1.95 0.167 0.5 0.483 1.333 0.95 2.5 0.4 1.133 0.6 2.1 0.6 2.9 0.267-1.966 0.483-3.433 0.65-4.4 0.3-1.733 0.767-3.217 1.4-4.45 1.033 1 1.716 1.816 2.05 2.45 0-1.233 0.3-2.5 0.9-3.8 0.767-1.4 1.317-2.434 1.65-3.1 0.533 0.5 1.45 1.2 2.75 2.1 1.167 0.867 1.966 1.8 2.4 2.8 0.2-0.933 0.716-1.867 1.55-2.8 0.9-1.067 1.417-1.767 1.55-2.1 0.3 0.567 1.033 1.467 2.2 2.7 1.067 1.1 1.7 2 1.9 2.7 0.7-1.333 1.2-2.15 1.5-2.45 2.4 0.833 4.817 2.6 7.25 5.3 1.434 1.567 3.467 4.083 6.1 7.55 0.233-0.7 0.917-2.183 2.05-4.45 0 0.333 0.366 0.933 1.1 1.8 0.833 0.967 1.333 1.684 1.5 2.15 0-0.3 0.35-0.9 1.05-1.8 0.667-0.9 1-1.617 1-2.15 0.167 0.333 0.6 0.833 1.3 1.5 0.667 0.633 1.083 1.117 1.25 1.45 0.167-0.5 0.767-1.316 1.8-2.45 1.033-1.167 1.633-2 1.8-2.5 0 0.367 0.083 0.767 0.25 1.2 0.167 0.4 0.25 0.667 0.25 0.8 0.167-0.167 0.45-0.483 0.85-0.95 0.367-0.367 0.767-0.55 1.2-0.55 0.767 0.933 1.517 2.033 2.25 3.3 0.434 0.7 1.05 1.783 1.851 3.25 0.066-0.133 0.232-0.333 0.5-0.6 0.433 0 0.767 0.1 1 0.3 0.133 0.133 0.316 0.367 0.55 0.7 0.2-1.167 0.75-2.283 1.649-3.35 1.17-1.433 1.82-2.3 1.95-2.6z" fill="#3C5E19"/>
	<path d="m88.8 88.65c0.134-0.333 0.2-0.633 0.2-0.9 0.4 0.533 1.033 1.2 1.9 2 0.8 0.8 1.333 1.367 1.6 1.7 0.233-1.233 0.35-2.217 0.35-2.95 0.433 0.6 1.333 1.583 2.7 2.95 0.134-0.1 0.517-0.417 1.15-0.95s1.017-0.95 1.15-1.25c0.267 0.5 0.4 0.983 0.4 1.45 0.267 0 0.783-0.233 1.55-0.7 0.367 0.933 0.45 1.917 0.25 2.95s-0.667 2.017-1.4 2.95c1 0 1.633-0.117 1.9-0.35-0.267 0.967-0.917 1.85-1.95 2.65-1.267 1-2.034 1.716-2.3 2.15-0.333 0.767-0.667 2.2-1 4.3-0.3 2-0.733 3.533-1.3 4.6 0.333-0.3 0.85-0.6 1.55-0.9 0.4-0.167 0.917-0.367 1.55-0.6-0.133 0.633-0.25 1.5-0.35 2.6-0.167 0.967-0.566 1.833-1.2 2.6 0.233 1.033 0.267 1.833 0.1 2.4-0.2 0.733-0.75 1.533-1.65 2.4 1.133-0.5 1.9-0.75 2.3-0.75v2.6c-0.1 0.933-0.483 1.8-1.15 2.6 0.3-0.3 0.95-0.667 1.95-1.1 0 0.367 0.183 1.066 0.55 2.1 0.3 0.867 0.367 1.65 0.2 2.35 0.167-0.6 0.683-1.716 1.55-3.35 0 0.466 0.2 1.167 0.6 2.1 0.361 0.919 0.544 1.694 0.55 2.325 0.01-0.801 0.393-1.909 1.15-3.325 0 0.367 0.133 0.934 0.4 1.7 0.267 0.733 0.4 1.283 0.4 1.65 0.667-2.3 1.117-3.733 1.35-4.3 0.733-1.7 1.683-2.867 2.85-3.5 0.767 2.167 1.15 4.633 1.15 7.4 1.033-3.8 2.833-6.017 5.4-6.65 1.133 1.667 1.6 3.533 1.4 5.6 0.233-0.4 0.917-1.034 2.05-1.9 0.466 2.6 0.216 4.817-0.75 6.65 0.5-0.233 1.267-0.35 2.3-0.35 0.467 1.066 0.684 1.933 0.65 2.6-0.066 0.9-0.533 1.767-1.4 2.6 1.733-0.333 2.867 0.534 3.4 2.6 0.467 1.867 0.35 3.583-0.351 5.15 0.767-1.3 1.567-1.8 2.4-1.5 0.8 0.333 1.283 1.333 1.45 3 0.3-2.1 0.583-3.6 0.85-4.5 0.5-1.633 1.25-2.85 2.25-3.65 0.1 0.133 0.667 0.65 1.7 1.55 0.767 0.7 1.217 1.417 1.35 2.15 0-0.434 0.217-1.05 0.65-1.85 0.533-1 0.833-1.617 0.899-1.85 0.134 0.367 0.467 0.867 1 1.5 0.5 0.6 0.817 1.083 0.95 1.45-0.267-2.1-0.433-3.567-0.5-4.4-0.1-1.4 0.317-2.034 1.25-1.9-2.033-2-2.667-4.1-1.899-6.3 0.5 0.267 1.267 0.517 2.3 0.75-2.101-2.233-3.7-4.55-4.8-6.95-1.268-2.8-1.717-5.417-1.351-7.85l0.45 0.4c0.3 0.233 0.533 0.35 0.7 0.35-0.3-1.434 0.083-3.167 1.149-5.2 0.567 1.067 0.95 1.683 1.15 1.85 0-1.133 0.15-2.033 0.45-2.7 0.3-0.7 0.917-1.4 1.85-2.1 1.2 1.567 2.033 3.983 2.5 7.25 0.601 4.2 1.05 6.717 1.351 7.55-0.167-0.6-0.217-1.217-0.15-1.85 0.1-1.1 0.15-1.717 0.15-1.85 0.267 0.233 1.033 0.85 2.3 1.85 0-0.433 0.217-1.183 0.649-2.25 0.533-1.433 0.834-2.283 0.9-2.55 0.133 0.133 0.467 0.417 1 0.85 0.566 0.534 1 1.117 1.3 1.75 0.3 0.133 0.483-0.017 0.55-0.45 0.067-0.467 0.15-0.7 0.25-0.7 0.233 0.5 0.617 1.5 1.15 3 0-2.566 0.9-4.55 2.7-5.95 0.2 0.3 0.583 0.683 1.149 1.15 0.467 0.4 0.851 0.883 1.15 1.45 0.533-2.333 1.233-3.816 2.1-4.45 0.801-0.533 1.533-0.333 2.2 0.6 1.7 2.433 1.667 5.683-0.1 9.75 0.399-0.333 0.8-0.333 1.2 0 0.166 1.466-0.134 2.933-0.9 4.4-0.367 0.733-1.233 1.983-2.6 3.75 1.5-0.167 2.482 0.2 2.949 1.1 0.434 0.867 0.351 1.983-0.25 3.35 0 0.267 0.268 0.017 0.801-0.75 0.133 0.4 0.366 1.117 0.699 2.15 0.301 1.033 0.45 1.933 0.45 2.7 0.667-2.367 1.967-3.917 3.9-4.65 1.994-0.772 3.353 0.178 4.075 2.85-0.289-1.208-0.265-2.275 0.074-3.2 0.4-1.066 1.167-1.867 2.301-2.4 1.399 1.033 3.066 2.75 5 5.15-0.301-0.733-0.533-1.717-0.7-2.95-0.267-1.733-0.417-2.717-0.45-2.95 0.133 0.267 0.4 0.583 0.8 0.95 0.367 0.367 0.617 0.667 0.75 0.9-0.167-0.767-0.133-1.684 0.101-2.75 0.333-1.233 0.566-2.167 0.699-2.8l0.75 0.8c-0.433-1.267-0.433-2.4 0-3.4 0.467 0.433 1.217 1.05 2.25 1.85-1.767-2.3-2.649-4.517-2.649-6.65 0.133 0.133 0.717 0.517 1.75 1.15 0.866 0.5 1.45 0.967 1.75 1.4 0.133-2.133 0.233-3.717 0.3-4.75 0.1-1.8 0.383-3.3 0.85-4.5 1.268 1.267 2.167 3.367 2.7 6.3 0.134-0.567 0.384-1.167 0.75-1.8 0.4-0.733 0.65-1.25 0.75-1.55 1.233 0.667 2.184 1.65 2.851 2.95 0.467 0.9 0.933 2.267 1.399 4.1h1.9l0.399 2.2c0-1.533 0.45-2.816 1.351-3.85 0.967-1.1 2.183-1.65 3.649-1.65-2.033-2.967-3.05-5.45-3.05-7.45 1.167 1.6 3.217 3.833 6.15 6.7 0.967-0.933 1.899-1.3 2.8-1.1 0.9 0.167 1.633 0.9 2.2 2.2 0.366-2.433 1.649-4.283 3.85-5.55 0.934 0.833 1.583 1.333 1.95 1.5 1.7-2.233 4.583-3.3 8.65-3.2 3.199 0.067 6.866 0.85 11 2.35l-0.25 0.2c1.467 0.7 2.35 1.2 2.649 1.5-1.1 1.067-2.866 2.117-5.3 3.15-2.633 1.1-4.417 2.017-5.35 2.75 2.699 1.9 4.833 4.4 6.399 7.5 1.767 3.566 0.25 4.7-4.55 3.4v3.45c-1.434-0.933-2.434-1.683-3-2.25-0.467-0.4-1.1-1.133-1.9-2.2 0.667 1.066 0.95 2.283 0.851 3.65-0.033 0.633-0.25 1.717-0.65 3.25-0.3-0.3-1.149-0.8-2.55-1.5 0.3 2.033 0.333 3.65 0.1 4.85-0.267 1.566-0.982 2.917-2.149 4.05-0.667-1.367-1.15-2.4-1.45-3.1-0.5-1.167-0.733-2.267-0.7-3.3-0.133 0.767-0.483 1.617-1.05 2.55-0.667 1.034-1.15 1.833-1.45 2.4-0.967-0.467-1.633-1.367-2-2.7-0.3-1.233-0.316-2.65-0.05-4.25-2.667 3.233-5.233 5.05-7.7 5.45-0.5-1.2-0.649-2.517-0.45-3.95 0.2-1.367 0.7-2.683 1.5-3.95-1.433 1.133-2.35 1.65-2.75 1.55-0.166-0.067-0.967-0.917-2.399-2.55-0.101 0.967-0.2 3.083-0.3 6.35-0.101 2.5-0.334 4.5-0.7 6-1.367-0.9-2.2-1.467-2.5-1.7-0.967-0.867-1.667-1.95-2.101-3.25 0.567 2.767 0.9 5.133 1 7.1 0.134 2.434-0.033 4.684-0.5 6.75-0.699-2.1-1.05-3.583-1.05-4.45-0.366 2.566-0.667 4.35-0.899 5.35-0.434 2.033-0.983 3.7-1.65 5-1.333-2.467-2.184-4.6-2.55-6.4 0 0.8-0.2 1.8-0.601 3-0.6 1.833-0.916 2.817-0.949 2.95-0.434-1.067-0.75-1.917-0.95-2.55-0.4-1.133-0.601-2.1-0.601-2.9-1.866 4.133-4.433 6.434-7.699 6.9-0.334-1.633-0.5-2.784-0.5-3.45-0.2 0.4-0.617 0.883-1.25 1.45-0.7 0.533-1.134 0.867-1.301 1-0.699-3.2-1.732-5.667-3.1-7.4 0.233 4.167-1.133 5.85-4.1 5.05-2.9-0.767-4.783-2.783-5.65-6.05 0.6 2.733 0.233 6.367-1.1 10.9-1.867 6.367-2.867 9.983-3 10.85-0.134-0.4-0.467-1.083-1-2.05-0.5-0.867-0.851-1.667-1.051-2.4-0.1 3.333-0.583 5.467-1.449 6.4-0.667 0.767-1.717 0.867-3.15 0.3-1.867-0.9-3.316-1.55-4.35-1.95-1.867-0.7-3.5-0.8-4.9-0.3 0.333-0.833 0.633-1.517 0.9-2.05 0.467-0.967 1.017-1.767 1.649-2.4-1.833 0.667-2.967 0.917-3.399 0.75-0.634-0.633-1.384-1.367-2.25-2.2l-2.051 1.95c-0.666-2.6-1-5.067-1-7.4-0.566 0.533-1.583 1.167-3.05 1.9-1.433 0.733-2.3 1.25-2.6 1.55 0-0.367-0.15-1.45-0.45-3.25-0.267-1.5-0.3-2.717-0.1-3.65-0.533 1.067-1.384 1.883-2.551 2.45 0-0.3-0.166-1.067-0.5-2.3-0.333-1.233-0.5-2.117-0.5-2.65-1.866 1.367-4.433 2.367-7.7 3 0.034-0.133 0.217-0.95 0.55-2.45 0.233-1.066 0.55-1.9 0.95-2.5-1.4 0.534-2.85 0.867-4.35 1-1.7 0.133-3.15-0.033-4.35-0.5 0.6-1.433 1.733-2.8 3.4-4.1-0.567 0.1-1.7-0.017-3.4-0.35 0.3-0.3 0.667-1.067 1.1-2.3 0.434-1.233 0.917-2.117 1.45-2.65-0.767 0.567-1.867 0.967-3.3 1.2-1.667 0.267-2.784 0.533-3.35 0.8 0.267-1.733 0.517-3.066 0.75-4-1.333 2.133-2.417 3.2-3.25 3.2l-0.05-0.5c0.034 2.3 0.017 3.8-0.05 4.5-0.133 1.667-0.566 3-1.3 4-2.6-1.4-3.55-3.583-2.85-6.55-0.733 1.567-2.034 2.934-3.9 4.1-1.267-0.433-1.967-1.25-2.1-2.45-0.1 1.233-0.133 3.15-0.1 5.75-1.333 0.033-2.4-0.5-3.2-1.6-0.7-0.934-1.1-2.117-1.2-3.55-0.733 1.267-1.267 2.1-1.6 2.5-0.7 0.833-1.517 1.417-2.45 1.75-0.033-0.5-0.05-2.017-0.05-4.55-0.333 1.4-0.967 2.617-1.9 3.65-0.967 1.067-2.133 1.8-3.5 2.2-0.3-1.5-0.017-3.2 0.85-5.1-1.267 0.7-2.167 1.15-2.7 1.35-1.066 0.4-2.05 0.533-2.95 0.4l-0.15-2.3c-1.133 2.3-2.433 3.583-3.9 3.85-1.566 0.3-2.7-0.767-3.4-3.2-2.4 1.367-3.784 2.15-4.15 2.35-1.733 0.867-3.25 1.4-4.55 1.6 0-0.4-0.1-0.983-0.3-1.75-0.233-0.867-0.4-1.517-0.5-1.95 0.2-0.167 0.483-0.483 0.85-0.95 0.333-0.433 0.7-0.783 1.1-1.05-2.7-0.4-5.5-1.017-8.4-1.85-3.2-0.933-5.8-1.933-7.8-3 2.1 0 3.633 0.033 4.6 0.1-1.5-0.333-2.65-1-3.45-2 0.533 0 1.566 0.083 3.1 0.25-1.534-0.434-2.684-0.934-3.45-1.5-1-0.7-1.767-1.75-2.3-3.15h1.9c-0.767-2.333-1.4-4.117-1.9-5.35 2.3 0.433 4.216 1.367 5.75 2.8-1.3-2.7-2.2-4.667-2.7-5.9 1.3 0.6 2.767 1.483 4.4 2.65 0.934 0.633 2.284 1.6 4.05 2.9-1.7-2.1-2.717-4.083-3.05-5.95 0.7 0.233 2.117 0.95 4.25 2.15 1.634 0.9 3.034 1.417 4.2 1.55-0.133-0.367-0.2-1.033-0.2-2 0-1-0.066-1.683-0.2-2.05 1.033 0.333 2.033 0.933 3 1.8 0.533 0.5 1.333 1.383 2.4 2.65-0.267-0.567-0.434-1.5-0.5-2.8-0.066-1.467-0.15-2.383-0.25-2.75 0.267 0.4 0.733 0.833 1.4 1.3 0.8 0.566 1.35 0.983 1.65 1.25-1.033-2.067-1.75-3.55-2.15-4.45-0.7-1.733-1.133-3.333-1.3-4.8l3.45 2.25c-0.267-0.567-0.433-1.383-0.5-2.45-0.066-1.4-0.15-2.317-0.25-2.75 1.1 0.733 2.217 1.917 3.35 3.55 0.6 0.867 1.4 2.034 2.4 3.5 0.333-0.566 0.583-1.017 0.75-1.35 0.3-0.6 0.45-1.15 0.45-1.65 0.1 0.2 0.417 0.65 0.95 1.35 0.5 0.7 0.816 1.25 0.95 1.65 0.267-0.5 0.65-1.367 1.15-2.6 0 0.5 0.134 1.25 0.4 2.25 0.258 0.936 0.392 1.653 0.4 2.15 0.01-1.493 0.51-3.459 1.5-5.9 0.433 0.767 0.767 1.466 1 2.1-0.1-1.433 0.083-2.75 0.55-3.95 0.267 0.5 0.784 1.183 1.55 2.05s1.283 1.55 1.55 2.05c-0.533-1.467-0.816-2.617-0.85-3.45-0.033-1.267 0.367-2.217 1.2-2.85-1.133-1.667-1.817-3.333-2.05-5-0.3-2.1 0.65-2.667 2.85-1.7-0.167-0.434-0.083-1.1 0.25-2 0.333-1 0.5-1.567 0.5-1.7 0.534 0.5 1.567 1.367 3.1 2.6-0.2-0.9-0.75-2.567-1.65-5-0.8-2.1-1.267-3.767-1.4-5 1.167 0.767 1.866 1.233 2.1 1.4 0.73 0.562 1.272 1.112 1.625 1.65-0.218-0.426-0.393-1.009-0.525-1.75-0.2-1.167-0.333-1.85-0.4-2.05 0.3-0.133 0.566-0.1 0.8 0.1 0.367 0.333 0.684 0.55 0.95 0.65v-2.575c8e-3 0.428 0.258 0.986 0.75 1.675 0.566 0.833 0.9 1.383 1 1.65-0.167-0.633-0.25-1.434-0.25-2.4 0.033-1.1 0.05-1.9 0.05-2.4 0.134 0.267 0.467 0.517 1 0.75 0.634 0.267 1.067 0.5 1.3 0.7 0-0.5-0.1-1.85-0.3-4.05-0.2-1.733-0.216-3.083-0.05-4.05 0 0.1 0.066 0.283 0.2 0.55 0.099 0.231 0.149 0.415 0.15 0.55 2e-3 -0.103 0.068-0.303 0.2-0.6z" fill="#2C4814"/>
</g>
</svg>